<?xml version="1.0" encoding="UTF-8"?>
<svg version="1.1" xmlns="http://www.w3.org/2000/svg" width="500" height="500">
<path d="M0 0 C2.19648779 1.79939834 4.02446209 3.45201751 5.9375 5.5 C6.67709961 6.24830078 6.67709961 6.24830078 7.43164062 7.01171875 C11 10.70380765 11 10.70380765 11 13 C11.66 13 12.32 13 13 13 C13 13.66 13 14.32 13 15 C13.66 15 14.32 15 15 15 C15 15.66 15 16.32 15 17 C15.556875 17.226875 16.11375 17.45375 16.6875 17.6875 C19.66159588 19.37550036 21.72008865 21.46676517 24 24 C24 24.66 24 25.32 24 26 C24.66 26 25.32 26 26 26 C26 26.66 26 27.32 26 28 C26.66 28 27.32 28 28 28 C28 28.66 28 29.32 28 30 C28.66 30 29.32 30 30 30 C30 30.66 30 31.32 30 32 C30.59194153 32.26727905 31.18388306 32.53455811 31.79376221 32.80993652 C34.0336644 34.01815887 35.50428548 35.25076931 37.29980469 37.04101562 C38.23031647 37.96207092 38.23031647 37.96207092 39.17962646 38.9017334 C39.83706848 39.56322388 40.4945105 40.22471436 41.171875 40.90625 C42.1955014 41.92700623 42.1955014 41.92700623 43.23980713 42.96838379 C44.67779427 44.40501197 46.11326692 45.84416085 47.54638672 47.28564453 C49.74877028 49.49876429 51.96164933 51.70098472 54.17578125 53.90234375 C55.57095454 55.29883803 56.96550762 56.69595227 58.359375 58.09375 C59.35768341 59.08598572 59.35768341 59.08598572 60.37615967 60.0982666 C60.98389221 60.71230347 61.59162476 61.32634033 62.21777344 61.95898438 C63.02574371 62.76934143 63.02574371 62.76934143 63.85003662 63.59606934 C65 65 65 65 65 67 C65.66 67 66.32 67 67 67 C67 67.66 67 68.32 67 69 C67.66 69 68.32 69 69 69 C69 69.66 69 70.32 69 71 C69.66 71 70.32 71 71 71 C71 71.66 71 72.32 71 73 C71.58265625 73.25652344 72.1653125 73.51304687 72.765625 73.77734375 C76.78485275 75.97667642 79.57409659 79.14360463 82 83 C83.07026428 86.96666699 82.96334176 90.28778308 80.9296875 93.90234375 C79.625 95.5625 79.625 95.5625 77 98 C76.34 98 75.68 98 75 98 C75 98.66 75 99.32 75 100 C73.35546875 101.5859375 73.35546875 101.5859375 71.1875 103.375 C68.93749143 105.23566282 67.09649715 106.86872703 65.36328125 109.2265625 C64.91339844 109.81179688 64.46351563 110.39703125 64 111 C63.34 111 62.68 111 62 111 C62 111.66 62 112.32 62 113 C61.34 113 60.68 113 60 113 C60 113.66 60 114.32 60 115 C58.35546875 116.5859375 58.35546875 116.5859375 56.1875 118.375 C53.93749143 120.23566282 52.09649715 121.86872703 50.36328125 124.2265625 C49.91339844 124.81179688 49.46351563 125.39703125 49 126 C48.34 126 47.68 126 47 126 C47 126.66 47 127.32 47 128 C45.35546875 129.5859375 45.35546875 129.5859375 43.1875 131.375 C40.93749143 133.23566282 39.09649715 134.86872703 37.36328125 137.2265625 C36.91339844 137.81179688 36.46351563 138.39703125 36 139 C35.34 139 34.68 139 34 139 C34 139.66 34 140.32 34 141 C32.42578125 142.515625 32.42578125 142.515625 30.3125 144.25 C27.75365111 146.41897174 25.66063189 148.40724173 23.5 151 C21.53911184 153.35306579 19.80374282 155.10911806 17.5 157.0625 C12.8656788 160.99545841 8.64101234 165.3047388 4.39257812 169.64477539 C0.20358003 173.89820998 0.20358003 173.89820998 -2 175 C-3.71233688 174.9129796 -5.42175406 174.75902838 -7.125 174.5625 C-8.03507813 174.46066406 -8.94515625 174.35882813 -9.8828125 174.25390625 C-10.58148438 174.17011719 -11.28015625 174.08632813 -12 174 C-12 173.34 -12 172.68 -12 172 C-12.66 172 -13.32 172 -14 172 C-15.70617557 164.39822764 -15.70617557 164.39822764 -14.0234375 161.06640625 C-12.6875 159.4375 -12.6875 159.4375 -10 157 C-9.34 157 -8.68 157 -8 157 C-8 156.34 -8 155.68 -8 155 C-7.34 155 -6.68 155 -6 155 C-6 154.34 -6 153.68 -6 153 C-5.34 153 -4.68 153 -4 153 C-3.7628125 152.43796875 -3.525625 151.8759375 -3.28125 151.296875 C-1.71052303 148.48105958 0.21471464 146.52044584 2.5 144.25 C3.69109375 143.05117188 3.69109375 143.05117188 4.90625 141.828125 C7 140 7 140 9 140 C9.26192139 139.41210693 9.52384277 138.82421387 9.79370117 138.21850586 C11.06475808 135.88090333 12.40737956 134.36347396 14.30078125 132.50390625 C14.94853516 131.86259766 15.59628906 131.22128906 16.26367188 130.56054688 C17.2778418 129.57151367 17.2778418 129.57151367 18.3125 128.5625 C18.97701172 127.90701172 19.64152344 127.25152344 20.32617188 126.57617188 C21.6212986 125.29897964 22.91953978 124.02493626 24.22119141 122.75439453 C25.79407839 121.20309535 27.32585321 119.62095054 28.85546875 118.02734375 C31 116 31 116 33 116 C33 115.34 33 114.68 33 114 C33.66 114 34.32 114 35 114 C35 113.34 35 112.68 35 112 C35.66 112 36.32 112 37 112 C37.38671875 111.12601563 37.38671875 111.12601563 37.78125 110.234375 C39.09834017 107.8197097 40.55088384 106.18259823 42.5 104.25 C43.1084375 103.63640625 43.716875 103.0228125 44.34375 102.390625 C46 101 46 101 48 101 C48 100.34 48 99.68 48 99 C48.66 99 49.32 99 50 99 C50 98.34 50 97.68 50 97 C48.95747952 96.99853344 47.91495903 96.99706688 46.84084702 96.99555588 C21.49498681 96.95899 -3.85074095 96.89957875 -29.19649124 96.81609726 C-41.45342483 96.77625753 -53.71029376 96.74389013 -65.96728516 96.72900391 C-76.64824946 96.71601295 -87.32907177 96.68911381 -98.00995612 96.64538693 C-103.66744857 96.62271458 -109.32476552 96.60709277 -114.98230743 96.60811615 C-120.30439349 96.60885935 -125.62609074 96.59104561 -130.94807625 96.55883217 C-132.90402263 96.55029447 -134.86001243 96.54860931 -136.81596947 96.55419731 C-139.48187741 96.56080065 -142.14653494 96.54300549 -144.81231689 96.51898193 C-145.59052803 96.52674235 -146.36873917 96.53450277 -147.17053246 96.54249835 C-150.68897764 96.48617325 -152.63687122 96.2754522 -155.47852707 94.11990738 C-157.31716216 91.55808981 -157.53819489 90.13198075 -157.5 87 C-157.5103125 86.154375 -157.520625 85.30875 -157.53125 84.4375 C-156.80094666 81.08669644 -155.73404083 80.07391319 -153 78 C-150.14271844 77.60383742 -147.66922543 77.45252862 -144.81231689 77.48101807 C-143.97993807 77.47351681 -143.14755924 77.46601556 -142.28995681 77.458287 C-139.49676341 77.43796373 -136.70437818 77.4461215 -133.91113281 77.45410156 C-131.91056004 77.44536907 -129.90999427 77.43488443 -127.90943909 77.42277527 C-122.47384358 77.39485508 -117.0384753 77.39151192 -111.60281849 77.39249516 C-105.92394197 77.38937123 -100.24516858 77.36376389 -94.56634521 77.34051514 C-83.81065054 77.2999117 -73.05501657 77.2796042 -62.29925704 77.26654124 C-50.05508633 77.25068591 -37.81101912 77.21227648 -25.56690836 77.17194796 C-0.37797362 77.08948955 24.81095833 77.03543456 50 77 C50 76.34 50 75.68 50 75 C49.43796875 74.7628125 48.8759375 74.525625 48.296875 74.28125 C45.48105958 72.71052303 43.52044584 70.78528536 41.25 68.5 C40.05117188 67.30890625 40.05117188 67.30890625 38.828125 66.09375 C37 64 37 64 37 62 C36.34 62 35.68 62 35 62 C35 61.34 35 60.68 35 60 C34.43796875 59.7628125 33.8759375 59.525625 33.296875 59.28125 C30.48105958 57.71052303 28.52044584 55.78528536 26.25 53.5 C25.45078125 52.7059375 24.6515625 51.911875 23.828125 51.09375 C22 49 22 49 22 47 C21.43796875 46.7628125 20.8759375 46.525625 20.296875 46.28125 C17.48105958 44.71052303 15.52044584 42.78528536 13.25 40.5 C12.45078125 39.7059375 11.6515625 38.911875 10.828125 38.09375 C9 36 9 36 9 34 C8.43796875 33.7628125 7.8759375 33.525625 7.296875 33.28125 C4.48105958 31.71052303 2.52044584 29.78528536 0.25 27.5 C-0.94882812 26.30890625 -0.94882812 26.30890625 -2.171875 25.09375 C-4 23 -4 23 -4 21 C-4.66 21 -5.32 21 -6 21 C-6 20.34 -6 19.68 -6 19 C-6.556875 18.79375 -7.11375 18.5875 -7.6875 18.375 C-10.89808956 16.4660008 -13.36370852 14.36427171 -15 11 C-15.12180774 7.8888274 -14.6802021 5.03060344 -14 2 C-13.34 2 -12.68 2 -12 2 C-12 1.34 -12 0.68 -12 0 C-7.39429212 -2.5122043 -4.81290634 -1.82523355 0 0 Z " fill="#264157" transform="translate(282,162)"/>
<path d="M0 0 C-1.34097606 0.00496522 -1.34097606 0.00496522 -2.70904255 0.01003075 C-24.44105521 0.09117854 -46.17299756 0.18324383 -67.90491199 0.28752708 C-78.41421357 0.33769275 -88.92350718 0.38413517 -99.43286133 0.421875 C-108.5906171 0.45477052 -117.74831184 0.49458814 -126.90600032 0.54279006 C-131.75690405 0.56807936 -136.60776717 0.58985342 -141.45871925 0.60334396 C-146.02149329 0.6161423 -150.5841282 0.63817247 -155.14682579 0.66738319 C-156.82422256 0.67647644 -158.50164174 0.68215326 -160.17906189 0.68421364 C-162.46404176 0.6875239 -164.74862421 0.70296725 -167.03352356 0.7215271 C-168.95407924 0.72982324 -168.95407924 0.72982324 -170.91343403 0.73828697 C-174.16921102 0.76439381 -174.16921102 0.76439381 -177 3 C-177.66 3.33 -178.32 3.66 -179 4 C-178.01 4.33 -177.02 4.66 -176 5 C-176.33 5.66 -176.66 6.32 -177 7 C-177.66 7 -178.32 7 -179 7 C-179.33 7.99 -179.66 8.98 -180 10 C-179.01 9.67 -178.02 9.34 -177 9 C-176.01 9.66 -175.02 10.32 -174 11 C-174 11.66 -174 12.32 -174 13 C-174.99 13 -175.98 13 -177 13 C-177.33 13.66 -177.66 14.32 -178 15 C-180.33333333 15 -182.66666667 15 -185 15 C-123.95 15.33 -62.9 15.66 0 16 C-6 26 -6 26 -10 29 C-11.01801357 29.98165594 -12.0246803 30.97591432 -13 32 C-13.33 31.67 -13.66 31.34 -14 31 C-14.33 31.99 -14.66 32.98 -15 34 C-14.01 33.67 -13.02 33.34 -12 33 C-11.34 33.33 -10.68 33.66 -10 34 C-9.34 32.35 -8.68 30.7 -8 29 C-7.896875 29.639375 -7.79375 30.27875 -7.6875 30.9375 C-7.460625 31.618125 -7.23375 32.29875 -7 33 C-6.01 33.33 -5.02 33.66 -4 34 C-2.09574752 32.34412827 -1.09533282 31.44942615 -0.5625 28.9375 C0 27 0 27 2.0625 25.75 C2.701875 25.5025 3.34125 25.255 4 25 C4 24.01 4 23.02 4 22 C4.66 22 5.32 22 6 22 C6 22.99 6 23.98 6 25 C6.66 25.33 7.32 25.66 8 26 C8.33 26.66 8.66 27.32 9 28 C9.66 28 10.32 28 11 28 C11.33 26.68 11.66 25.36 12 24 C12.66 24 13.32 24 14 24 C14 23.34 14 22.68 14 22 C14.66 22 15.32 22 16 22 C16 21.34 16 20.68 16 20 C16.99 20.33 17.98 20.66 19 21 C18.60167969 21.45890625 18.20335937 21.9178125 17.79296875 22.390625 C14.39984291 26.31674827 14.39984291 26.31674827 11.25 30.4375 C10.8375 30.953125 10.425 31.46875 10 32 C9.34 32 8.68 32 8 32 C8 32.66 8 33.32 8 34 C7.34 34 6.68 34 6 34 C6 34.66 6 35.32 6 36 C4.35546875 37.5859375 4.35546875 37.5859375 2.1875 39.375 C-0.06250857 41.23566282 -1.90350285 42.86872703 -3.63671875 45.2265625 C-4.08660156 45.81179688 -4.53648437 46.39703125 -5 47 C-5.66 47 -6.32 47 -7 47 C-7 47.66 -7 48.32 -7 49 C-8.64453125 50.5859375 -8.64453125 50.5859375 -10.8125 52.375 C-13.06250857 54.23566282 -14.90350285 55.86872703 -16.63671875 58.2265625 C-17.08660156 58.81179688 -17.53648437 59.39703125 -18 60 C-18.66 60 -19.32 60 -20 60 C-20 60.66 -20 61.32 -20 62 C-21.57421875 63.515625 -21.57421875 63.515625 -23.6875 65.25 C-26.24634889 67.41897174 -28.33936811 69.40724173 -30.5 72 C-32.46088816 74.35306579 -34.19625718 76.10911806 -36.5 78.0625 C-41.1343212 81.99545841 -45.35898766 86.3047388 -49.60742188 90.64477539 C-53.79641997 94.89820998 -53.79641997 94.89820998 -56 96 C-57.71233688 95.9129796 -59.42175406 95.75902838 -61.125 95.5625 C-62.03507813 95.46066406 -62.94515625 95.35882813 -63.8828125 95.25390625 C-64.93082031 95.12822266 -64.93082031 95.12822266 -66 95 C-66 94.34 -66 93.68 -66 93 C-66.66 93 -67.32 93 -68 93 C-69.70617557 85.39822764 -69.70617557 85.39822764 -68.0234375 82.06640625 C-66.6875 80.4375 -66.6875 80.4375 -64 78 C-63.34 78 -62.68 78 -62 78 C-62 77.34 -62 76.68 -62 76 C-61.34 76 -60.68 76 -60 76 C-60 75.34 -60 74.68 -60 74 C-59.34 74 -58.68 74 -58 74 C-57.64421875 73.15695312 -57.64421875 73.15695312 -57.28125 72.296875 C-55.71052303 69.48105958 -53.78528536 67.52044584 -51.5 65.25 C-50.7059375 64.45078125 -49.911875 63.6515625 -49.09375 62.828125 C-47 61 -47 61 -45 61 C-44.73807861 60.41210693 -44.47615723 59.82421387 -44.20629883 59.21850586 C-42.93524192 56.88090333 -41.59262044 55.36347396 -39.69921875 53.50390625 C-39.05146484 52.86259766 -38.40371094 52.22128906 -37.73632812 51.56054688 C-37.06021484 50.90119141 -36.38410156 50.24183594 -35.6875 49.5625 C-35.02298828 48.90701172 -34.35847656 48.25152344 -33.67382812 47.57617188 C-32.3787014 46.29897964 -31.08046022 45.02493626 -29.77880859 43.75439453 C-28.20592161 42.20309535 -26.67414679 40.62095054 -25.14453125 39.02734375 C-23 37 -23 37 -21 37 C-21 36.34 -21 35.68 -21 35 C-20.34 35 -19.68 35 -19 35 C-19 34.34 -19 33.68 -19 33 C-18.34 33 -17.68 33 -17 33 C-16.61328125 32.12601562 -16.61328125 32.12601562 -16.21875 31.234375 C-14.90165983 28.8197097 -13.44911616 27.18259823 -11.5 25.25 C-10.8915625 24.63640625 -10.283125 24.0228125 -9.65625 23.390625 C-8 22 -8 22 -6 22 C-6 21.34 -6 20.68 -6 20 C-5.34 20 -4.68 20 -4 20 C-4 19.34 -4 18.68 -4 18 C-5.04252048 17.99853344 -6.08504097 17.99706688 -7.15915298 17.99555588 C-32.50501319 17.95899 -57.85074095 17.89957875 -83.19649124 17.81609726 C-95.45342483 17.77625753 -107.71029376 17.74389013 -119.96728516 17.72900391 C-130.64824946 17.71601295 -141.32907177 17.68911381 -152.00995612 17.64538693 C-157.66744857 17.62271458 -163.32476552 17.60709277 -168.98230743 17.60811615 C-174.30439349 17.60885935 -179.62609074 17.59104561 -184.94807625 17.55883217 C-186.90402263 17.55029447 -188.86001243 17.54860931 -190.81596947 17.55419731 C-193.48187741 17.56080065 -196.14653494 17.54300549 -198.81231689 17.51898193 C-199.59052803 17.52674235 -200.36873917 17.53450277 -201.17053246 17.54249835 C-204.68897764 17.48617325 -206.63687122 17.2754522 -209.47852707 15.11990738 C-211.31716216 12.55808981 -211.53819489 11.13198075 -211.5 8 C-211.5103125 7.154375 -211.520625 6.30875 -211.53125 5.4375 C-210.80046311 2.08447779 -209.73751556 1.07421056 -207 -1 C-204.12352613 -1.40040723 -201.6267347 -1.55589215 -198.74984741 -1.53244019 C-197.49114521 -1.54580876 -197.49114521 -1.54580876 -196.20701468 -1.55944741 C-193.39088284 -1.58446092 -190.57550781 -1.58098011 -187.75927734 -1.57763672 C-185.74224291 -1.58964285 -183.72521811 -1.60337184 -181.70820618 -1.61869812 C-176.2270476 -1.65517624 -170.74608912 -1.6667399 -165.26482344 -1.67336798 C-159.53615883 -1.68392605 -153.80760678 -1.71540872 -148.07901001 -1.74417114 C-138.46023682 -1.78931666 -128.84151315 -1.81902179 -119.22265625 -1.83886719 C-108.08896289 -1.86195621 -96.95550951 -1.90596286 -85.82193601 -1.96193302 C-75.12508946 -2.01551209 -64.42823221 -2.05762445 -53.7313118 -2.09332657 C-49.17230972 -2.10854991 -44.61334085 -2.12722761 -40.05436325 -2.14852524 C-34.69134909 -2.17282452 -29.32840258 -2.18692093 -23.96533775 -2.19298744 C-21.99239448 -2.19678534 -20.01945452 -2.20402194 -18.0465374 -2.21486855 C-15.3630055 -2.22902636 -12.6797474 -2.23089831 -9.9961853 -2.22946167 C-9.20709506 -2.23644982 -8.41800483 -2.24343797 -7.60500276 -2.25063789 C-2.22835705 -2.22835705 -2.22835705 -2.22835705 0 0 Z " fill="#2D465B" transform="translate(336,241)"/>
<path d="M0 0 C2.19648779 1.79939834 4.02446209 3.45201751 5.9375 5.5 C6.43056641 5.99886719 6.92363281 6.49773437 7.43164062 7.01171875 C11 10.70380765 11 10.70380765 11 13 C11.66 13 12.32 13 13 13 C13 13.66 13 14.32 13 15 C13.66 15 14.32 15 15 15 C15 15.66 15 16.32 15 17 C15.556875 17.226875 16.11375 17.45375 16.6875 17.6875 C19.66159588 19.37550036 21.72008865 21.46676517 24 24 C24 24.66 24 25.32 24 26 C24.66 26 25.32 26 26 26 C26 26.66 26 27.32 26 28 C26.66 28 27.32 28 28 28 C28 28.66 28 29.32 28 30 C28.66 30 29.32 30 30 30 C30 30.66 30 31.32 30 32 C30.59194153 32.26727905 31.18388306 32.53455811 31.79376221 32.80993652 C34.0336644 34.01815887 35.50428548 35.25076931 37.29980469 37.04101562 C37.92014587 37.65505249 38.54048706 38.26908936 39.17962646 38.9017334 C39.83706848 39.56322388 40.4945105 40.22471436 41.171875 40.90625 C42.1955014 41.92700623 42.1955014 41.92700623 43.23980713 42.96838379 C44.67779427 44.40501197 46.11326692 45.84416085 47.54638672 47.28564453 C49.74877028 49.49876429 51.96164933 51.70098472 54.17578125 53.90234375 C55.57095454 55.29883803 56.96550762 56.69595227 58.359375 58.09375 C59.35768341 59.08598572 59.35768341 59.08598572 60.37615967 60.0982666 C60.98389221 60.71230347 61.59162476 61.32634033 62.21777344 61.95898438 C63.02574371 62.76934143 63.02574371 62.76934143 63.85003662 63.59606934 C65 65 65 65 65 67 C65.66 67 66.32 67 67 67 C67 67.66 67 68.32 67 69 C67.66 69 68.32 69 69 69 C69 69.66 69 70.32 69 71 C69.66 71 70.32 71 71 71 C71 71.66 71 72.32 71 73 C71.598125 73.2475 72.19625 73.495 72.8125 73.75 C75.28647521 75.16370012 76.43370255 76.65055383 78 79 C76.35 79.33 74.7 79.66 73 80 C73 78.35 73 76.7 73 75 C72.34 75 71.68 75 71 75 C71.33 75.99 71.66 76.98 72 78 C69.37886292 78 67.49064888 77.68707555 65 77 C65 76.34 65 75.68 65 75 C63.35 74.34 61.7 73.68 60 73 C60 73.66 60 74.32 60 75 C57 74 57 74 55 71 C54.505 72.485 54.505 72.485 54 74 C53.34 74 52.68 74 52 74 C52 74.99 52 75.98 52 77 C51.34 77 50.68 77 50 77 C50 76.34 50 75.68 50 75 C49.43796875 74.7628125 48.8759375 74.525625 48.296875 74.28125 C45.48105958 72.71052303 43.52044584 70.78528536 41.25 68.5 C40.45078125 67.7059375 39.6515625 66.911875 38.828125 66.09375 C37 64 37 64 37 62 C36.34 62 35.68 62 35 62 C35 61.34 35 60.68 35 60 C34.43796875 59.7628125 33.8759375 59.525625 33.296875 59.28125 C30.48105958 57.71052303 28.52044584 55.78528536 26.25 53.5 C25.45078125 52.7059375 24.6515625 51.911875 23.828125 51.09375 C22 49 22 49 22 47 C21.43796875 46.7628125 20.8759375 46.525625 20.296875 46.28125 C17.48105958 44.71052303 15.52044584 42.78528536 13.25 40.5 C12.45078125 39.7059375 11.6515625 38.911875 10.828125 38.09375 C9 36 9 36 9 34 C8.43796875 33.7628125 7.8759375 33.525625 7.296875 33.28125 C4.48105958 31.71052303 2.52044584 29.78528536 0.25 27.5 C-0.54921875 26.7059375 -1.3484375 25.911875 -2.171875 25.09375 C-4 23 -4 23 -4 21 C-4.66 21 -5.32 21 -6 21 C-6 20.34 -6 19.68 -6 19 C-6.8353125 18.690625 -6.8353125 18.690625 -7.6875 18.375 C-10.89808956 16.4660008 -13.36370852 14.36427171 -15 11 C-15.12180774 7.8888274 -14.6802021 5.03060344 -14 2 C-13.34 2 -12.68 2 -12 2 C-12 1.34 -12 0.68 -12 0 C-7.39429212 -2.5122043 -4.81290634 -1.82523355 0 0 Z " fill="#29445A" transform="translate(282,162)"/>
<path d="M0 0 C-1.34097606 0.00496522 -1.34097606 0.00496522 -2.70904255 0.01003075 C-24.44105521 0.09117854 -46.17299756 0.18324383 -67.90491199 0.28752708 C-78.41421357 0.33769275 -88.92350718 0.38413517 -99.43286133 0.421875 C-108.5906171 0.45477052 -117.74831184 0.49458814 -126.90600032 0.54279006 C-131.75690405 0.56807936 -136.60776717 0.58985342 -141.45871925 0.60334396 C-146.02149329 0.6161423 -150.5841282 0.63817247 -155.14682579 0.66738319 C-156.82422256 0.67647644 -158.50164174 0.68215326 -160.17906189 0.68421364 C-162.46404176 0.6875239 -164.74862421 0.70296725 -167.03352356 0.7215271 C-168.95407924 0.72982324 -168.95407924 0.72982324 -170.91343403 0.73828697 C-174.16921102 0.76439381 -174.16921102 0.76439381 -177 3 C-177.66 3.33 -178.32 3.66 -179 4 C-178.01 4.33 -177.02 4.66 -176 5 C-176.33 5.66 -176.66 6.32 -177 7 C-177.66 7 -178.32 7 -179 7 C-179.33 7.99 -179.66 8.98 -180 10 C-179.01 9.67 -178.02 9.34 -177 9 C-176.01 9.66 -175.02 10.32 -174 11 C-174 11.66 -174 12.32 -174 13 C-174.99 13 -175.98 13 -177 13 C-177.33 13.66 -177.66 14.32 -178 15 C-180.33333333 15 -182.66666667 15 -185 15 C-123.95 15.33 -62.9 15.66 0 16 C-0.99 17.485 -0.99 17.485 -2 19 C-2.66 18.67 -3.32 18.34 -4 18 C-6.64867194 17.90083416 -9.27125122 17.86276353 -11.92025757 17.86869812 C-13.16202914 17.86552455 -13.16202914 17.86552455 -14.42888701 17.86228687 C-17.21871771 17.85626807 -20.00850342 17.85728835 -22.79833984 17.8581543 C-24.79212013 17.85512407 -26.78589972 17.851603 -28.77967834 17.84762573 C-33.08111015 17.83972626 -37.38253363 17.8345879 -41.68397141 17.83133507 C-48.4818553 17.82543626 -55.27968652 17.80890708 -62.07754517 17.78999329 C-64.40254017 17.78365565 -66.72753522 17.77733003 -69.05253029 17.77101612 C-70.21700982 17.76785031 -71.38148936 17.7646845 -72.58125615 17.76142275 C-88.41321091 17.71930216 -104.24514138 17.6863611 -120.07714844 17.67407227 C-130.74859624 17.66570382 -141.41991403 17.64325818 -152.09129679 17.6047166 C-157.74206305 17.58491457 -163.39263477 17.57256508 -169.04343796 17.57755089 C-174.35732748 17.58218223 -179.67084793 17.56847495 -184.98466301 17.54053879 C-186.93739167 17.53360142 -188.8901583 17.53352763 -190.84288597 17.54073906 C-193.50429262 17.54957665 -196.16446878 17.53401707 -198.82577515 17.51225281 C-199.60262205 17.52069534 -200.37946894 17.52913788 -201.17985666 17.53783625 C-204.6960368 17.48448776 -206.63798952 17.27463569 -209.47768593 15.12032795 C-211.31717085 12.55823425 -211.53820307 11.1326515 -211.5 8 C-211.5103125 7.154375 -211.520625 6.30875 -211.53125 5.4375 C-210.80046311 2.08447779 -209.73751556 1.07421056 -207 -1 C-204.12352613 -1.40040723 -201.6267347 -1.55589215 -198.74984741 -1.53244019 C-197.49114521 -1.54580876 -197.49114521 -1.54580876 -196.20701468 -1.55944741 C-193.39088284 -1.58446092 -190.57550781 -1.58098011 -187.75927734 -1.57763672 C-185.74224291 -1.58964285 -183.72521811 -1.60337184 -181.70820618 -1.61869812 C-176.2270476 -1.65517624 -170.74608912 -1.6667399 -165.26482344 -1.67336798 C-159.53615883 -1.68392605 -153.80760678 -1.71540872 -148.07901001 -1.74417114 C-138.46023682 -1.78931666 -128.84151315 -1.81902179 -119.22265625 -1.83886719 C-108.08896289 -1.86195621 -96.95550951 -1.90596286 -85.82193601 -1.96193302 C-75.12508946 -2.01551209 -64.42823221 -2.05762445 -53.7313118 -2.09332657 C-49.17230972 -2.10854991 -44.61334085 -2.12722761 -40.05436325 -2.14852524 C-34.69134909 -2.17282452 -29.32840258 -2.18692093 -23.96533775 -2.19298744 C-21.99239448 -2.19678534 -20.01945452 -2.20402194 -18.0465374 -2.21486855 C-15.3630055 -2.22902636 -12.6797474 -2.23089831 -9.9961853 -2.22946167 C-9.20709506 -2.23644982 -8.41800483 -2.24343797 -7.60500276 -2.25063789 C-2.22835705 -2.22835705 -2.22835705 -2.22835705 0 0 Z " fill="#5F7485" transform="translate(336,241)"/>
<path d="M0 0 C0 3.19633438 -0.33810135 4.34096216 -2 7 C-3.29735507 8.04625409 -4.63266972 9.04701223 -6 10 C-7.01801357 10.98165594 -8.0246803 11.97591432 -9 13 C-9.33 12.67 -9.66 12.34 -10 12 C-10.33 12.99 -10.66 13.98 -11 15 C-10.01 14.67 -9.02 14.34 -8 14 C-7.34 14.33 -6.68 14.66 -6 15 C-5.34 13.35 -4.68 11.7 -4 10 C-3.8453125 10.9590625 -3.8453125 10.9590625 -3.6875 11.9375 C-3.460625 12.618125 -3.23375 13.29875 -3 14 C-2.01 14.33 -1.02 14.66 0 15 C1.90425248 13.34412827 2.90466718 12.44942615 3.4375 9.9375 C4 8 4 8 6.0625 6.75 C6.701875 6.5025 7.34125 6.255 8 6 C8 5.01 8 4.02 8 3 C8.66 3 9.32 3 10 3 C10 3.99 10 4.98 10 6 C10.66 6.33 11.32 6.66 12 7 C12.495 7.99 12.495 7.99 13 9 C13.66 9 14.32 9 15 9 C15.33 7.68 15.66 6.36 16 5 C16.66 5 17.32 5 18 5 C18 4.34 18 3.68 18 3 C18.66 3 19.32 3 20 3 C20 2.34 20 1.68 20 1 C20.99 1.33 21.98 1.66 23 2 C22.60167969 2.45890625 22.20335937 2.9178125 21.79296875 3.390625 C18.39984291 7.31674827 18.39984291 7.31674827 15.25 11.4375 C14.63125 12.2109375 14.63125 12.2109375 14 13 C13.34 13 12.68 13 12 13 C12 13.66 12 14.32 12 15 C11.34 15 10.68 15 10 15 C10 15.66 10 16.32 10 17 C8.35546875 18.5859375 8.35546875 18.5859375 6.1875 20.375 C3.93749143 22.23566282 2.09649715 23.86872703 0.36328125 26.2265625 C-0.08660156 26.81179688 -0.53648437 27.39703125 -1 28 C-1.66 28 -2.32 28 -3 28 C-3 28.66 -3 29.32 -3 30 C-4.64453125 31.5859375 -4.64453125 31.5859375 -6.8125 33.375 C-9.06250857 35.23566282 -10.90350285 36.86872703 -12.63671875 39.2265625 C-13.31154297 40.10441406 -13.31154297 40.10441406 -14 41 C-14.66 41 -15.32 41 -16 41 C-16 41.66 -16 42.32 -16 43 C-16.66 43 -17.32 43 -18 43 C-17 39 -16 35 -15 31 C-13.35 31.33 -11.7 31.66 -10 32 C-9.08995387 28.92859432 -8.66305174 26.20100846 -9 23 C-9.99 22.34 -10.98 21.68 -12 21 C-12 22.32 -12 23.64 -12 25 C-11.34 25.33 -10.68 25.66 -10 26 C-10 26.99 -10 27.98 -10 29 C-10.99 29 -11.98 29 -13 29 C-13.78375 29.825 -14.5675 30.65 -15.375 31.5 C-18 34 -18 34 -20.8125 34.3125 C-21.534375 34.209375 -22.25625 34.10625 -23 34 C-23 34.66 -23 35.32 -23 36 C-22.34 36.33 -21.68 36.66 -21 37 C-21.66 39.31 -22.32 41.62 -23 44 C-23.99 43.34 -24.98 42.68 -26 42 C-25.505 41.505 -25.505 41.505 -25 41 C-25.165 40.34 -25.33 39.68 -25.5 39 C-25.665 38.34 -25.83 37.68 -26 37 C-25.505 36.505 -25.505 36.505 -25 36 C-26.32 35.34 -27.64 34.68 -29 34 C-29.33 34.99 -29.66 35.98 -30 37 C-29.01 37 -28.02 37 -27 37 C-27.33 38.32 -27.66 39.64 -28 41 C-29.45922693 40.88590407 -30.91740598 40.75834456 -32.375 40.625 C-33.18710937 40.55539062 -33.99921875 40.48578125 -34.8359375 40.4140625 C-37 40 -37 40 -39 38 C-27.76953125 26.76953125 -27.76953125 26.76953125 -25.81103516 24.81884766 C-24.6854607 23.68841766 -23.56875925 22.5489889 -22.46630859 21.39599609 C-21.345807 20.22940703 -20.17770707 19.10881013 -19 18 C-18.34 18 -17.68 18 -17 18 C-17 17.34 -17 16.68 -17 16 C-16.34 16 -15.68 16 -15 16 C-15 15.34 -15 14.68 -15 14 C-14.34 14 -13.68 14 -13 14 C-12.7421875 13.41734375 -12.484375 12.8346875 -12.21875 12.234375 C-10.90165983 9.8197097 -9.44911616 8.18259823 -7.5 6.25 C-6.8915625 5.63640625 -6.283125 5.0228125 -5.65625 4.390625 C-4 3 -4 3 -2 3 C-2 2.34 -2 1.68 -2 1 C-1.34 0.67 -0.68 0.34 0 0 Z " fill="#28445A" transform="translate(332,260)"/>
<path d="M0 0 C5.77363568 4.80490486 11.12543893 9.9422194 16.4375 15.25 C17.26443359 16.0646875 18.09136719 16.879375 18.94335938 17.71875 C19.72388672 18.49734375 20.50441406 19.2759375 21.30859375 20.078125 C22.01814209 20.78356445 22.72769043 21.48900391 23.45874023 22.21582031 C25 24 25 24 25 26 C25.66 26 26.32 26 27 26 C27 26.66 27 27.32 27 28 C27.66 28 28.32 28 29 28 C29 28.66 29 29.32 29 30 C29.66 30 30.32 30 31 30 C31 30.66 31 31.32 31 32 C31.598125 32.2475 32.19625 32.495 32.8125 32.75 C35.28647521 34.16370012 36.43370255 35.65055383 38 38 C35.525 38.495 35.525 38.495 33 39 C33 37.35 33 35.7 33 34 C32.34 34 31.68 34 31 34 C31.33 34.99 31.66 35.98 32 37 C29.37886292 37 27.49064888 36.68707555 25 36 C25 35.34 25 34.68 25 34 C23.35 33.34 21.7 32.68 20 32 C20 32.66 20 33.32 20 34 C17 33 17 33 15 30 C14.505 31.485 14.505 31.485 14 33 C13.34 33 12.68 33 12 33 C12 33.99 12 34.98 12 36 C11.34 36 10.68 36 10 36 C10 35.34 10 34.68 10 34 C9.43796875 33.7628125 8.8759375 33.525625 8.296875 33.28125 C5.48105958 31.71052303 3.52044584 29.78528536 1.25 27.5 C0.45078125 26.7059375 -0.3484375 25.911875 -1.171875 25.09375 C-3 23 -3 23 -3 21 C-3.66 21 -4.32 21 -5 21 C-5 20.34 -5 19.68 -5 19 C-5.56203125 18.7628125 -6.1240625 18.525625 -6.703125 18.28125 C-9.51894042 16.71052303 -11.47955416 14.78528536 -13.75 12.5 C-14.54921875 11.7059375 -15.3484375 10.911875 -16.171875 10.09375 C-18 8 -18 8 -18 6 C-18.99 5.67 -19.98 5.34 -21 5 C-20.34 4.67 -19.68 4.34 -19 4 C-16.875 4.9375 -16.875 4.9375 -15 6 C-15 5.34 -15 4.68 -15 4 C-14.34 4 -13.68 4 -13 4 C-11.92474806 6.65228812 -10.90543849 9.28368454 -10 12 C-9.01 12.33 -8.02 12.66 -7 13 C-4 17.33333333 -4 17.33333333 -4 20 C-3.21625 19.175 -2.4325 18.35 -1.625 17.5 C1 15 1 15 3 15 C3 15.66 3 16.32 3 17 C4.32 16.34 5.64 15.68 7 15 C5.68 14.34 4.36 13.68 3 13 C3.33 12.01 3.66 11.02 4 10 C3.34 9.67 2.68 9.34 2 9 C1.6278958 7.67696283 1.29369827 6.34262065 1 5 C0.67 4.67 0.34 4.34 0 4 C-0.66 4 -1.32 4 -2 4 C-2 3.34 -2 2.68 -2 2 C-1.34 2 -0.68 2 0 2 C0 1.34 0 0.68 0 0 Z " fill="#274257" transform="translate(322,203)"/>
<path d="M0 0 C1.25619141 0.06123047 2.51238281 0.12246094 3.80664062 0.18554688 C6.89299817 0.33810447 9.97774042 0.50585643 13.0625 0.6875 C13.0625 2.0075 13.0625 3.3275 13.0625 4.6875 C12.4025 4.6875 11.7425 4.6875 11.0625 4.6875 C10.4025 7.6575 9.7425 10.6275 9.0625 13.6875 C5.63676063 14.46278479 2.49010755 14.80668778 -1.01953125 14.78515625 C-1.95087891 14.78193359 -2.88222656 14.77871094 -3.84179688 14.77539062 C-4.80150391 14.76701172 -5.76121094 14.75863281 -6.75 14.75 C-8.21856445 14.74323242 -8.21856445 14.74323242 -9.71679688 14.73632812 C-12.12376111 14.72458684 -14.53059857 14.70816419 -16.9375 14.6875 C-17.2675 14.0275 -17.5975 13.3675 -17.9375 12.6875 C-18.9275 12.6875 -19.9175 12.6875 -20.9375 12.6875 C-21.86050522 10.10308539 -22.13282222 9.10255971 -20.9375 6.5625 C-20.6075 5.94375 -20.2775 5.325 -19.9375 4.6875 C-20.2675 4.0275 -20.5975 3.3675 -20.9375 2.6875 C-14.13445354 -1.2447215 -7.65465543 -0.45357948 0 0 Z " fill="#274358" transform="translate(278.9375,241.3125)"/>
<path d="M0 0 C9.12 -0.152 9.12 -0.152 12 1 C12.33 1.66 12.66 2.32 13 3 C14.32 3 15.64 3 17 3 C17.33 3.99 17.66 4.98 18 6 C19.32 6 20.64 6 22 6 C22 6.66 22 7.32 22 8 C21.67 8.33 21.34 8.66 21 9 C22.32 9.33 23.64 9.66 25 10 C25 10.99 25 11.98 25 13 C25.73741634 16.62280804 25.73741634 16.62280804 27 20 C27.99 20.33 28.98 20.66 30 21 C29.67 21.99 29.34 22.98 29 24 C27.68 23.67 26.36 23.34 25 23 C25 22.34 25 21.68 25 21 C24.34 21 23.68 21 23 21 C22.731875 21.639375 22.46375 22.27875 22.1875 22.9375 C21 25 21 25 18 26 C15 21.25 15 21.25 15 19 C14.38125 18.95875 13.7625 18.9175 13.125 18.875 C11 18 11 18 9.75 15.0625 C9 12 9 12 9 10 C8.34 10 7.68 10 7 10 C7 10.66 7 11.32 7 12 C4.125 11.3125 4.125 11.3125 1 10 C-0.64530416 7.08332445 -1 5.35279018 -1 2 C-0.67 1.34 -0.34 0.68 0 0 Z " fill="#274358" transform="translate(300,197)"/>
<path d="M0 0 C2.5 1 2.5 1 5 3 C5.60776378 5.88540279 5.33353944 7.99814504 5 11 C4.34 11.66 3.68 12.32 3 13 C0.875 12.625 0.875 12.625 -1 12 C-1.28875 13.2375 -1.5775 14.475 -1.875 15.75 C-3.23466942 21.57715464 -5.50370582 24.74498513 -9.8125 28.9375 C-10.66457031 29.77152344 -11.51664062 30.60554688 -12.39453125 31.46484375 C-13.25433594 32.30144531 -14.11414063 33.13804687 -15 34 C-15.85335938 34.92296875 -16.70671875 35.8459375 -17.5859375 36.796875 C-20 39 -20 39 -23.8125 39.3125 C-25.3903125 39.1578125 -25.3903125 39.1578125 -27 39 C-27 38.01 -27 37.02 -27 36 C-26.34 36 -25.68 36 -25 36 C-25.495 34.515 -25.495 34.515 -26 33 C-24.68 32.34 -23.36 31.68 -22 31 C-22 30.67 -22 30.34 -22 30 C-22.99 29.67 -23.98 29.34 -25 29 C-24.34 29 -23.68 29 -23 29 C-23 28.34 -23 27.68 -23 27 C-23.66 26.67 -24.32 26.34 -25 26 C-26.1875 23.5625 -26.1875 23.5625 -27 21 C-26.67 20.34 -26.34 19.68 -26 19 C-25.30132812 19.08378906 -24.60265625 19.16757812 -23.8828125 19.25390625 C-22.97273438 19.35574219 -22.06265625 19.45757812 -21.125 19.5625 C-20.22007812 19.66691406 -19.31515625 19.77132813 -18.3828125 19.87890625 C-15.98346943 20.19674852 -15.98346943 20.19674852 -14 19 C-14 18.34 -14 17.68 -14 17 C-14.99 17 -15.98 17 -17 17 C-16.67 15.68 -16.34 14.36 -16 13 C-15.34 13 -14.68 13 -14 13 C-14 13.66 -14 14.32 -14 15 C-13.01 15.33 -12.02 15.66 -11 16 C-11.66 16.33 -12.32 16.66 -13 17 C-12.34 17.33 -11.68 17.66 -11 18 C-11 19.65 -11 21.3 -11 23 C-9.18698242 18.56906802 -9.18698242 18.56906802 -10 14 C-8.9171875 13.938125 -8.9171875 13.938125 -7.8125 13.875 C-3.76725183 12.61647835 -2.50518743 10.36410883 0 7 C0.33 7.66 0.66 8.32 1 9 C1 5.72724974 0.70074844 3.153368 0 0 Z " fill="#264257" transform="translate(319,280)"/>
<path d="M0 0 C1.65 1.32 3.3 2.64 5 4 C4.67 5.32 4.34 6.64 4 8 C6.63904371 9.41377341 9.07120629 10.37240135 12 11 C12.6875 12.8125 12.6875 12.8125 13 15 C11.5625 16.75 11.5625 16.75 10 18 C10.99 18.33 11.98 18.66 13 19 C12.34 19 11.68 19 11 19 C11 19.66 11 20.32 11 21 C11.66 21.33 12.32 21.66 13 22 C12.34 22 11.68 22 11 22 C11 24.62113708 11.31292445 26.50935112 12 29 C11.34 29 10.68 29 10 29 C9.67 29.66 9.34 30.32 9 31 C8.505 28.525 8.505 28.525 8 26 C7.67 26.66 7.34 27.32 7 28 C2.51367848 26.57731065 -0.03803663 24.33752711 -3.3125 21 C-4.19550781 20.113125 -5.07851563 19.22625 -5.98828125 18.3125 C-8 16 -8 16 -8 14 C-8.66 14 -9.32 14 -10 14 C-9.9375 11.75 -9.9375 11.75 -9 9 C-6.75134851 7.13864838 -4.72017052 6.21938678 -2 5 C-1.01 5.33 -0.02 5.66 1 6 C0.34 4.35 -0.32 2.7 -1 1 C-0.67 0.67 -0.34 0.34 0 0 Z " fill="#274257" transform="translate(286,169)"/>
<path d="M0 0 C0.66 0 1.32 0 2 0 C2 1.65 2 3.3 2 5 C3.98 4.67 5.96 4.34 8 4 C10.69001628 6.57793226 11.30533765 8.76766331 11.5 12.375 C11.39641583 15.85657921 10.81025182 17.84063309 8.625 20.5625 C6 23 6 23 4 23 C4 23.66 4 24.32 4 25 C3.34 24.67 2.68 24.34 2 24 C2.33 23.01 2.66 22.02 3 21 C3.66 21 4.32 21 5 21 C5 20.34 5 19.68 5 19 C5.66 19 6.32 19 7 19 C6.67 18.01 6.34 17.02 6 16 C4.67203709 15.64587656 3.33783393 15.31478446 2 15 C0.25 13.4375 0.25 13.4375 -1 12 C-2.32 13.32 -3.64 14.64 -5 16 C-5 14.68 -5 13.36 -5 12 C-7.76276177 12.52268466 -10.3260876 13.10869587 -13 14 C-13 13.34 -13 12.68 -13 12 C-13.99 12 -14.98 12 -16 12 C-16 11.34 -16 10.68 -16 10 C-15.34 10 -14.68 10 -14 10 C-14.32960216 4.98464948 -14.32960216 4.98464948 -17 1 C-15.68 1 -14.36 1 -13 1 C-12.67 1.66 -12.34 2.32 -12 3 C-11.01 3.33 -10.02 3.66 -9 4 C-8.34 3.01 -7.68 2.02 -7 1 C-6.030625 1.165 -5.06125 1.33 -4.0625 1.5 C-2.04016429 1.85992293 -2.04016429 1.85992293 0 2 C0 1.34 0 0.68 0 0 Z " fill="#274358" transform="translate(353,237)"/>
<path d="M0 0 C5.06623768 4.23816537 9.80038069 8.67408963 14.4375 13.375 C15.07365234 14.01566406 15.70980469 14.65632812 16.36523438 15.31640625 C17.91250332 16.87530879 19.45736492 18.43651416 21 20 C20.34 20.66 19.68 21.32 19 22 C18.46375 21.319375 17.9275 20.63875 17.375 19.9375 C15.08837848 17.61740673 15.08837848 17.61740673 11.75 18.25 C10.8425 18.4975 9.935 18.745 9 19 C9 19.99 9 20.98 9 22 C8.01 22 7.02 22 6 22 C5.67 22.66 5.34 23.32 5 24 C4.34 23.34 3.68 22.68 3 22 C2.01 23.32 1.02 24.64 0 26 C-1.5 24.625 -1.5 24.625 -3 23 C-3 22.34 -3 21.68 -3 21 C-3.66 21 -4.32 21 -5 21 C-5 20.34 -5 19.68 -5 19 C-5.56203125 18.7628125 -6.1240625 18.525625 -6.703125 18.28125 C-9.51894042 16.71052303 -11.47955416 14.78528536 -13.75 12.5 C-14.54921875 11.7059375 -15.3484375 10.911875 -16.171875 10.09375 C-18 8 -18 8 -18 6 C-18.99 5.67 -19.98 5.34 -21 5 C-20.34 4.67 -19.68 4.34 -19 4 C-16.875 4.9375 -16.875 4.9375 -15 6 C-15 5.34 -15 4.68 -15 4 C-14.34 4 -13.68 4 -13 4 C-11.92474806 6.65228812 -10.90543849 9.28368454 -10 12 C-9.01 12.33 -8.02 12.66 -7 13 C-4 17.33333333 -4 17.33333333 -4 20 C-3.21625 19.175 -2.4325 18.35 -1.625 17.5 C1 15 1 15 3 15 C3 15.66 3 16.32 3 17 C4.32 16.34 5.64 15.68 7 15 C5.68 14.34 4.36 13.68 3 13 C3.33 12.01 3.66 11.02 4 10 C3.34 9.67 2.68 9.34 2 9 C1.6278958 7.67696283 1.29369827 6.34262065 1 5 C0.67 4.67 0.34 4.34 0 4 C-0.66 4 -1.32 4 -2 4 C-2 3.34 -2 2.68 -2 2 C-1.34 2 -0.68 2 0 2 C0 1.34 0 0.68 0 0 Z " fill="#314B5F" transform="translate(322,203)"/>
<path d="M0 0 C21.45 0 42.9 0 65 0 C61.3558226 2.4294516 59.28758728 2.16179575 55 2 C54.67 2.99 54.34 3.98 54 5 C53.34 4.67 52.68 4.34 52 4 C52.33 3.01 52.66 2.02 53 1 C51.02 1.99 49.04 2.98 47 4 C47 3.01 47 2.02 47 1 C42.10437307 2.87702327 42.10437307 2.87702327 38 6 C37.34 6 36.68 6 36 6 C35.01 8.31 34.02 10.62 33 13 C32.505 12.01 32.505 12.01 32 11 C28.97065509 10.34227572 28.97065509 10.34227572 26 10 C26.375 8.0625 26.375 8.0625 27 6 C27.66 5.67 28.32 5.34 29 5 C27.68 4.67 26.36 4.34 25 4 C26.32 3.34 27.64 2.68 29 2 C19.43 1.67 9.86 1.34 0 1 C0 0.67 0 0.34 0 0 Z M20 12 C20.66 12.33 21.32 12.66 22 13 C22 13.66 22 14.32 22 15 C23.98 15 25.96 15 28 15 C28.33 14.01 28.66 13.02 29 12 C29.6997998 12.32742187 30.39959961 12.65484375 31.12060547 12.9921875 C34.32142038 14.11249986 36.68924964 14.20014633 40.0703125 14.125 C41.21371094 14.10953125 42.35710937 14.0940625 43.53515625 14.078125 C44.71980469 14.05234375 45.90445313 14.0265625 47.125 14 C49.48158835 13.94904674 51.83839003 13.90695827 54.1953125 13.875 C55.75789795 13.84019531 55.75789795 13.84019531 57.35205078 13.8046875 C60 14 60 14 63 16 C42.21 16 21.42 16 0 16 C4.37296734 13.81351633 7.5208216 13.76637929 12.25 13.875 C12.99507812 13.88402344 13.74015625 13.89304688 14.5078125 13.90234375 C16.33868059 13.92581642 18.16938238 13.96168475 20 14 C20 13.34 20 12.68 20 12 Z " fill="#223B4F" transform="translate(130,241)"/>
<path d="M0 0 C2 1.375 2 1.375 4 3 C4 3.66 4 4.32 4 5 C4.66 5 5.32 5 6 5 C6 5.66 6 6.32 6 7 C6.66 7 7.32 7 8 7 C8 7.66 8 8.32 8 9 C8.66 9 9.32 9 10 9 C10 9.66 10 10.32 10 11 C10.598125 11.2475 11.19625 11.495 11.8125 11.75 C14.28647521 13.16370012 15.43370255 14.65055383 17 17 C15.35 17.33 13.7 17.66 12 18 C12 16.35 12 14.7 12 13 C11.34 13 10.68 13 10 13 C10.33 13.99 10.66 14.98 11 16 C8.37886292 16 6.49064888 15.68707555 4 15 C4 14.34 4 13.68 4 13 C1.525 12.01 1.525 12.01 -1 11 C-1 11.66 -1 12.32 -1 13 C-4.06261493 11.97912836 -5.05779403 11.47189851 -7 9 C-7.6875 6.3125 -7.6875 6.3125 -8 4 C-5.525 4.495 -5.525 4.495 -3 5 C-2.67 4.01 -2.34 3.02 -2 2 C-1.34 2 -0.68 2 0 2 C0 1.34 0 0.68 0 0 Z " fill="#29465C" transform="translate(343,224)"/>
<path d="M0 0 C0.0825 0.598125 0.165 1.19625 0.25 1.8125 C1.20605079 4.60098147 2.67975694 5.27852934 5 7 C5 7.99 5 8.98 5 10 C5.66 9.67 6.32 9.34 7 9 C6.67 10.32 6.34 11.64 6 13 C4.68 13.33 3.36 13.66 2 14 C2 14.99 2 15.98 2 17 C1.34 17 0.68 17 0 17 C0 17.99 0 18.98 0 20 C0.928125 19.690625 0.928125 19.690625 1.875 19.375 C2.57625 19.25125 3.2775 19.1275 4 19 C4.66 19.66 5.32 20.32 6 21 C3.69 22.98 1.38 24.96 -1 27 C-2 23 -2 23 -2 21 C-2.66 21 -3.32 21 -4 21 C-3.505 16.545 -3.505 16.545 -3 12 C-2.01 12 -1.02 12 0 12 C-1.04874998 9.37812506 -1.64931313 8.20628639 -4.125 6.75 C-4.74375 6.5025 -5.3625 6.255 -6 6 C-4.625 4.5 -4.625 4.5 -3 3 C-2.34 3 -1.68 3 -1 3 C-0.67 2.01 -0.34 1.02 0 0 Z " fill="#3D5467" transform="translate(292,299)"/>
<path d="M0 0 C2.5 1 2.5 1 5 3 C5.60776378 5.88540279 5.33353944 7.99814504 5 11 C4.34 11.66 3.68 12.32 3 13 C0.875 12.625 0.875 12.625 -1 12 C-1.268125 13.258125 -1.53625 14.51625 -1.8125 15.8125 C-2.59532537 18.99448801 -3.25335928 21.00244311 -6 23 C-6.33 22.67 -6.66 22.34 -7 22 C-7.33 22.66 -7.66 23.32 -8 24 C-8.66 24 -9.32 24 -10 24 C-9.814375 22.906875 -9.62875 21.81375 -9.4375 20.6875 C-8.7421932 17.06375867 -8.7421932 17.06375867 -10 14 C-8.9171875 13.938125 -8.9171875 13.938125 -7.8125 13.875 C-3.76725183 12.61647835 -2.50518743 10.36410883 0 7 C0.33 7.66 0.66 8.32 1 9 C1 5.72724974 0.70074844 3.153368 0 0 Z " fill="#254158" transform="translate(319,280)"/>
<path d="M0 0 C0.99 0 1.98 0 3 0 C3.6875 1.8125 3.6875 1.8125 4 4 C2.5625 5.75 2.5625 5.75 1 7 C1.99 7.33 2.98 7.66 4 8 C3.34 8 2.68 8 2 8 C2 8.66 2 9.32 2 10 C2.66 10.33 3.32 10.66 4 11 C3.34 11 2.68 11 2 11 C2 13.62113708 2.31292445 15.50935112 3 18 C2.34 18 1.68 18 1 18 C0.67 18.66 0.34 19.32 0 20 C-0.33 18.35 -0.66 16.7 -1 15 C-1.33 15.66 -1.66 16.32 -2 17 C-2.99 16.67 -3.98 16.34 -5 16 C-5.33 13.03 -5.66 10.06 -6 7 C-4.68 7 -3.36 7 -2 7 C-1.855625 6.21625 -1.71125 5.4325 -1.5625 4.625 C-1 2 -1 2 0 0 Z " fill="#254155" transform="translate(295,180)"/>
<path d="M0 0 C2.4037855 1.72772083 3.80983592 3.11312858 4.44140625 6.05859375 C4.66435529 10.32339313 4.33773131 13.17359827 1.625 16.5625 C-1 19 -1 19 -3 19 C-3 19.66 -3 20.32 -3 21 C-3.66 20.67 -4.32 20.34 -5 20 C-4.67 19.01 -4.34 18.02 -4 17 C-3.34 17 -2.68 17 -2 17 C-2 16.34 -2 15.68 -2 15 C-1.34 15 -0.68 15 0 15 C-0.33 14.01 -0.66 13.02 -1 12 C-1.639375 11.855625 -2.27875 11.71125 -2.9375 11.5625 C-5 11 -5 11 -6.25 8.9375 C-6.4975 8.298125 -6.745 7.65875 -7 7 C-2.25 4 -2.25 4 0 4 C0 2.68 0 1.36 0 0 Z " fill="#2A445C" transform="translate(360,241)"/>
<path d="M0 0 C1.65 0 3.3 0 5 0 C5.66 1.98 6.32 3.96 7 6 C6.01 6.33 5.02 6.66 4 7 C2.77030122 10.51190809 2.77030122 10.51190809 2 14 C2.66 14 3.32 14 4 14 C4 14.99 4 15.98 4 17 C2.35 16.67 0.7 16.34 -1 16 C-1.433125 16.825 -1.86625 17.65 -2.3125 18.5 C-3.1478125 19.7375 -3.1478125 19.7375 -4 21 C-4.99 21 -5.98 21 -7 21 C-6.979375 20.21625 -6.95875 19.4325 -6.9375 18.625 C-6.81315937 16.01885039 -6.81315937 16.01885039 -8 14 C-7.030625 13.71125 -6.06125 13.4225 -5.0625 13.125 C-1.89335797 12.35785318 -1.89335797 12.35785318 -1 10 C-0.01 10 0.98 10 2 10 C1.855625 9.36191406 1.71125 8.72382813 1.5625 8.06640625 C1.376875 7.24011719 1.19125 6.41382813 1 5.5625 C0.814375 4.73878906 0.62875 3.91507812 0.4375 3.06640625 C0 1 0 1 0 0 Z " fill="#264157" transform="translate(286,306)"/>
<path d="M0 0 C0.99 0.33 1.98 0.66 3 1 C2.60167969 1.45890625 2.20335937 1.9178125 1.79296875 2.390625 C-1.60015709 6.31674827 -1.60015709 6.31674827 -4.75 10.4375 C-5.1625 10.953125 -5.575 11.46875 -6 12 C-6.66 12 -7.32 12 -8 12 C-8 12.66 -8 13.32 -8 14 C-8.66 14 -9.32 14 -10 14 C-10 14.66 -10 15.32 -10 16 C-11.64453125 17.65625 -11.64453125 17.65625 -13.8125 19.5 C-14.52019531 20.1084375 -15.22789062 20.716875 -15.95703125 21.34375 C-18 23 -18 23 -21 25 C-21.66 24.67 -22.32 24.34 -23 24 C-22 21 -22 21 -19.875 19.875 C-16.21969575 17.49110592 -14.29273609 14.53045024 -11.84375 10.9609375 C-9.62323468 8.59928774 -8.17182875 8.31501039 -5 8 C-4.67 6.68 -4.34 5.36 -4 4 C-3.34 4 -2.68 4 -2 4 C-2 3.34 -2 2.68 -2 2 C-1.34 2 -0.68 2 0 2 C0 1.34 0 0.68 0 0 Z " fill="#485866" transform="translate(352,261)"/>
<path d="M0 0 C-0.99 0.33 -1.98 0.66 -3 1 C-2.67 2.32 -2.34 3.64 -2 5 C-2.99 5 -3.98 5 -5 5 C-5.33 5.66 -5.66 6.32 -6 7 C-6.99 7 -7.98 7 -9 7 C-8.67 9.64 -8.34 12.28 -8 15 C-8.99 15 -9.98 15 -11 15 C-13.23551759 11.64672361 -13.17283528 11.09256343 -12.625 7.3125 C-12.51414062 6.50425781 -12.40328125 5.69601563 -12.2890625 4.86328125 C-12.19367188 4.24839844 -12.09828125 3.63351563 -12 3 C-11.34 3 -10.68 3 -10 3 C-10 2.34 -10 1.68 -10 1 C-6.21812119 -0.83691257 -4.05431692 -1.15837626 0 0 Z " fill="#4B5E6E" transform="translate(280,161)"/>
<path d="M0 0 C2.31 0 4.62 0 7 0 C7.33 0.66 7.66 1.32 8 2 C7.34 2 6.68 2 6 2 C6.33 3.65 6.66 5.3 7 7 C6.34 7.45375 5.68 7.9075 5 8.375 C4.34 8.91125 3.68 9.4475 3 10 C3 10.66 3 11.32 3 12 C3.99 12.66 4.98 13.32 6 14 C4.1875 14.6875 4.1875 14.6875 2 15 C0.37890625 13.8359375 0.37890625 13.8359375 -1 12 C-1.328125 9.58984375 -1.328125 9.58984375 -1.25 6.9375 C-1.23453125 6.05964844 -1.2190625 5.18179688 -1.203125 4.27734375 C-1 2 -1 2 0 0 Z " fill="#394F61" transform="translate(126,242)"/>
<path d="M0 0 C0.99 0 1.98 0 3 0 C3.66 0.99 4.32 1.98 5 3 C5.66 3.66 6.32 4.32 7 5 C6.34 6.98 5.68 8.96 5 11 C2.2160817 9.60804085 2.02101003 7.84424221 1 5 C0.01 5.495 0.01 5.495 -1 6 C-0.67 7.98 -0.34 9.96 0 12 C-0.33 11.34 -0.66 10.68 -1 10 C-2.485 12.475 -2.485 12.475 -4 15 C-4.66 14.67 -5.32 14.34 -6 14 C-6.95067299 10.71585695 -7.10102197 9.30306592 -6 6 C-5.01 6 -4.02 6 -3 6 C-2.67 5.01 -2.34 4.02 -2 3 C-1.34 2.67 -0.68 2.34 0 2 C0 1.34 0 0.68 0 0 Z " fill="#264056" transform="translate(277,162)"/>
<path d="M0 0 C1.32 0 2.64 0 4 0 C4 0.66 4 1.32 4 2 C3.34 2 2.68 2 2 2 C2 2.66 2 3.32 2 4 C0.35546875 5.5859375 0.35546875 5.5859375 -1.8125 7.375 C-4.06250857 9.23566282 -5.90350285 10.86872703 -7.63671875 13.2265625 C-8.08660156 13.81179688 -8.53648437 14.39703125 -9 15 C-9.66 15 -10.32 15 -11 15 C-11 15.66 -11 16.32 -11 17 C-11.66 17 -12.32 17 -13 17 C-12 13 -11 9 -10 5 C-8.35 5.33 -6.7 5.66 -5 6 C-4.54625 5.34 -4.0925 4.68 -3.625 4 C-3.08875 3.34 -2.5525 2.68 -2 2 C-1.34 2 -0.68 2 0 2 C0 1.34 0 0.68 0 0 Z " fill="#415463" transform="translate(327,286)"/>
<path d="M0 0 C0.66 1.32 1.32 2.64 2 4 C1.34 3.67 0.68 3.34 0 3 C0 2.01 0 1.02 0 0 Z M-6 1 C-4.68 1 -3.36 1 -2 1 C-1.67 1.99 -1.34 2.98 -1 4 C1.64 4 4.28 4 7 4 C6.773125 5.0725 6.54625 6.145 6.3125 7.25 C5.64224175 10.92978576 5.64224175 10.92978576 7.4375 13.4375 C7.953125 13.953125 8.46875 14.46875 9 15 C6 15 6 15 3.51953125 12.8828125 C2.62621094 11.97273437 1.73289062 11.06265625 0.8125 10.125 C-0.08855469 9.22007812 -0.98960937 8.31515625 -1.91796875 7.3828125 C-4 5 -4 5 -4 3 C-4.66 3 -5.32 3 -6 3 C-6 2.34 -6 1.68 -6 1 Z " fill="#33495C" transform="translate(282,180)"/>
<path d="M0 0 C0.66 0.66 1.32 1.32 2 2 C1.33333333 4 0.66666667 6 0 8 C0.99 8 1.98 8 3 8 C2.67 9.32 2.34 10.64 2 12 C0.54077307 11.88590407 -0.91740598 11.75834456 -2.375 11.625 C-3.18710937 11.55539062 -3.99921875 11.48578125 -4.8359375 11.4140625 C-7 11 -7 11 -9 9 C-6.03 6.03 -3.06 3.06 0 0 Z " fill="#42576A" transform="translate(302,289)"/>
<path d="M0 0 C0.66 0 1.32 0 2 0 C2 0.66 2 1.32 2 2 C2.66 2 3.32 2 4 2 C4 2.66 4 3.32 4 4 C4.59296875 4.25523437 5.1859375 4.51046875 5.796875 4.7734375 C8.21224538 6.11816498 9.51211706 7.49214367 11.25 9.625 C11.77078125 10.25664062 12.2915625 10.88828125 12.828125 11.5390625 C13.40820312 12.26222656 13.40820312 12.26222656 14 13 C12.35 13.33 10.7 13.66 9 14 C8.67 13.01 8.34 12.02 8 11 C5.98491642 10.26676204 5.98491642 10.26676204 4 10 C4 9.34 4 8.68 4 8 C3.01 8 2.02 8 1 8 C0.67 5.36 0.34 2.72 0 0 Z " fill="#3B4E60" transform="translate(308,190)"/>
<path d="M0 0 C1.98 0.66 3.96 1.32 6 2 C6 1.34 6 0.68 6 0 C6.66 0 7.32 0 8 0 C9.07525194 2.65228812 10.09456151 5.28368454 11 8 C11.99 8.33 12.98 8.66 14 9 C15.16796875 10.84765625 15.16796875 10.84765625 16.1875 13.0625 C16.53167969 13.79597656 16.87585938 14.52945313 17.23046875 15.28515625 C17.48441406 15.85105469 17.73835938 16.41695312 18 17 C17.34 17 16.68 17 16 17 C16 16.34 16 15.68 16 15 C15.43796875 14.7628125 14.8759375 14.525625 14.296875 14.28125 C11.48105958 12.71052303 9.52044584 10.78528536 7.25 8.5 C6.45078125 7.7059375 5.6515625 6.911875 4.828125 6.09375 C3 4 3 4 3 2 C2.01 1.67 1.02 1.34 0 1 C0 0.67 0 0.34 0 0 Z " fill="#606F7D" transform="translate(301,207)"/>
<path d="M0 0 C0.66 0.99 1.32 1.98 2 3 C-1.33333333 6.33333333 -4.66666667 9.66666667 -8 13 C-9.37091797 14.40185547 -9.37091797 14.40185547 -10.76953125 15.83203125 C-13 18 -13 18 -14 18 C-14 16.35 -14 14.7 -14 13 C-13.01 13 -12.02 13 -11 13 C-10.67 11.68 -10.34 10.36 -10 9 C-9.01 9 -8.02 9 -7 9 C-7 8.01 -7 7.02 -7 6 C-6.34 6 -5.68 6 -5 6 C-4.34 5.01 -3.68 4.02 -3 3 C-2.34 3 -1.68 3 -1 3 C-0.67 2.01 -0.34 1.02 0 0 Z " fill="#576773" transform="translate(312,301)"/>
<path d="M0 0 C0 3.19633438 -0.33810135 4.34096216 -2 7 C-3.29735507 8.04625409 -4.63266972 9.04701223 -6 10 C-7.01801357 10.98165594 -8.0246803 11.97591432 -9 13 C-9.33 12.67 -9.66 12.34 -10 12 C-10.4125 12.804375 -10.825 13.60875 -11.25 14.4375 C-13 17 -13 17 -15.1875 17.8125 C-15.785625 17.874375 -16.38375 17.93625 -17 18 C-17 17.34 -17 16.68 -17 16 C-16.34 16 -15.68 16 -15 16 C-15 15.34 -15 14.68 -15 14 C-14.34 14 -13.68 14 -13 14 C-12.7421875 13.41734375 -12.484375 12.8346875 -12.21875 12.234375 C-10.90165983 9.8197097 -9.44911616 8.18259823 -7.5 6.25 C-6.8915625 5.63640625 -6.283125 5.0228125 -5.65625 4.390625 C-4 3 -4 3 -2 3 C-2 2.34 -2 1.68 -2 1 C-1.34 0.67 -0.68 0.34 0 0 Z " fill="#576573" transform="translate(332,260)"/>
<path d="M0 0 C0 0.66 0 1.32 0 2 C-0.99 2.495 -0.99 2.495 -2 3 C-2.54386797 5.05352387 -2.54386797 5.05352387 -2.75 7.4375 C-2.84796875 8.24058594 -2.9459375 9.04367187 -3.046875 9.87109375 C-3.24057778 12.22033547 -3.24057778 12.22033547 -1 14 C-1 14.99 -1 15.98 -1 17 C-1.99 17 -2.98 17 -4 17 C-4 16.34 -4 15.68 -4 15 C-4.66 15 -5.32 15 -6 15 C-7.70617557 7.39822764 -7.70617557 7.39822764 -6.0234375 4.06640625 C-2.68839928 0 -2.68839928 0 0 0 Z " fill="#5E6B79" transform="translate(274,319)"/>
<path d="M0 0 C0.99 0.33 1.98 0.66 3 1 C3 2.98 3 4.96 3 7 C-0.65456815 7.75241109 -4.31733897 8.40049704 -8 9 C-3.64309032 1.99782372 -3.64309032 1.99782372 0 0 Z " fill="#3D5466" transform="translate(313,278)"/>
<path d="M0 0 C9.73004484 -0.92017937 9.73004484 -0.92017937 12.84375 1.3359375 C14.1875 3 14.1875 3 16 6 C14.35 6.33 12.7 6.66 11 7 C11 5.35 11 3.7 11 2 C10.34 2 9.68 2 9 2 C9.33 2.99 9.66 3.98 10 5 C7.37886292 5 5.49064888 4.68707555 3 4 C3 3.34 3 2.68 3 2 C2.01 1.67 1.02 1.34 0 1 C0 0.67 0 0.34 0 0 Z " fill="#2D475D" transform="translate(344,235)"/>
<path d="M0 0 C2.04119788 1.61594832 4.04072937 3.2856382 6 5 C6 5.66 6 6.32 6 7 C6.66 7 7.32 7 8 7 C8 7.66 8 8.32 8 9 C8.66 9 9.32 9 10 9 C10 9.66 10 10.32 10 11 C11.32 11.66 12.64 12.32 14 13 C13.34 13.66 12.68 14.32 12 15 C11.67 14.01 11.34 13.02 11 12 C10.236875 11.87625 9.47375 11.7525 8.6875 11.625 C6 11 6 11 3 9 C2.60828247 7.34608154 2.27942455 5.67654729 2 4 C1.00916033 1.76591887 1.00916033 1.76591887 0 0 Z " fill="#6C7B88" transform="translate(287,168)"/>
<path d="M0 0 C5.17930997 1.24303439 8.70166639 2.85487785 13 6 C12.01 6.495 12.01 6.495 11 7 C11 7.99 11 8.98 11 10 C10.34 10 9.68 10 9 10 C9 9.34 9 8.68 9 8 C8.443125 7.79375 7.88625 7.5875 7.3125 7.375 C4.07498698 5.44999226 2.31768859 2.96149098 0 0 Z " fill="#5B6B77" transform="translate(323,229)"/>
<path d="M0 0 C2.71435596 0.93305986 3.78043163 1.62673377 5.25 4.125 C5.4975 4.74375 5.745 5.3625 6 6 C6.66 6 7.32 6 8 6 C7.67 6.66 7.34 7.32 7 8 C6.38125 7.505 5.7625 7.01 5.125 6.5 C3.16119096 4.80777227 3.16119096 4.80777227 1 5 C0.01 6.485 0.01 6.485 -1 8 C-1.66 8 -2.32 8 -3 8 C-3.625 5.625 -3.625 5.625 -4 3 C-2 1 -2 1 0 0 Z " fill="#4C6071" transform="translate(300,182)"/>
<path d="M0 0 C2 1.375 2 1.375 4 3 C4 3.66 4 4.32 4 5 C4.66 5 5.32 5 6 5 C6 5.66 6 6.32 6 7 C6.66 7 7.32 7 8 7 C8 7.66 8 8.32 8 9 C8.66 9 9.32 9 10 9 C9.67 9.66 9.34 10.32 9 11 C8.34 11 7.68 11 7 11 C7 10.01 7 9.02 7 8 C5.02 8.99 5.02 8.99 3 10 C2.731875 9.195625 2.46375 8.39125 2.1875 7.5625 C1.795625 6.716875 1.40375 5.87125 1 5 C0.01 4.67 -0.98 4.34 -2 4 C-2 3.34 -2 2.68 -2 2 C-1.34 2 -0.68 2 0 2 C0 1.34 0 0.68 0 0 Z " fill="#5C6D7B" transform="translate(343,224)"/>
<path d="M0 0 C0 0.99 0 1.98 0 3 C0.31421071 5.00309329 0.6451046 7.00371336 1 9 C-1.31 9.33 -3.62 9.66 -6 10 C-6.33 9.01 -6.66 8.02 -7 7 C-6.34 7 -5.68 7 -5 7 C-5 6.34 -5 5.68 -5 5 C-4.34 5 -3.68 5 -3 5 C-2.690625 4.360625 -2.38125 3.72125 -2.0625 3.0625 C-1 1 -1 1 0 0 Z " fill="#4E6373" transform="translate(281,310)"/>
<path d="M0 0 C0.66 0 1.32 0 2 0 C2.66 1.32 3.32 2.64 4 4 C5.65 4 7.3 4 9 4 C8.34 4.66 7.68 5.32 7 6 C7.350625 6.61875 7.70125 7.2375 8.0625 7.875 C8.371875 8.57625 8.68125 9.2775 9 10 C8.67 10.66 8.34 11.32 8 12 C5.03 9.03 2.06 6.06 -1 3 C-0.67 2.01 -0.34 1.02 0 0 Z " fill="#6C7D8A" transform="translate(292,195)"/>
<path d="M0 0 C5.28 0 10.56 0 16 0 C16 0.33 16 0.66 16 1 C13.69 1 11.38 1 9 1 C8.731875 1.61875 8.46375 2.2375 8.1875 2.875 C7 5 7 5 4 7 C4 5.33333333 4 3.66666667 4 2 C2.68 1.34 1.36 0.68 0 0 Z " fill="#233C50" transform="translate(320,241)"/>
<path d="M0 0 C0.99 0.33 1.98 0.66 3 1 C2.60167969 1.45890625 2.20335937 1.9178125 1.79296875 2.390625 C-0.91142062 5.52271585 -3.57991771 8.63877459 -6 12 C-6.66 11.67 -7.32 11.34 -8 11 C-7.67 10.01 -7.34 9.02 -7 8 C-6.34 8 -5.68 8 -5 8 C-4.67 6.68 -4.34 5.36 -4 4 C-3.34 4 -2.68 4 -2 4 C-2 3.34 -2 2.68 -2 2 C-1.34 2 -0.68 2 0 2 C0 1.34 0 0.68 0 0 Z " fill="#63707E" transform="translate(352,261)"/>
<path d="M0 0 C0.33 0.66 0.66 1.32 1 2 C1.99 2 2.98 2 4 2 C3.42676569 5.86933162 1.61046448 8.15222057 -1 11 C-1.66 11 -2.32 11 -3 11 C-3 11.66 -3 12.32 -3 13 C-3.66 12.67 -4.32 12.34 -5 12 C-4.67 11.01 -4.34 10.02 -4 9 C-3.34 9 -2.68 9 -2 9 C-2 8.34 -2 7.68 -2 7 C-1.34 7 -0.68 7 0 7 C-0.2784375 5.824375 -0.2784375 5.824375 -0.5625 4.625 C-1 2 -1 2 0 0 Z " fill="#53626F" transform="translate(360,249)"/>
<path d="M0 0 C0.144375 0.598125 0.28875 1.19625 0.4375 1.8125 C0.8872439 3.56150404 1.42892341 5.28677023 2 7 C2.33 6.34 2.66 5.68 3 5 C3.99 5 4.98 5 6 5 C7.6875 7 7.6875 7 9 9 C2.6 9.49230769 2.6 9.49230769 -0.4375 7 C-0.953125 6.34 -1.46875 5.68 -2 5 C-1.34 3.35 -0.68 1.7 0 0 Z " fill="#263E54" transform="translate(344,227)"/>
<path d="M0 0 C4.13621084 3.3810038 7.81316569 6.66590534 11 11 C8 11 8 11 6.3125 9.625 C5 8 5 8 5 6 C4.01 6 3.02 6 2 6 C2 5.34 2 4.68 2 4 C1.34 4 0.68 4 0 4 C0 2.68 0 1.36 0 0 Z " fill="#677581" transform="translate(332,213)"/>
<path d="M0 0 C1.12894876 0.93274109 2.25300876 1.87140122 3.375 2.8125 C4.00148438 3.33457031 4.62796875 3.85664063 5.2734375 4.39453125 C7 6 7 6 9 9 C7.35 9.33 5.7 9.66 4 10 C3.32845067 8.71086513 2.66291141 7.41859796 2 6.125 C1.62875 5.40570313 1.2575 4.68640625 0.875 3.9453125 C0 2 0 2 0 0 Z " fill="#5F6F7A" transform="translate(313,194)"/>
<path d="M0 0 C1.98 0.66 3.96 1.32 6 2 C6 1.34 6 0.68 6 0 C6.66 0 7.32 0 8 0 C8.66 1.65 9.32 3.3 10 5 C8.35 5.33 6.7 5.66 5 6 C4.731875 5.360625 4.46375 4.72125 4.1875 4.0625 C3.11332248 1.66868314 3.11332248 1.66868314 0 1 C0 0.67 0 0.34 0 0 Z " fill="#495E6F" transform="translate(301,207)"/>
<path d="M0 0 C0.66 1.32 1.32 2.64 2 4 C1.01 4 0.02 4 -1 4 C-1.474375 4.804375 -1.94875 5.60875 -2.4375 6.4375 C-4 9 -4 9 -6.1875 9.8125 C-6.785625 9.874375 -7.38375 9.93625 -8 10 C-8 9.34 -8 8.68 -8 8 C-7.34 8 -6.68 8 -6 8 C-6 7.34 -6 6.68 -6 6 C-5.34 6 -4.68 6 -4 6 C-3.71125 5.38125 -3.4225 4.7625 -3.125 4.125 C-2 2 -2 2 0 0 Z " fill="#76808E" transform="translate(323,268)"/>
<path d="M0 0 C1.65 0 3.3 0 5 0 C4.67 1.32 4.34 2.64 4 4 C4.99 4.66 5.98 5.32 7 6 C5.1875 6.6875 5.1875 6.6875 3 7 C1.25 5.8125 1.25 5.8125 0 4 C0 2.68 0 1.36 0 0 Z " fill="#526373" transform="translate(125,250)"/>
<path d="M0 0 C1.14926266 0.95421808 2.29430541 1.91352045 3.4375 2.875 C4.07558594 3.40867188 4.71367187 3.94234375 5.37109375 4.4921875 C7 6 7 6 8 8 C7.01 8.33 6.02 8.66 5 9 C4.67 8.01 4.34 7.02 4 6 C3.01 5.67 2.02 5.34 1 5 C0.67 4.67 0.34 4.34 0 4 C-0.66 4 -1.32 4 -2 4 C-2 3.34 -2 2.68 -2 2 C-1.34 2 -0.68 2 0 2 C0 1.34 0 0.68 0 0 Z " fill="#70808D" transform="translate(322,203)"/>
<path d="M0 0 C0.66 1.32 1.32 2.64 2 4 C1.34 3.67 0.68 3.34 0 3 C0 2.01 0 1.02 0 0 Z M-6 1 C-4.68 1 -3.36 1 -2 1 C-1.67 1.99 -1.34 2.98 -1 4 C-0.34 4 0.32 4 1 4 C0.34 5.32 -0.32 6.64 -1 8 C-2.5 6.625 -2.5 6.625 -4 5 C-4 4.34 -4 3.68 -4 3 C-4.66 3 -5.32 3 -6 3 C-6 2.34 -6 1.68 -6 1 Z " fill="#5B6E7C" transform="translate(282,180)"/>
<path d="M0 0 C1.32 0 2.64 0 4 0 C4 0.66 4 1.32 4 2 C3.34 2 2.68 2 2 2 C2 2.66 2 3.32 2 4 C0.03852126 5.38938077 -1.96166576 6.7260411 -4 8 C-3.67 6.35 -3.34 4.7 -3 3 C-2.01 2.67 -1.02 2.34 0 2 C0 1.34 0 0.68 0 0 Z " fill="#707E89" transform="translate(327,286)"/>
<path d="M0 0 C0.99 0.66 1.98 1.32 3 2 C0.69 4.31 -1.62 6.62 -4 9 C-4.33 7.68 -4.66 6.36 -5 5 C-2.5625 2.25 -2.5625 2.25 0 0 Z " fill="#6C7985" transform="translate(288,325)"/>
<path d="M0 0 C0.33 0.66 0.66 1.32 1 2 C1.66 2 2.32 2 3 2 C3.66 4.31 4.32 6.62 5 9 C4.01 9 3.02 9 2 9 C-0.29013653 5.5647952 -0.17842973 4.014669 0 0 Z " fill="#5D6C77" transform="translate(267,167)"/>
<path d="M0 0 C0 1.32 0 2.64 0 4 C-1.98 4 -3.96 4 -6 4 C-6.33 2.68 -6.66 1.36 -7 0 C-4.3333581 -1.33332095 -2.83319697 -0.67102033 0 0 Z " fill="#233E51" transform="translate(364,247)"/>
<path d="M0 0 C3.36720387 1.39332574 4.9859524 2.9789286 7 6 C6.01 6 5.02 6 4 6 C3.67 6.66 3.34 7.32 3 8 C3 6.68 3 5.36 3 4 C2.34 4.66 1.68 5.32 1 6 C0.67 4.02 0.34 2.04 0 0 Z " fill="#707E89" transform="translate(280,162)"/>
<path d="M0 0 C0.66 0.99 1.32 1.98 2 3 C-0.97 5.475 -0.97 5.475 -4 8 C-3.67 6.35 -3.34 4.7 -3 3 C-2.34 3 -1.68 3 -1 3 C-0.67 2.01 -0.34 1.02 0 0 Z " fill="#5F6D7A" transform="translate(312,301)"/>
<path d="M0 0 C4.29 0 8.58 0 13 0 C11.515 1.485 11.515 1.485 10 3 C8.68 3 7.36 3 6 3 C6 2.34 6 1.68 6 1 C4.02 1 2.04 1 0 1 C0 0.67 0 0.34 0 0 Z " fill="#22384C" transform="translate(252,241)"/>
<path d="M0 0 C1.98 1.65 3.96 3.3 6 5 C5.34 5.66 4.68 6.32 4 7 C3.01 7 2.02 7 1 7 C0.67 4.69 0.34 2.38 0 0 Z " fill="#6E818C" transform="translate(354,235)"/>
<path d="M0 0 C0.33 0.66 0.66 1.32 1 2 C2.65 1.67 4.3 1.34 6 1 C6.33 1.66 6.66 2.32 7 3 C6.34 3 5.68 3 5 3 C5 3.99 5 4.98 5 6 C4.34 6 3.68 6 3 6 C3 5.34 3 4.68 3 4 C2.01 3.67 1.02 3.34 0 3 C0 2.01 0 1.02 0 0 Z " fill="#4A5C6B" transform="translate(329,233)"/>
<path d="M0 0 C2 1.3125 2 1.3125 4 3 C4 3.99 4 4.98 4 6 C3.01 6 2.02 6 1 6 C1 5.34 1 4.68 1 4 C0.34 4 -0.32 4 -1 4 C-0.67 2.68 -0.34 1.36 0 0 Z " fill="#67747F" transform="translate(269,330)"/>
<path d="M0 0 C0.66 0.66 1.32 1.32 2 2 C1.67 2.99 1.34 3.98 1 5 C0.01 5.33 -0.98 5.66 -2 6 C-2.66 5.34 -3.32 4.68 -4 4 C-2.68 2.68 -1.36 1.36 0 0 Z " fill="#657582" transform="translate(302,289)"/>
<path d="M0 0 C3.25543229 0.34879632 4.01873107 1.02133261 6.25 3.5625 C6.8275 4.366875 7.405 5.17125 8 6 C5 6 5 6 3.61328125 4.6875 C2.40885417 3.125 1.20442708 1.5625 0 0 Z " fill="#687784" transform="translate(283,189)"/>
<path d="M0 0 C0.66 0 1.32 0 2 0 C2.66 0.66 3.32 1.32 4 2 C6.06874034 2.6425235 6.06874034 2.6425235 8 3 C6 4 4 5 2 6 C2 5.34 2 4.68 2 4 C1.34 3.67 0.68 3.34 0 3 C0 2.01 0 1.02 0 0 Z " fill="#415669" transform="translate(324,209)"/>
<path d="M0 0 C0.66 0.33 1.32 0.66 2 1 C2 2.32 2 3.64 2 5 C0.02 5.33 -1.96 5.66 -4 6 C-2.68 4.02 -1.36 2.04 0 0 Z " fill="#677586" transform="translate(309,281)"/>
<path d="M0 0 C-1.75 3.875 -1.75 3.875 -4 5 C-4.66 4.67 -5.32 4.34 -6 4 C-5.67 3.01 -5.34 2.02 -5 1 C-2 0 -2 0 0 0 Z " fill="#536270" transform="translate(335,281)"/>
<path d="M0 0 C1.32 1.32 2.64 2.64 4 4 C3.67 4.99 3.34 5.98 3 7 C2.01 6.67 1.02 6.34 0 6 C0 4.02 0 2.04 0 0 Z " fill="#4A616D" transform="translate(360,241)"/>
<path d="M0 0 C0.99 0.66 1.98 1.32 3 2 C2.67 2.99 2.34 3.98 2 5 C-1.875 3.25 -1.875 3.25 -3 1 C-2.01 0.67 -1.02 0.34 0 0 Z " fill="#657681" transform="translate(274,176)"/>
</svg>
