<?xml version="1.0" encoding="UTF-8"?>
<svg version="1.1" xmlns="http://www.w3.org/2000/svg" width="500" height="500">
<path d="M0 0 C18.25656047 -0.31933404 35.82225661 1.00034862 53.4140625 6.17089844 C54.45022705 6.47511719 55.4863916 6.77933594 56.55395508 7.09277344 C66.02295678 9.96433447 74.94525251 13.62620108 83.7890625 18.04589844 C84.4087793 18.3555957 85.02849609 18.66529297 85.66699219 18.984375 C100.10305231 26.30021035 100.10305231 26.30021035 105.7890625 31.04589844 C105.7890625 31.70589844 105.7890625 32.36589844 105.7890625 33.04589844 C106.6553125 33.27277344 107.5215625 33.49964844 108.4140625 33.73339844 C112.45479505 35.30479443 114.66103359 37.06682328 117.7890625 40.04589844 C117.7890625 40.70589844 117.7890625 41.36589844 117.7890625 42.04589844 C118.37534424 42.30838379 118.96162598 42.57086914 119.56567383 42.84130859 C123.48494097 44.96469325 126.35767122 48.27809372 129.4765625 51.42089844 C130.18683594 52.13391113 130.89710938 52.84692383 131.62890625 53.58154297 C146.7890625 69.04255086 146.7890625 69.04255086 146.7890625 74.04589844 C147.4490625 74.04589844 148.1090625 74.04589844 148.7890625 74.04589844 C149.08039063 74.57957031 149.37171875 75.11324219 149.671875 75.66308594 C151.88111133 79.67861611 154.14527461 83.61390382 156.6015625 87.48339844 C177.62617347 122.37991768 183.7568843 166.42637507 175.7890625 206.04589844 C175.62277344 206.89603516 175.45648438 207.74617187 175.28515625 208.62207031 C171.38630482 228.0441265 163.96691227 245.56892919 154.7890625 263.04589844 C154.1290625 263.04589844 153.4690625 263.04589844 152.7890625 263.04589844 C152.6859375 263.60277344 152.5828125 264.15964844 152.4765625 264.73339844 C151.64727842 267.52280854 150.44607194 269.65980484 148.7890625 272.04589844 C148.1290625 272.04589844 147.4690625 272.04589844 146.7890625 272.04589844 C146.41587891 273.12677734 146.41587891 273.12677734 146.03515625 274.22949219 C144.66777909 277.32002176 143.00646261 279.5120849 140.8515625 282.10839844 C137.9139959 285.66105997 137.9139959 285.66105997 135.16015625 289.35449219 C134.48146484 290.19173828 134.48146484 290.19173828 133.7890625 291.04589844 C133.1290625 291.04589844 132.4690625 291.04589844 131.7890625 291.04589844 C131.44875 291.88121094 131.44875 291.88121094 131.1015625 292.73339844 C129.41356214 295.70749431 127.32229733 297.76598709 124.7890625 300.04589844 C124.1290625 300.04589844 123.4690625 300.04589844 122.7890625 300.04589844 C122.7890625 300.70589844 122.7890625 301.36589844 122.7890625 302.04589844 C122.1290625 302.04589844 121.4690625 302.04589844 120.7890625 302.04589844 C120.7890625 302.70589844 120.7890625 303.36589844 120.7890625 304.04589844 C119.44384766 305.28271484 119.44384766 305.28271484 117.578125 306.64746094 C116.91039062 307.13730469 116.24265625 307.62714844 115.5546875 308.13183594 C114.84828125 308.63972656 114.141875 309.14761719 113.4140625 309.67089844 C112.36605469 310.44433594 112.36605469 310.44433594 111.296875 311.23339844 C106.05216601 315.04589844 106.05216601 315.04589844 103.7890625 315.04589844 C103.7890625 315.70589844 103.7890625 316.36589844 103.7890625 317.04589844 C101.46665068 318.66691072 99.16797417 320.1212873 96.7265625 321.54589844 C95.97793945 321.98369629 95.22931641 322.42149414 94.45800781 322.87255859 C77.76669975 332.362566 60.00186602 339.10329446 41.2890625 343.23339844 C40.16806152 343.48452393 40.16806152 343.48452393 39.02441406 343.74072266 C18.81297408 347.95978456 -3.92659604 347.51500694 -24.2109375 344.04589844 C-25.43554688 343.87445313 -26.66015625 343.70300781 -27.921875 343.52636719 C-48.82650022 340.24014314 -69.00018182 331.65319427 -87.2109375 321.04589844 C-87.2109375 320.38589844 -87.2109375 319.72589844 -87.2109375 319.04589844 C-87.7678125 318.94277344 -88.3246875 318.83964844 -88.8984375 318.73339844 C-91.6878476 317.90411435 -93.8248439 316.70290788 -96.2109375 315.04589844 C-96.2109375 314.38589844 -96.2109375 313.72589844 -96.2109375 313.04589844 C-96.90832031 312.81902344 -97.60570312 312.59214844 -98.32421875 312.35839844 C-101.83270082 310.76320226 -104.51798439 308.55223314 -107.3984375 306.04589844 C-107.96071045 305.56258057 -108.5229834 305.0792627 -109.10229492 304.58129883 C-114.36248711 300.00867455 -119.6416741 295.31653861 -124.2109375 290.04589844 C-124.2109375 289.38589844 -124.2109375 288.72589844 -124.2109375 288.04589844 C-124.8709375 288.04589844 -125.5309375 288.04589844 -126.2109375 288.04589844 C-127.84233687 286.12002265 -129.34816975 284.20263127 -130.8359375 282.17089844 C-131.25617188 281.6153125 -131.67640625 281.05972656 -132.109375 280.48730469 C-135.2109375 276.30825132 -135.2109375 276.30825132 -135.2109375 274.04589844 C-135.8709375 274.04589844 -136.5309375 274.04589844 -137.2109375 274.04589844 C-140.17920579 269.91401323 -142.66272118 265.44684728 -145.2109375 261.04589844 C-145.71898926 260.17989014 -145.71898926 260.17989014 -146.23730469 259.29638672 C-155.12970687 243.99814535 -161.25606015 227.26740139 -165.2109375 210.04589844 C-165.42363281 209.1603125 -165.63632813 208.27472656 -165.85546875 207.36230469 C-170.37279014 187.0506078 -169.81786611 163.45472234 -166.2109375 143.04589844 C-166.02789062 141.87285156 -165.84484375 140.69980469 -165.65625 139.49121094 C-161.78083261 117.24344443 -152.85241858 95.7133705 -140.2109375 77.04589844 C-139.69273437 76.12550781 -139.17453125 75.20511719 -138.640625 74.25683594 C-138.16882813 73.52722656 -137.69703125 72.79761719 -137.2109375 72.04589844 C-136.5509375 72.04589844 -135.8909375 72.04589844 -135.2109375 72.04589844 C-134.97375 71.34078125 -134.7365625 70.63566406 -134.4921875 69.90917969 C-132.98591577 66.54302976 -131.05509233 64.07606671 -128.7109375 61.23339844 C-127.916875 60.25757813 -127.1228125 59.28175781 -126.3046875 58.27636719 C-125.61375 57.5403125 -124.9228125 56.80425781 -124.2109375 56.04589844 C-123.5509375 56.04589844 -122.8909375 56.04589844 -122.2109375 56.04589844 C-122.2109375 55.38589844 -122.2109375 54.72589844 -122.2109375 54.04589844 C-121.5509375 54.04589844 -120.8909375 54.04589844 -120.2109375 54.04589844 C-119.9634375 53.42714844 -119.7159375 52.80839844 -119.4609375 52.17089844 C-118.00465111 49.69521157 -116.83281244 49.09464841 -114.2109375 48.04589844 C-114.2109375 47.38589844 -114.2109375 46.72589844 -114.2109375 46.04589844 C-108.67112523 40.80003539 -102.33370536 36.31520386 -96.1484375 31.85839844 C-95.60815918 31.46716797 -95.06788086 31.0759375 -94.51123047 30.67285156 C-67.06375471 11.18717692 -33.52002192 0.69586618 0 0 Z M-37.06640625 92.99121094 C-46.41983949 104.86934981 -49.2109375 117.00820975 -49.2109375 132.04589844 C-40.3009375 132.04589844 -31.3909375 132.04589844 -22.2109375 132.04589844 C-21.6540625 129.71527344 -21.0971875 127.38464844 -20.5234375 124.98339844 C-18.59741598 117.50835276 -16.46700684 112.78395675 -10.4609375 107.73339844 C-2.2938144 103.49277683 6.3430424 103.12377383 15.16015625 105.75292969 C17.05873463 106.46010659 18.92686945 107.2478157 20.7890625 108.04589844 C22.2740625 108.54089844 22.2740625 108.54089844 23.7890625 109.04589844 C23.7890625 109.70589844 23.7890625 110.36589844 23.7890625 111.04589844 C24.4490625 111.04589844 25.1090625 111.04589844 25.7890625 111.04589844 C26.19125 112.06683594 26.19125 112.06683594 26.6015625 113.10839844 C27.77270552 116.12827198 27.77270552 116.12827198 29.4140625 119.23339844 C32.60832831 126.83411298 30.89544003 134.5051877 28.203125 142.01074219 C26.19284953 146.32561522 23.53335564 149.94370034 20.59375 153.67089844 C19.01467333 155.74899067 17.85390502 157.67470272 16.7890625 160.04589844 C16.1290625 160.04589844 15.4690625 160.04589844 14.7890625 160.04589844 C13.20714432 161.53016076 13.20714432 161.53016076 11.6640625 163.42089844 C11.12523437 164.04738281 10.58640625 164.67386719 10.03125 165.31933594 C8.59439103 166.96198271 8.59439103 166.96198271 8.7890625 169.04589844 C8.1290625 169.04589844 7.4690625 169.04589844 6.7890625 169.04589844 C3.15272711 172.52588351 3.15272711 172.52588351 1.7890625 177.04589844 C1.1290625 177.04589844 0.4690625 177.04589844 -0.2109375 177.04589844 C-3.84727289 180.52588351 -3.84727289 180.52588351 -5.2109375 185.04589844 C-6.2009375 185.37589844 -7.1909375 185.70589844 -8.2109375 186.04589844 C-10.62089116 188.68130862 -10.62089116 188.68130862 -11.2109375 192.04589844 C-11.8709375 192.04589844 -12.5309375 192.04589844 -13.2109375 192.04589844 C-13.2109375 192.70589844 -13.2109375 193.36589844 -13.2109375 194.04589844 C-13.8709375 194.04589844 -14.5309375 194.04589844 -15.2109375 194.04589844 C-15.2109375 194.70589844 -15.2109375 195.36589844 -15.2109375 196.04589844 C-15.8709375 196.04589844 -16.5309375 196.04589844 -17.2109375 196.04589844 C-20.23611659 199.10148267 -20.23611659 199.10148267 -21.2109375 203.04589844 C-21.8709375 203.04589844 -22.5309375 203.04589844 -23.2109375 203.04589844 C-24.95875789 204.92285148 -24.95875789 204.92285148 -26.7109375 207.29589844 C-27.62359375 208.47925781 -27.62359375 208.47925781 -28.5546875 209.68652344 C-30.00832783 211.75727523 -31.15859493 213.75179164 -32.2109375 216.04589844 C-32.8709375 216.04589844 -33.5309375 216.04589844 -34.2109375 216.04589844 C-34.2109375 216.70589844 -34.2109375 217.36589844 -34.2109375 218.04589844 C-34.8709375 218.04589844 -35.5309375 218.04589844 -36.2109375 218.04589844 C-37.77526537 219.73864128 -39.26422322 221.50159696 -40.7109375 223.29589844 C-41.505 224.27042969 -42.2990625 225.24496094 -43.1171875 226.24902344 C-44.79841784 228.49484605 -46.09229649 230.49247873 -47.2109375 233.04589844 C-47.8709375 233.04589844 -48.5309375 233.04589844 -49.2109375 233.04589844 C-53.3875922 241.39920783 -50.2109375 251.70661462 -50.2109375 261.04589844 C-13.9109375 261.04589844 22.3890625 261.04589844 59.7890625 261.04589844 C59.7890625 251.80589844 59.7890625 242.56589844 59.7890625 233.04589844 C37.0190625 233.04589844 14.2490625 233.04589844 -9.2109375 233.04589844 C-9.2109375 230.04589844 -9.2109375 230.04589844 -7.2109375 227.98339844 C-6.5509375 227.34402344 -5.8909375 226.70464844 -5.2109375 226.04589844 C-5.2109375 225.38589844 -5.2109375 224.72589844 -5.2109375 224.04589844 C-4.5509375 224.04589844 -3.8909375 224.04589844 -3.2109375 224.04589844 C-1.62901932 222.56163611 -1.62901932 222.56163611 -0.0859375 220.67089844 C0.45289063 220.04441406 0.99171875 219.41792969 1.546875 218.77246094 C2.98373397 217.12981416 2.98373397 217.12981416 2.7890625 215.04589844 C3.4490625 215.04589844 4.1090625 215.04589844 4.7890625 215.04589844 C7.81424159 211.99031421 7.81424159 211.99031421 8.7890625 208.04589844 C9.4490625 208.04589844 10.1090625 208.04589844 10.7890625 208.04589844 C12.37098068 206.56163611 12.37098068 206.56163611 13.9140625 204.67089844 C14.45289063 204.04441406 14.99171875 203.41792969 15.546875 202.77246094 C16.98373397 201.12981416 16.98373397 201.12981416 16.7890625 199.04589844 C17.4490625 199.04589844 18.1090625 199.04589844 18.7890625 199.04589844 C20.32758016 197.3263787 21.79638009 195.54402346 23.2265625 193.73339844 C27.5738811 188.25448785 27.5738811 188.25448785 29.57421875 186.31542969 C31.01952052 185.09792343 31.01952052 185.09792343 30.7890625 183.04589844 C31.4490625 183.04589844 32.1090625 183.04589844 32.7890625 183.04589844 C35.18726555 180.40905097 35.18726555 180.40905097 35.7890625 177.04589844 C36.4490625 177.04589844 37.1090625 177.04589844 37.7890625 177.04589844 C52.10621817 161.72987145 59.59619928 144.9822723 59.7890625 124.04589844 C58.9411197 112.72653499 55.19193095 101.80243426 47.7890625 93.04589844 C47.1290625 93.04589844 46.4690625 93.04589844 45.7890625 93.04589844 C45.7890625 92.38589844 45.7890625 91.72589844 45.7890625 91.04589844 C45.1290625 91.04589844 44.4690625 91.04589844 43.7890625 91.04589844 C43.7890625 90.38589844 43.7890625 89.72589844 43.7890625 89.04589844 C20.07225872 71.1127342 -15.78001937 70.6741148 -37.06640625 92.99121094 Z " fill="#DAB34D" transform="translate(245.2109375,76.9541015625)"/>
<path d="M0 0 C9.94231937 14.91347906 4.67690481 46.03523184 1.48388672 62.63476562 C0.15486593 69.1310085 -1.36062036 75.57562902 -3 82 C-3.33 82 -3.66 82 -4 82 C-4.2549878 76.1352807 -3.4918552 70.68429498 -2 65 C-1.505 64.505 -1.505 64.505 -1 64 C1.04204547 53.32770395 1.18682684 42.58245447 1.1875 31.75 C1.18858765 29.84009277 1.18858765 29.84009277 1.18969727 27.89160156 C1.15482316 22.0217795 1.06737576 16.64745623 -0.58984375 10.984375 C-1.08364649 8.59531031 -0.88187157 6.66302962 -0.5625 4.25 C-0.40974609 3.05117187 -0.40974609 3.05117187 -0.25390625 1.828125 C-0.17011719 1.22484375 -0.08632813 0.6215625 0 0 Z " fill="#DCC27E" transform="translate(420,218)"/>
<path d="M0 0 C1.32 0.33 2.64 0.66 4 1 C4 1.66 4 2.32 4 3 C2.68 4.32 1.36 5.64 0 7 C32.67 7.495 32.67 7.495 66 8 C66 17.57 66 27.14 66 37 C65.67 37 65.34 37 65 37 C65 27.76 65 18.52 65 9 C61.88038818 9.0611499 61.88038818 9.0611499 58.69775391 9.12353516 C51.83671676 9.25654622 44.97551466 9.37842229 38.1141758 9.49477577 C33.95294832 9.56568518 29.79185962 9.64037816 25.63085938 9.72363281 C21.61746374 9.80379634 17.60400657 9.87413245 13.59031296 9.93757248 C12.05680337 9.96355469 10.52335021 9.9931157 8.98997879 10.02626419 C6.84703535 10.07198713 4.70424662 10.10513601 2.56103516 10.13525391 C1.33969879 10.15746002 0.11836243 10.17966614 -1.13998413 10.20254517 C-4 10 -4 10 -6 8 C-4.02 5.36 -2.04 2.72 0 0 Z " fill="#D4B464" transform="translate(240,301)"/>
<path d="M0 0 C0.33 0 0.66 0 1 0 C1.02687279 1.81242052 1.04633715 3.62495233 1.0625 5.4375 C1.07410156 6.44683594 1.08570312 7.45617187 1.09765625 8.49609375 C1 11 1 11 0 12 C-0.15980437 14.44608998 -0.25929447 16.86731058 -0.31640625 19.31640625 C-0.33718735 20.04746078 -0.35796844 20.77851532 -0.37937927 21.53172302 C-0.44495024 23.87521656 -0.50379432 26.21882539 -0.5625 28.5625 C-0.60567808 30.14779855 -0.64929213 31.73308529 -0.69335938 33.31835938 C-0.8006392 37.21212037 -0.9018849 41.10599772 -1 45 C-1.66 45 -2.32 45 -3 45 C-3.43963698 12.91326381 -3.43963698 12.91326381 -1 1 C-0.67 0.67 -0.34 0.34 0 0 Z " fill="#CFB264" transform="translate(80,219)"/>
<path d="M0 0 C0.66 0.33 1.32 0.66 2 1 C-0.43902524 3.43902524 -2.86352319 4.59178592 -6 6 C-6.99 6 -7.98 6 -9 6 C-9.433125 6.928125 -9.433125 6.928125 -9.875 7.875 C-11 10 -11 10 -13 12 C-16.125 11.625 -16.125 11.625 -19 11 C-19 11.66 -19 12.32 -19 13 C-22.52948291 14.66670026 -24.28272326 15.13583456 -28 14 C-21.43605788 10.25727706 -14.74954532 6.82755147 -7.9375 3.5625 C-6.81226929 3.01335937 -6.81226929 3.01335937 -5.66430664 2.453125 C-3.80462927 1.57268366 -1.90467598 0.77832274 0 0 Z " fill="#D6B45D" transform="translate(186,89)"/>
<path d="M0 0 C0.99 0.66 1.98 1.32 3 2 C3 2.66 3 3.32 3 4 C4.32 4.33 5.64 4.66 7 5 C7 5.66 7 6.32 7 7 C8.32 7 9.64 7 11 7 C11 7.66 11 8.32 11 9 C15.455 8.505 15.455 8.505 20 8 C18.3125 10.0625 18.3125 10.0625 16 12 C11.35190956 11.66318185 7.3204748 9.4347749 3.1875 7.4375 C2.49462891 7.10814453 1.80175781 6.77878906 1.08789062 6.43945312 C-0.61044948 5.63127749 -2.30555769 4.81631623 -4 4 C-2.68 3.34 -1.36 2.68 0 2 C0 1.34 0 0.68 0 0 Z " fill="#D6B45F" transform="translate(174,400)"/>
<path d="M0 0 C0.33 0.99 0.66 1.98 1 3 C0.67 3.66 0.34 4.32 0 5 C-1.32 5 -2.64 5 -4 5 C-4.33 5.99 -4.66 6.98 -5 8 C-6.58288981 9.95976834 -7.70930649 10.88548438 -10.0625 11.8125 C-10.701875 11.874375 -11.34125 11.93625 -12 12 C-12.66 11.34 -13.32 10.68 -14 10 C-9.38 6.7 -4.76 3.4 0 0 Z " fill="#DBBE70" transform="translate(152,107)"/>
<path d="M0 0 C2.64 0.33 5.28 0.66 8 1 C4.81579155 3.12280563 3.79462745 3.28019537 0.11328125 3.4140625 C-1.2934082 3.47207031 -1.2934082 3.47207031 -2.72851562 3.53125 C-3.70498047 3.5621875 -4.68144531 3.593125 -5.6875 3.625 C-6.67556641 3.66367187 -7.66363281 3.70234375 -8.68164062 3.7421875 C-11.12090707 3.83645867 -13.56016595 3.92206218 -16 4 C-16 3.34 -16 2.68 -16 2 C-10.72 2 -5.44 2 0 2 C0 1.34 0 0.68 0 0 Z " fill="#D2B570" transform="translate(272,419)"/>
<path d="M0 0 C6.84317212 0.67744459 13.2138787 2.06107742 19.78515625 4.08203125 C19.78515625 4.41203125 19.78515625 4.74203125 19.78515625 5.08203125 C17.66022484 5.108967 15.53519713 5.12839753 13.41015625 5.14453125 C12.22679687 5.15613281 11.0434375 5.16773437 9.82421875 5.1796875 C6.78515625 5.08203125 6.78515625 5.08203125 4.78515625 4.08203125 C4.78515625 3.42203125 4.78515625 2.76203125 4.78515625 2.08203125 C1.81515625 2.08203125 -1.15484375 2.08203125 -4.21484375 2.08203125 C-2.21484375 0.08203125 -2.21484375 0.08203125 0 0 Z " fill="#D8BB71" transform="translate(278.21484375,78.91796875)"/>
<path d="M0 0 C0.33 0.66 0.66 1.32 1 2 C1.66 2.33 2.32 2.66 3 3 C3 6 3 6 0.625 8.4375 C-0.24125 9.283125 -1.1075 10.12875 -2 11 C-3.29519995 13.16620544 -3.29519995 13.16620544 -4 15 C-4.66 15 -5.32 15 -6 15 C-4.36041242 9.76727367 -2.61047965 4.84803364 0 0 Z " fill="#D6BC68" transform="translate(96,169)"/>
<path d="M0 0 C5.94 0 11.88 0 18 0 C18 0.66 18 1.32 18 2 C19.32 2.33 20.64 2.66 22 3 C14.40501039 3.26442904 7.42640842 2.60881575 0 1 C0 0.67 0 0.34 0 0 Z " fill="#D8BB74" transform="translate(214,419)"/>
<path d="M0 0 C1.32 0.33 2.64 0.66 4 1 C4 3 4 3 2 5.125 C1.34 5.74375 0.68 6.3625 0 7 C0.33 7.66 0.66 8.32 1 9 C-1.375 9.625 -1.375 9.625 -4 10 C-4.66 9.34 -5.32 8.68 -6 8 C-4.02 5.36 -2.04 2.72 0 0 Z " fill="#D9C076" transform="translate(240,301)"/>
<path d="M0 0 C0.99 0.33 1.98 0.66 3 1 C5.52167512 6.17606998 5.19972232 11.38558376 5 17 C4.34 17.33 3.68 17.66 3 18 C2.92652344 16.86111328 2.92652344 16.86111328 2.8515625 15.69921875 C2.77679688 14.70535156 2.70203125 13.71148437 2.625 12.6875 C2.55539062 11.70136719 2.48578125 10.71523437 2.4140625 9.69921875 C2.16134528 6.78471567 2.16134528 6.78471567 0 4 C0 2.68 0 1.36 0 0 Z " fill="#D9C584" transform="translate(272,193)"/>
<path d="M0 0 C2.42479736 3.63719605 2.38662577 5.85703482 2.625 10.1875 C2.69976562 11.45980469 2.77453125 12.73210937 2.8515625 14.04296875 C2.92503906 15.50669922 2.92503906 15.50669922 3 17 C2.34 17.33 1.68 17.66 1 18 C0.855625 17.2575 0.71125 16.515 0.5625 15.75 C0.0690468 13.12845194 0.0690468 13.12845194 -0.5625 11.125 C-1.06839959 8.66777341 -0.89089601 6.73121432 -0.5625 4.25 C-0.46066406 3.45078125 -0.35882813 2.6515625 -0.25390625 1.828125 C-0.17011719 1.22484375 -0.08632813 0.6215625 0 0 Z " fill="#D3B566" transform="translate(420,218)"/>
<path d="M0 0 C1.32 0 2.64 0 4 0 C4.33 0.66 4.66 1.32 5 2 C6.88263881 2.90343684 6.88263881 2.90343684 9.0625 3.625 C9.79597656 3.88539063 10.52945313 4.14578125 11.28515625 4.4140625 C12.13400391 4.70410156 12.13400391 4.70410156 13 5 C13 5.66 13 6.32 13 7 C13.66 7 14.32 7 15 7 C14.67 7.99 14.34 8.98 14 10 C10.535 8.02 10.535 8.02 7 6 C7 5.34 7 4.68 7 4 C6.401875 3.896875 5.80375 3.79375 5.1875 3.6875 C2.71756736 2.91123545 1.67748765 1.92911079 0 0 Z " fill="#D9C27D" transform="translate(151,392)"/>
<path d="M0 0 C0.33 0 0.66 0 1 0 C1.05449838 1.72880982 1.09301688 3.45812712 1.125 5.1875 C1.14820312 6.15042969 1.17140625 7.11335937 1.1953125 8.10546875 C0.9913544 11.12812778 0.26874632 13.26769985 -1 16 C-1.33 16 -1.66 16 -2 16 C-2.05449838 14.27119018 -2.09301688 12.54187288 -2.125 10.8125 C-2.14820312 9.84957031 -2.17140625 8.88664063 -2.1953125 7.89453125 C-1.9913544 4.87187222 -1.26874632 2.73230015 0 0 Z " fill="#D7BC6E" transform="translate(80,219)"/>
<path d="M0 0 C0.66 0.99 1.32 1.98 2 3 C1.360625 3.226875 0.72125 3.45375 0.0625 3.6875 C-0.618125 4.120625 -1.29875 4.55375 -2 5 C-2.144375 5.825 -2.28875 6.65 -2.4375 7.5 C-2.623125 8.325 -2.80875 9.15 -3 10 C-5.5625 11.3125 -5.5625 11.3125 -8 12 C-6.7580393 8.56072421 -5.44259716 5.74792181 -3 3 C-2.34 3 -1.68 3 -1 3 C-0.67 2.01 -0.34 1.02 0 0 Z " fill="#D8BC6F" transform="translate(257,282)"/>
<path d="M0 0 C5.06998019 0.65419099 9.41990777 2.8546409 14 5 C14 5.33 14 5.66 14 6 C9.45319073 5.45438289 5.2274734 4.81177431 1 3 C0.67 2.01 0.34 1.02 0 0 Z " fill="#DBC074" transform="translate(311,88)"/>
<path d="M0 0 C1 2 1 2 0.5 5 C-1 8 -1 8 -4.625 9.375 C-5.73875 9.58125 -6.8525 9.7875 -8 10 C-7.67 9.01 -7.34 8.02 -7 7 C-6.34 7 -5.68 7 -5 7 C-5 6.34 -5 5.68 -5 5 C-4.34 5 -3.68 5 -3 5 C-2.690625 4.360625 -2.38125 3.72125 -2.0625 3.0625 C-1 1 -1 1 0 0 Z " fill="#DBC27B" transform="translate(128,126)"/>
<path d="M0 0 C-1.98 0.66 -3.96 1.32 -6 2 C-6 2.33 -6 2.66 -6 3 C-9.3 3 -12.6 3 -16 3 C-13.63496183 0.63496183 -12.35963958 0.45078941 -9.125 -0.1875 C-8.26132813 -0.36667969 -7.39765625 -0.54585938 -6.5078125 -0.73046875 C-4.00753003 -0.9991907 -2.36944548 -0.7769577 0 0 Z " fill="#D5BA70" transform="translate(227,80)"/>
<path d="M0 0 C0.33 0 0.66 0 1 0 C1.125 3.375 1.125 3.375 1 7 C0.34 7.66 -0.32 8.32 -1 9 C-1 8.34 -1 7.68 -1 7 C-1.99 7 -2.98 7 -4 7 C-3.67 5.35 -3.34 3.7 -3 2 C-2.01 2 -1.02 2 0 2 C0 1.34 0 0.68 0 0 Z " fill="#D8B760" transform="translate(415,297)"/>
<path d="M0 0 C4.05281712 1.22527029 7.44360764 2.69880494 11 5 C8.36749612 6.31625194 7.19820944 5.74813658 4.375 5.0625 C3.55773437 4.86785156 2.74046875 4.67320313 1.8984375 4.47265625 C0.95871094 4.23869141 0.95871094 4.23869141 0 4 C0 2.68 0 1.36 0 0 Z " fill="#D5BC6D" transform="translate(329,96)"/>
<path d="M0 0 C0.33 0 0.66 0 1 0 C1 2.31 1 4.62 1 7 C0.34 7 -0.32 7 -1 7 C-1.66 8.65 -2.32 10.3 -3 12 C-3.66 12 -4.32 12 -5 12 C-3.68938409 7.76570244 -2.05643741 3.92592596 0 0 Z " fill="#DDC47A" transform="translate(300,227)"/>
<path d="M0 0 C1.98 0.99 1.98 0.99 4 2 C4 3.65 4 5.3 4 7 C4.66 7 5.32 7 6 7 C6 8.98 6 10.96 6 13 C2.57068046 9.2440786 1.43570917 4.76533255 0 0 Z " fill="#D8C27A" transform="translate(89,314)"/>
<path d="M0 0 C0.66 0 1.32 0 2 0 C1.34 1.65 0.68 3.3 0 5 C-0.66 5 -1.32 5 -2 5 C-2.66 6.32 -3.32 7.64 -4 9 C-4.33 9 -4.66 9 -5 9 C-5 7.02 -5 5.04 -5 3 C-3.35 2.67 -1.7 2.34 0 2 C0 1.34 0 0.68 0 0 Z " fill="#D9BD6E" transform="translate(247,249)"/>
<path d="M0 0 C-0.33 0.99 -0.66 1.98 -1 3 C-1.99 3 -2.98 3 -4 3 C-4.33 3.66 -4.66 4.32 -5 5 C-5.99 5 -6.98 5 -8 5 C-8 4.34 -8 3.68 -8 3 C-8.66 2.67 -9.32 2.34 -10 2 C-3.375 0 -3.375 0 0 0 Z " fill="#D8BB6C" transform="translate(207,83)"/>
<path d="M0 0 C0.66 0 1.32 0 2 0 C2.33 1.65 2.66 3.3 3 5 C3.66 5 4.32 5 5 5 C5 6.32 5 7.64 5 9 C3.68 9 2.36 9 1 9 C0.67 6.03 0.34 3.06 0 0 Z " fill="#DABE68" transform="translate(79,278)"/>
<path d="M0 0 C2.475 0.99 2.475 0.99 5 2 C5 2.66 5 3.32 5 4 C5.969375 4.28875 6.93875 4.5775 7.9375 4.875 C11 6 11 6 12 8 C8.56698276 7.22092044 5.24589962 6.37574553 2 5 C0.375 2.3125 0.375 2.3125 0 0 Z " fill="#D7BC73" transform="translate(346,106)"/>
<path d="M0 0 C-1.6875 1.5625 -1.6875 1.5625 -4 3 C-7.50610679 2.7434556 -9.0278901 1.9814066 -12 0 C-3.42857143 -1.28571429 -3.42857143 -1.28571429 0 0 Z " fill="#DCBD6D" transform="translate(194,409)"/>
<path d="M0 0 C0.66 0.33 1.32 0.66 2 1 C-1.13138355 4.13138355 -4.4278637 5.89746937 -8.875 6.1875 C-9.57625 6.125625 -10.2775 6.06375 -11 6 C-7.57874946 3.12614955 -4.16111563 1.54115394 0 0 Z " fill="#D6BB73" transform="translate(186,89)"/>
<path d="M0 0 C0.33 0.66 0.66 1.32 1 2 C0.34 2 -0.32 2 -1 2 C-1.33 3.65 -1.66 5.3 -2 7 C-3.32 7 -4.64 7 -6 7 C-4.19587357 3.73539027 -3.16605307 2.11070205 0 0 Z " fill="#D8B86A" transform="translate(234,185)"/>
<path d="M0 0 C-2.85478326 1.90318884 -4.41941308 2.4619099 -7.6875 3.125 C-8.49574219 3.29257812 -9.30398438 3.46015625 -10.13671875 3.6328125 C-10.75160156 3.75398438 -11.36648438 3.87515625 -12 4 C-11.67 3.01 -11.34 2.02 -11 1 C-7.26562152 0.12132271 -3.83225427 -0.08912219 0 0 Z " fill="#E0C88E" transform="translate(312,412)"/>
<path d="M0 0 C1.32 0.33 2.64 0.66 4 1 C4 1.66 4 2.32 4 3 C3.34 3 2.68 3 2 3 C1.34 4.32 0.68 5.64 0 7 C-0.66 6.01 -1.32 5.02 -2 4 C-1.34 2.68 -0.68 1.36 0 0 Z " fill="#D8B965" transform="translate(220,277)"/>
<path d="M0 0 C3.65316671 1.24976756 4.78065836 1.67098753 7 5 C6.67 5.99 6.34 6.98 6 8 C4.5 6.625 4.5 6.625 3 5 C3 4.34 3 3.68 3 3 C2.34 3 1.68 3 1 3 C0.67 2.01 0.34 1.02 0 0 Z " fill="#DEC47E" transform="translate(118,362)"/>
<path d="M0 0 C0.66 1.32 1.32 2.64 2 4 C1.01 5.32 0.02 6.64 -1 8 C-2.4606285 5.35261084 -3 4.10551666 -3 1 C-2.01 0.67 -1.02 0.34 0 0 Z " fill="#DCB968" transform="translate(405,322)"/>
<path d="M0 0 C2.64 0.33 5.28 0.66 8 1 C4.3558226 3.4294516 2.28758728 3.16179575 -2 3 C-1.34 2.67 -0.68 2.34 0 2 C0 1.34 0 0.68 0 0 Z " fill="#DEC57C" transform="translate(272,419)"/>
<path d="M0 0 C4.875 4.75 4.875 4.75 6 7 C4.68 7.33 3.36 7.66 2 8 C2 6.68 2 5.36 2 4 C1.01 3.67 0.02 3.34 -1 3 C-0.67 2.01 -0.34 1.02 0 0 Z " fill="#DCBC71" transform="translate(380,135)"/>
<path d="M0 0 C0.6875 1.8125 0.6875 1.8125 1 4 C-0.25 5.75 -0.25 5.75 -2 7 C-2.99 7 -3.98 7 -5 7 C-3.70700306 4.11562221 -2.34058637 2.12780579 0 0 Z " fill="#DBC07C" transform="translate(274,263)"/>
<path d="M0 0 C2.29013653 3.4352048 2.17842973 4.985331 2 9 C1.01 9 0.02 9 -1 9 C-0.67 6.03 -0.34 3.06 0 0 Z " fill="#DDC277" transform="translate(420,218)"/>
<path d="M0 0 C3.875 0.875 3.875 0.875 5 2 C5.04080783 3.99958364 5.04254356 6.00045254 5 8 C2.74754119 5.31158141 1.11786042 3.35358125 0 0 Z " fill="#DBBE72" transform="translate(296,175)"/>
<path d="M0 0 C2.31 1.98 4.62 3.96 7 6 C6.01 6.33 5.02 6.66 4 7 C1.8125 5.8125 1.8125 5.8125 0 4 C0 2.68 0 1.36 0 0 Z " fill="#D3B36B" transform="translate(366,121)"/>
<path d="M0 0 C2.31 0.33 4.62 0.66 7 1 C6.67 2.65 6.34 4.3 6 6 C3.97945196 4.35830472 1.97956942 2.69088222 0 1 C0 0.67 0 0.34 0 0 Z " fill="#D4B267" transform="translate(125,370)"/>
<path d="M0 0 C0.95465783 2.16967689 1.14401212 3.56328793 0.3984375 5.82421875 C-0.35870385 7.5684743 -1.17609198 9.28627131 -2 11 C-2.95465783 8.83032311 -3.14401212 7.43671207 -2.3984375 5.17578125 C-1.64129615 3.4315257 -0.82390802 1.71372869 0 0 Z " fill="#DFCA8F" transform="translate(413,306)"/>
<path d="M0 0 C0.99 0.33 1.98 0.66 3 1 C3.33 2.98 3.66 4.96 4 7 C3.01 6.67 2.02 6.34 1 6 C0.67 4.02 0.34 2.04 0 0 Z " fill="#D9BE70" transform="translate(272,193)"/>
<path d="M0 0 C0.33 0.99 0.66 1.98 1 3 C-1.35438733 4.42944945 -2.48032433 5.08661261 -5.25 4.625 C-5.8275 4.41875 -6.405 4.2125 -7 4 C-4.69 2.68 -2.38 1.36 0 0 Z " fill="#D8BE71" transform="translate(165,99)"/>
<path d="M0 0 C1.32 0.66 2.64 1.32 4 2 C0.25 5 0.25 5 -2 5 C-1.125 1.125 -1.125 1.125 0 0 Z " fill="#DBBB6C" transform="translate(368,373)"/>
</svg>
