<?xml version="1.0" encoding="UTF-8"?>
<svg version="1.1" xmlns="http://www.w3.org/2000/svg" width="1024" height="1024">
<path d="M0 0 C337.92 0 675.84 0 1024 0 C1024 337.92 1024 675.84 1024 1024 C686.08 1024 348.16 1024 0 1024 C0 686.08 0 348.16 0 0 Z " fill="#F9F9FA" transform="translate(0,0)"/>
<path d="M0 0 C0.80497925 0.00060425 1.6099585 0.0012085 2.43933105 0.00183105 C83.58022795 0.16599472 170.58373855 27.69032745 230.78125 83.95703125 C232.75978207 85.7910277 234.77048718 87.55170748 236.81640625 89.30859375 C241.96683164 93.80216894 246.7917438 98.60772848 251.625 103.4375 C252.51509766 104.31535156 253.40519531 105.19320312 254.32226562 106.09765625 C260.38455151 112.14665736 265.85623967 118.49132641 271.1875 125.1875 C272.16412877 126.36127858 273.14402581 127.53235524 274.12890625 128.69921875 C287.57182729 144.87202484 298.94519467 162.84578301 309.1875 181.1875 C309.55359375 181.83074219 309.9196875 182.47398437 310.296875 183.13671875 C331.74632591 220.97536279 345.14397988 265.05025457 350.1875 308.1875 C350.28901367 308.97141113 350.39052734 309.75532227 350.49511719 310.56298828 C361.22909304 395.19886414 338.93615406 484.3994199 290.1875 554.1875 C289.32403526 555.44388433 288.46074687 556.70038989 287.59765625 557.95703125 C282.39040558 565.46228869 276.74545308 572.44469504 270.75195312 579.3359375 C269.5712284 580.73334953 268.4182997 582.1543147 267.27929688 583.5859375 C261.71856205 590.56075964 255.75463766 596.93080161 249.43164062 603.20410156 C247.81403713 604.81097307 246.20743087 606.42828494 244.6015625 608.046875 C238.11819503 614.53884899 231.39148464 620.49031625 224.1875 626.1875 C222.97866369 627.18766267 221.77250749 628.19108295 220.5703125 629.19921875 C189.94324402 654.51635977 153.65747781 673.32934098 116.1875 686.1875 C115.25599121 686.50944336 114.32448242 686.83138672 113.36474609 687.16308594 C90.15586322 695.09837153 66.42648973 699.63295236 42.1875 703.1875 C41.26662598 703.32317383 40.34575195 703.45884766 39.39697266 703.59863281 C-28.31432956 712.97912541 -100.00713017 698.13672829 -160.8125 668.1875 C-161.72612305 667.73761719 -162.63974609 667.28773438 -163.58105469 666.82421875 C-189.92596759 653.71316134 -214.91814263 637.17902807 -236.6015625 617.21484375 C-238.55232911 615.4260666 -240.54230395 613.70906881 -242.5625 612 C-251.60913169 604.11413776 -260.10585187 595.38018343 -267.8125 586.1875 C-268.59367187 585.29546875 -269.37484375 584.4034375 -270.1796875 583.484375 C-306.42521068 541.87959158 -331.0836244 491.41211218 -344.8125 438.1875 C-345.11728271 437.04958008 -345.11728271 437.04958008 -345.42822266 435.88867188 C-355.82366831 397.06209019 -357.53771634 354.50544787 -353.07714844 314.63818359 C-352.83117413 312.36042523 -352.62948785 310.08424338 -352.4453125 307.80078125 C-346.9840168 244.36797772 -318.26002613 181.57978062 -278.8125 132.1875 C-277.70841797 130.79337891 -277.70841797 130.79337891 -276.58203125 129.37109375 C-268.08700209 118.80117251 -258.80511019 109.08084737 -249.26303101 99.46279907 C-247.85405849 98.04190998 -246.44906153 96.61708212 -245.04418945 95.19213867 C-238.94525847 89.08557653 -232.58278995 83.53490959 -225.8125 78.1875 C-225.0606543 77.58172119 -224.30880859 76.97594238 -223.53417969 76.35180664 C-213.05390416 67.91655058 -202.32363529 60.15378576 -190.8125 53.1875 C-189.63228271 52.47279541 -189.63228271 52.47279541 -188.42822266 51.74365234 C-131.32160353 17.49773473 -66.51420516 -0.09309437 0 0 Z " fill="#DAB34C" transform="translate(513.8125,159.8125)"/>
<path d="M0 0 C0 127.71 0 255.42 0 387 C-20.79 387 -41.58 387 -63 387 C-63.33 284.04 -63.66 181.08 -64 75 C-69.445 78.96 -69.445 78.96 -75 83 C-78.72215502 85.61521392 -82.44882639 88.22123558 -86.1875 90.8125 C-87.18418701 91.504646 -88.18087402 92.19679199 -89.20776367 92.90991211 C-95.70747484 97.420332 -102.21644752 101.91719088 -108.74536133 106.38525391 C-113.26706308 109.48191636 -117.73981309 112.64220371 -122.1796875 115.85546875 C-124 117 -124 117 -126 117 C-126.44304773 108.62048109 -126.77910268 100.24594698 -126.98443127 91.85756397 C-127.08306988 87.96045079 -127.21633014 84.0714139 -127.43334961 80.17895508 C-128.79423702 55.12088396 -128.79423702 55.12088396 -124.20974731 48.35977173 C-119.86919356 44.13984013 -114.95563049 41.5432304 -109.44203186 39.15229797 C-105.47014732 37.2781232 -102.06969717 34.67971108 -98.5625 32.0625 C-97.1702665 31.07098444 -95.77598335 30.08233529 -94.37890625 29.09765625 C-93.67137207 28.59637207 -92.96383789 28.09508789 -92.23486328 27.57861328 C-87.41619477 24.17490883 -82.57737542 20.79984628 -77.74047852 17.42211914 C-45.73244313 -4.94923433 -51.54678985 0 0 0 Z " fill="#FEFEFE" transform="translate(553,317)"/>
<path d="M0 0 C0.66 0.33 1.32 0.66 2 1 C-3.62308942 6.71611847 -9.23838731 12.35057828 -15.33984375 17.5625 C-17.3254558 19.28180643 -19.18142399 21.10564999 -21 23 C-21.66 22.67 -22.32 22.34 -23 22 C-20.10834152 19.07916912 -17.21094858 16.16409171 -14.3125 13.25 C-13.49587891 12.425 -12.67925781 11.6 -11.83789062 10.75 C-10.64389648 9.55117187 -10.64389648 9.55117187 -9.42578125 8.328125 C-8.33390503 7.22839355 -8.33390503 7.22839355 -7.2199707 6.10644531 C-4.91552765 3.91984741 -2.50646938 1.94969025 0 0 Z " fill="#D4A52E" transform="translate(282,243)"/>
<path d="M0 0 C0 0.99 0 1.98 0 3 C-1.6875 4.5 -1.6875 4.5 -4 6 C-4.86625 6.5775 -5.7325 7.155 -6.625 7.75 C-7.800625 8.36875 -7.800625 8.36875 -9 9 C-9.66 8.67 -10.32 8.34 -11 8 C-7.37 5.36 -3.74 2.72 0 0 Z " fill="#D5A835" transform="translate(439,426)"/>
<path d="M0 0 C0.66 0.33 1.32 0.66 2 1 C-1.465 3.97 -1.465 3.97 -5 7 C-5 6.01 -5 5.02 -5 4 C-2.5 1.8125 -2.5 1.8125 0 0 Z " fill="#D7AB3D" transform="translate(282,243)"/>
<path d="M0 0 C0 0.99 0 1.98 0 3 C-2.3125 5.25 -2.3125 5.25 -5 7 C-5.99 6.67 -6.98 6.34 -8 6 C-5.36 4.02 -2.72 2.04 0 0 Z " fill="#D6A837" transform="translate(308,223)"/>
</svg>
