<?xml version="1.0" encoding="UTF-8"?>
<svg version="1.1" xmlns="http://www.w3.org/2000/svg" width="500" height="500">
<path d="M0 0 C18.25656047 -0.31933404 35.82225661 1.00034862 53.4140625 6.17089844 C54.45022705 6.47511719 55.4863916 6.77933594 56.55395508 7.09277344 C66.02295678 9.96433447 74.94525251 13.62620108 83.7890625 18.04589844 C84.4087793 18.3555957 85.02849609 18.66529297 85.66699219 18.984375 C100.10305231 26.30021035 100.10305231 26.30021035 105.7890625 31.04589844 C105.7890625 31.70589844 105.7890625 32.36589844 105.7890625 33.04589844 C106.4696875 33.27277344 107.1503125 33.49964844 107.8515625 33.73339844 C111.4879334 35.3581599 114.81735513 37.373931 117.7890625 40.04589844 C117.7890625 40.70589844 117.7890625 41.36589844 117.7890625 42.04589844 C118.37534424 42.30838379 118.96162598 42.57086914 119.56567383 42.84130859 C123.48494097 44.96469325 126.35767122 48.27809372 129.4765625 51.42089844 C130.18683594 52.13391113 130.89710938 52.84692383 131.62890625 53.58154297 C146.7890625 69.04255086 146.7890625 69.04255086 146.7890625 74.04589844 C147.4490625 74.04589844 148.1090625 74.04589844 148.7890625 74.04589844 C148.7890625 75.03589844 148.7890625 76.02589844 148.7890625 77.04589844 C149.4490625 77.04589844 150.1090625 77.04589844 150.7890625 77.04589844 C175.84917148 120.49026769 186.61794385 168.44293091 173.38085938 217.89257812 C173.18556641 218.60317383 172.99027344 219.31376953 172.7890625 220.04589844 C172.50385742 221.08472168 172.50385742 221.08472168 172.21289062 222.14453125 C169.34655341 232.23309848 165.29744197 241.64801052 160.7890625 251.10839844 C160.29083984 252.15511719 159.79261719 253.20183594 159.27929688 254.28027344 C153.1396227 266.84930498 153.1396227 266.84930498 148.7890625 272.04589844 C148.1290625 272.04589844 147.4690625 272.04589844 146.7890625 272.04589844 C146.5209375 272.95339844 146.2528125 273.86089844 145.9765625 274.79589844 C144.88774618 277.77581678 143.92515149 279.73180203 141.7890625 282.04589844 C141.1290625 282.04589844 140.4690625 282.04589844 139.7890625 282.04589844 C139.5003125 282.64402344 139.2115625 283.24214844 138.9140625 283.85839844 C137.7890625 286.04589844 137.7890625 286.04589844 135.7890625 289.04589844 C135.1290625 289.04589844 134.4690625 289.04589844 133.7890625 289.04589844 C133.53125 289.62855469 133.2734375 290.21121094 133.0078125 290.81152344 C131.69072233 293.22618874 130.23817866 294.86330021 128.2890625 296.79589844 C127.680625 297.40949219 127.0721875 298.02308594 126.4453125 298.65527344 C124.7890625 300.04589844 124.7890625 300.04589844 122.7890625 300.04589844 C122.7890625 300.70589844 122.7890625 301.36589844 122.7890625 302.04589844 C122.1290625 302.04589844 121.4690625 302.04589844 120.7890625 302.04589844 C120.7890625 302.70589844 120.7890625 303.36589844 120.7890625 304.04589844 C116.31847426 308.04589844 116.31847426 308.04589844 113.7890625 308.04589844 C113.7890625 308.70589844 113.7890625 309.36589844 113.7890625 310.04589844 C112.109375 311.33496094 112.109375 311.33496094 109.9140625 312.67089844 C109.19476563 313.11691406 108.47546875 313.56292969 107.734375 314.02246094 C105.7890625 315.04589844 105.7890625 315.04589844 103.7890625 315.04589844 C103.7890625 315.70589844 103.7890625 316.36589844 103.7890625 317.04589844 C98.49494485 321.04589844 98.49494485 321.04589844 94.7890625 321.04589844 C94.7890625 321.70589844 94.7890625 322.36589844 94.7890625 323.04589844 C57.05141311 342.11939664 18.16953804 351.36573855 -24.2109375 344.04589844 C-25.43425781 343.87445313 -26.65757812 343.70300781 -27.91796875 343.52636719 C-50.3582725 340.00230733 -72.41293673 330.67380712 -91.2109375 318.04589844 C-92.13390625 317.52640625 -93.056875 317.00691406 -94.0078125 316.47167969 C-95.09835938 315.76591797 -95.09835938 315.76591797 -96.2109375 315.04589844 C-96.2109375 314.38589844 -96.2109375 313.72589844 -96.2109375 313.04589844 C-97.231875 312.70558594 -97.231875 312.70558594 -98.2734375 312.35839844 C-101.9098084 310.73363697 -105.23923013 308.71786587 -108.2109375 306.04589844 C-108.2109375 305.38589844 -108.2109375 304.72589844 -108.2109375 304.04589844 C-108.74203125 303.83964844 -109.273125 303.63339844 -109.8203125 303.42089844 C-113.21867186 301.46628652 -115.72149678 298.82466127 -118.4609375 296.04589844 C-119.01523438 295.49933594 -119.56953125 294.95277344 -120.140625 294.38964844 C-124.2109375 290.29928514 -124.2109375 290.29928514 -124.2109375 288.04589844 C-124.8709375 288.04589844 -125.5309375 288.04589844 -126.2109375 288.04589844 C-128.12109375 285.99902344 -128.12109375 285.99902344 -130.2734375 283.29589844 C-131.34271484 281.97332031 -131.34271484 281.97332031 -132.43359375 280.62402344 C-134.0399793 278.29388176 -134.7923113 276.80239093 -135.2109375 274.04589844 C-135.8709375 274.04589844 -136.5309375 274.04589844 -137.2109375 274.04589844 C-140.17920579 269.91401323 -142.66272118 265.44684728 -145.2109375 261.04589844 C-145.71898926 260.17989014 -145.71898926 260.17989014 -146.23730469 259.29638672 C-166.41410528 224.58478021 -173.18870547 182.52769947 -166.2109375 143.04589844 C-166.02789062 141.87285156 -165.84484375 140.69980469 -165.65625 139.49121094 C-161.78083261 117.24344443 -152.85241858 95.7133705 -140.2109375 77.04589844 C-139.69273437 76.12550781 -139.17453125 75.20511719 -138.640625 74.25683594 C-138.16882813 73.52722656 -137.69703125 72.79761719 -137.2109375 72.04589844 C-136.5509375 72.04589844 -135.8909375 72.04589844 -135.2109375 72.04589844 C-134.97375 71.34078125 -134.7365625 70.63566406 -134.4921875 69.90917969 C-132.98591577 66.54302976 -131.05509233 64.07606671 -128.7109375 61.23339844 C-127.916875 60.25757813 -127.1228125 59.28175781 -126.3046875 58.27636719 C-125.61375 57.5403125 -124.9228125 56.80425781 -124.2109375 56.04589844 C-123.5509375 56.04589844 -122.8909375 56.04589844 -122.2109375 56.04589844 C-122.2109375 55.38589844 -122.2109375 54.72589844 -122.2109375 54.04589844 C-121.5509375 54.04589844 -120.8909375 54.04589844 -120.2109375 54.04589844 C-120.2109375 53.38589844 -120.2109375 52.72589844 -120.2109375 52.04589844 C-119.5509375 52.04589844 -118.8909375 52.04589844 -118.2109375 52.04589844 C-118.2109375 51.38589844 -118.2109375 50.72589844 -118.2109375 50.04589844 C-117.5509375 50.04589844 -116.8909375 50.04589844 -116.2109375 50.04589844 C-116.2109375 49.38589844 -116.2109375 48.72589844 -116.2109375 48.04589844 C-115.5509375 48.04589844 -114.8909375 48.04589844 -114.2109375 48.04589844 C-114.2109375 47.38589844 -114.2109375 46.72589844 -114.2109375 46.04589844 C-109.74034926 42.04589844 -109.74034926 42.04589844 -107.2109375 42.04589844 C-107.2109375 41.38589844 -107.2109375 40.72589844 -107.2109375 40.04589844 C-104.9453125 38.13574219 -104.9453125 38.13574219 -101.9609375 35.98339844 C-100.98640625 35.27054688 -100.011875 34.55769531 -99.0078125 33.82324219 C-96.59780963 32.29174595 -94.98964807 31.47593698 -92.2109375 31.04589844 C-92.2109375 30.38589844 -92.2109375 29.72589844 -92.2109375 29.04589844 C-66.9793822 9.62236153 -31.30901454 0.64996629 0 0 Z M-37.65234375 93.10839844 C-45.37823093 102.71250881 -47.86530709 111.93522478 -49.2109375 124.04589844 C-40.3009375 124.04589844 -31.3909375 124.04589844 -22.2109375 124.04589844 C-20.2309375 120.08589844 -18.2509375 116.12589844 -16.2109375 112.04589844 C-10.5153164 106.25035416 -5.9272586 103.7994396 2.23632812 103.67480469 C3.01685547 103.67351562 3.79738281 103.67222656 4.6015625 103.67089844 C5.37048828 103.64640625 6.13941406 103.62191406 6.93164062 103.59667969 C12.64965592 103.56772771 17.03371979 104.805687 21.7890625 108.04589844 C24.1640625 110.79589844 24.1640625 110.79589844 25.7890625 113.04589844 C26.4490625 113.04589844 27.1090625 113.04589844 27.7890625 113.04589844 C31.94319738 124.44504238 31.90187354 133.040008 26.7890625 144.04589844 C26.2940625 145.53089844 26.2940625 145.53089844 25.7890625 147.04589844 C25.1290625 147.04589844 24.4690625 147.04589844 23.7890625 147.04589844 C23.7890625 147.70589844 23.7890625 148.36589844 23.7890625 149.04589844 C23.1290625 149.04589844 22.4690625 149.04589844 21.7890625 149.04589844 C21.7890625 149.70589844 21.7890625 150.36589844 21.7890625 151.04589844 C15.0033227 153.88357145 8.82130386 154.48969069 1.55493164 154.75463867 C-2.4581819 154.80898964 -2.4581819 154.80898964 -6.2109375 156.04589844 C-6.2109375 163.63589844 -6.2109375 171.22589844 -6.2109375 179.04589844 C-2.529375 179.20058594 -2.529375 179.20058594 1.2265625 179.35839844 C11.42071687 179.94373822 19.11614604 181.92974689 26.7890625 189.04589844 C33.29143032 196.9171858 33.58627263 206.23408142 32.7890625 216.04589844 C31.6695416 221.14503012 29.4353944 225.28907163 25.7890625 229.04589844 C23.5390625 230.35839844 23.5390625 230.35839844 21.7890625 231.04589844 C21.7890625 231.70589844 21.7890625 232.36589844 21.7890625 233.04589844 C12.56339852 235.15973989 2.09421217 235.80158705 -7.2109375 234.04589844 C-8.2009375 233.86027344 -9.1909375 233.67464844 -10.2109375 233.48339844 C-11.2009375 233.26683594 -11.2009375 233.26683594 -12.2109375 233.04589844 C-12.2109375 232.38589844 -12.2109375 231.72589844 -12.2109375 231.04589844 C-12.9121875 230.69527344 -13.6134375 230.34464844 -14.3359375 229.98339844 C-20.8066944 225.62267096 -23.12336821 219.35239094 -25.2109375 212.04589844 C-34.4509375 212.04589844 -43.6909375 212.04589844 -53.2109375 212.04589844 C-52.1051186 226.42154418 -49.66185165 237.21012881 -38.95703125 247.13574219 C-23.55391885 260.08014181 -5.83425908 263.2599729 13.7890625 262.04589844 C24.37075703 260.61679173 35.27876611 257.76455348 43.7890625 251.04589844 C43.7890625 250.38589844 43.7890625 249.72589844 43.7890625 249.04589844 C44.38074219 248.78292969 44.97242188 248.51996094 45.58203125 248.24902344 C54.53870516 243.36644722 59.31105833 231.81106911 62.671875 222.63574219 C66.0773901 209.80510431 63.99110761 195.91468482 58.0390625 184.23339844 C53.4208855 176.35533179 47.96974553 171.79795303 40.0234375 167.40527344 C37.9308263 166.13214634 36.42569464 164.85257028 34.7890625 163.04589844 C35.7790625 162.73652344 35.7790625 162.73652344 36.7890625 162.42089844 C46.35788944 158.03518609 53.19451452 150.42880519 57.1640625 140.73339844 C61.4809033 129.07792827 60.92062539 117.38852983 55.7890625 106.04589844 C53.37470245 101.5312915 50.62631554 97.301778 47.7890625 93.04589844 C47.1290625 93.04589844 46.4690625 93.04589844 45.7890625 93.04589844 C45.7890625 92.38589844 45.7890625 91.72589844 45.7890625 91.04589844 C45.1290625 91.04589844 44.4690625 91.04589844 43.7890625 91.04589844 C43.7890625 90.38589844 43.7890625 89.72589844 43.7890625 89.04589844 C21.09208428 70.9061875 -17.49766044 71.45540534 -37.65234375 93.10839844 Z " fill="#DAB44F" transform="translate(245.2109375,76.9541015625)"/>
<path d="M0 0 C1.32 0.66 2.64 1.32 4 2 C2.71186658 2.83878455 1.41936744 3.67086783 0.125 4.5 C-0.59429687 4.9640625 -1.31359375 5.428125 -2.0546875 5.90625 C-4 7 -4 7 -6 7 C-6 7.66 -6 8.32 -6 9 C-6.99 9.33 -7.98 9.66 -9 10 C-9.33 7.69 -9.66 5.38 -10 3 C-8.68 3 -7.36 3 -6 3 C-6 2.34 -6 1.68 -6 1 C-3.03 1.495 -3.03 1.495 0 2 C0 1.34 0 0.68 0 0 Z " fill="#DBBB69" transform="translate(355,385)"/>
<path d="M0 0 C0.66 0.33 1.32 0.66 2 1 C1.67 1.66 1.34 2.32 1 3 C0.34 3 -0.32 3 -1 3 C-1 3.66 -1 4.32 -1 5 C0.11375 4.690625 0.11375 4.690625 1.25 4.375 C4.32330841 3.95591249 5.42786866 4.38050989 8 6 C7.34 6 6.68 6 6 6 C6.66 7.98 7.32 9.96 8 12 C5.03216871 10.54331217 2.13584687 8.98767914 -0.75 7.375 C-1.54921875 6.92898437 -2.3484375 6.48296875 -3.171875 6.0234375 C-3.77515625 5.68570313 -4.3784375 5.34796875 -5 5 C-5 4.34 -5 3.68 -5 3 C-2.625 1.3125 -2.625 1.3125 0 0 Z " fill="#DEBB6D" transform="translate(285,237)"/>
<path d="M0 0 C0.81339844 0.13277344 1.62679687 0.26554687 2.46484375 0.40234375 C11.9739328 1.86774892 21.39641932 2.55818878 31 3 C31 3.33 31 3.66 31 4 C26.58338849 4.05804281 22.16687504 4.09361104 17.75 4.125 C16.49574219 4.14175781 15.24148437 4.15851563 13.94921875 4.17578125 C12.74394531 4.18222656 11.53867188 4.18867188 10.296875 4.1953125 C8.63156738 4.21102295 8.63156738 4.21102295 6.93261719 4.22705078 C4.06049058 4.00468334 2.42776265 3.49281575 0 2 C0 1.34 0 0.68 0 0 Z " fill="#D6B86F" transform="translate(227,336)"/>
<path d="M0 0 C1.890625 0.67578125 1.890625 0.67578125 4 2 C7.83893544 10.40841456 7.33261515 19.98243363 7 29 C6.67 29 6.34 29 6 29 C5.96132813 27.80117187 5.96132813 27.80117187 5.921875 26.578125 C5.551997 19.41594192 4.42140622 13.28888378 1.9375 6.55859375 C1.13867651 4.37847132 0.51083478 2.26150812 0 0 Z " fill="#DBC07A" transform="translate(299,179)"/>
<path d="M0 0 C0.81210938 0.56847656 0.81210938 0.56847656 1.640625 1.1484375 C0.320625 1.1484375 -0.999375 1.1484375 -2.359375 1.1484375 C-2.6275 1.7465625 -2.895625 2.3446875 -3.171875 2.9609375 C-4.34430967 5.12068558 -5.55306782 6.50634006 -7.359375 8.1484375 C-7.359375 7.4884375 -7.359375 6.8284375 -7.359375 6.1484375 C-9.339375 6.4784375 -11.319375 6.8084375 -13.359375 7.1484375 C-13.359375 6.1584375 -13.359375 5.1684375 -13.359375 4.1484375 C-11.61908198 3.25428695 -9.8666735 2.38368572 -8.109375 1.5234375 C-7.13484375 1.03617187 -6.1603125 0.54890625 -5.15625 0.046875 C-2.359375 -0.8515625 -2.359375 -0.8515625 0 0 Z " fill="#D7B560" transform="translate(179.359375,93.8515625)"/>
<path d="M0 0 C0.66 0 1.32 0 2 0 C2 0.66 2 1.32 2 2 C3.32 2 4.64 2 6 2 C6 2.66 6 3.32 6 4 C7.98 3.67 9.96 3.34 12 3 C11.67 3.99 11.34 4.98 11 6 C13.31 6.33 15.62 6.66 18 7 C17.67 7.66 17.34 8.32 17 9 C12.66695924 8.35534798 9.13327935 6.81074878 5.1875 4.9375 C4.02605469 4.38964844 2.86460937 3.84179688 1.66796875 3.27734375 C0.78753906 2.85582031 -0.09289062 2.43429687 -1 2 C-0.67 1.34 -0.34 0.68 0 0 Z " fill="#D9B868" transform="translate(173,403)"/>
<path d="M0 0 C0.61875 0.66 1.2375 1.32 1.875 2 C3.75637427 4.2284549 3.75637427 4.2284549 6 4 C5.67 5.98 5.34 7.96 5 10 C5.66 10.33 6.32 10.66 7 11 C6.01 11 5.02 11 4 11 C3.67 10.01 3.34 9.02 3 8 C2.34 8 1.68 8 1 8 C1 7.34 1 6.68 1 6 C0.34 6 -0.32 6 -1 6 C-1 5.34 -1 4.68 -1 4 C-1.99 3.67 -2.98 3.34 -4 3 C-2.68 2.67 -1.36 2.34 0 2 C0 1.34 0 0.68 0 0 Z " fill="#D9BA66" transform="translate(290,162)"/>
<path d="M0 0 C0.66 0.33 1.32 0.66 2 1 C2 6.61 2 12.22 2 18 C1.01 18.33 0.02 18.66 -1 19 C-0.67 12.73 -0.34 6.46 0 0 Z " fill="#D7B568" transform="translate(309,277)"/>
<path d="M0 0 C0.66 0.33 1.32 0.66 2 1 C1.34 2.32 0.68 3.64 0 5 C-0.66 5 -1.32 5 -2 5 C-2.061875 5.598125 -2.12375 6.19625 -2.1875 6.8125 C-3 9 -3 9 -5.375 10.8125 C-8 12 -8 12 -11 11 C-10.45730469 10.54109375 -9.91460937 10.0821875 -9.35546875 9.609375 C-8.64003906 8.99578125 -7.92460937 8.3821875 -7.1875 7.75 C-6.47980469 7.14671875 -5.77210938 6.5434375 -5.04296875 5.921875 C-3.08110329 4.07629602 -1.54330375 2.20054668 0 0 Z " fill="#DBBC70" transform="translate(300,315)"/>
<path d="M0 0 C1.40980321 4.22940963 -0.07526585 6.08179119 -2 10 C-3.6875 12.4375 -3.6875 12.4375 -5 14 C-5.74737188 8.02102497 -3.3231898 4.67620279 0 0 Z " fill="#D4BA6D" transform="translate(229,188)"/>
<path d="M0 0 C0.99 0.33 1.98 0.66 3 1 C1.8758824 2.29243468 0.75067408 3.58392075 -0.375 4.875 C-1.00148437 5.59429687 -1.62796875 6.31359375 -2.2734375 7.0546875 C-3.47426834 8.4076598 -4.7208345 9.7208345 -6 11 C-5.67 8.36 -5.34 5.72 -5 3 C-4.01 3.33 -3.02 3.66 -2 4 C-1.67 3.01 -1.34 2.02 -1 1 C-0.67 0.67 -0.34 0.34 0 0 Z " fill="#D9BD75" transform="translate(208,167)"/>
<path d="M0 0 C2.97 0.495 2.97 0.495 6 1 C6 1.33 6 1.66 6 2 C6.78375 2.061875 7.5675 2.12375 8.375 2.1875 C9.24125 2.455625 10.1075 2.72375 11 3 C12.3125 5.5625 12.3125 5.5625 13 8 C8.27626146 6.37621488 4.05818166 3.89006982 0 1 C0 0.67 0 0.34 0 0 Z " fill="#E0C989" transform="translate(154,394)"/>
<path d="M0 0 C0.66 0 1.32 0 2 0 C1.84518205 2.70931419 1.51827919 4.46584039 -0.40234375 6.4453125 C-1.89771708 7.67679642 -3.4462924 8.8429837 -5 10 C-5 8.35 -5 6.7 -5 5 C-4.34 4.67 -3.68 4.34 -3 4 C-2.34 4.33 -1.68 4.66 -1 5 C-0.67 3.35 -0.34 1.7 0 0 Z " fill="#DDBB6A" transform="translate(375,366)"/>
<path d="M0 0 C0.99 0.33 1.98 0.66 3 1 C3 1.66 3 2.32 3 3 C3.7425 3.2475 4.485 3.495 5.25 3.75 C8.20124062 5.09147301 9.84814974 6.60905526 12 9 C9.8125 9.3125 9.8125 9.3125 7 9 C3.83471431 6.34999338 1.56353316 3.83776322 0 0 Z " fill="#D4B76B" transform="translate(348,107)"/>
<path d="M0 0 C-0.99 1.485 -0.99 1.485 -2 3 C-2.66 3 -3.32 3 -4 3 C-4 2.34 -4 1.68 -4 1 C-9.28 1 -14.56 1 -20 1 C-20 0.67 -20 0.34 -20 0 C-17.41703983 -0.19522373 -14.83395921 -0.38144403 -12.25 -0.5625 C-11.52039063 -0.61857422 -10.79078125 -0.67464844 -10.0390625 -0.73242188 C-6.45046349 -0.97709908 -3.44972775 -0.99666259 0 0 Z " fill="#CEA746" transform="translate(262,340)"/>
<path d="M0 0 C0.99 0.33 1.98 0.66 3 1 C2.67 1.66 2.34 2.32 2 3 C1.34 3 0.68 3 0 3 C0 3.66 0 4.32 0 5 C-0.66 5 -1.32 5 -2 5 C-2 5.66 -2 6.32 -2 7 C-2.99 7.33 -3.98 7.66 -5 8 C-5 6.35 -5 4.7 -5 3 C-4.34 3 -3.68 3 -3 3 C-1.37485532 1.54166642 -1.37485532 1.54166642 0 0 Z " fill="#D9BD73" transform="translate(269,221)"/>
<path d="M0 0 C0.66 0.99 1.32 1.98 2 3 C0.02 3.99 0.02 3.99 -2 5 C-2 8.3 -2 11.6 -2 15 C-2.33 15 -2.66 15 -3 15 C-3 10.38 -3 5.76 -3 1 C-2.01 0.67 -1.02 0.34 0 0 Z " fill="#D4AC4C" transform="translate(309,193)"/>
<path d="M0 0 C1.32 0.33 2.64 0.66 4 1 C3.375 2.9375 3.375 2.9375 2 5 C-1.125 5.75 -1.125 5.75 -4 6 C-4 5.34 -4 4.68 -4 4 C-3.34 4 -2.68 4 -2 4 C-2 3.34 -2 2.68 -2 2 C-1.34 2 -0.68 2 0 2 C0 1.34 0 0.68 0 0 Z " fill="#DBBB6C" transform="translate(131,123)"/>
<path d="M0 0 C5.78461538 4.43076923 5.78461538 4.43076923 6.875 7.3125 C6.936875 8.1478125 6.936875 8.1478125 7 9 C5.35 8.67 3.7 8.34 2 8 C2 6.35 2 4.7 2 3 C1.34 3 0.68 3 0 3 C0 2.01 0 1.02 0 0 Z " fill="#D9BA6F" transform="translate(269,263)"/>
<path d="M0 0 C0.33 0 0.66 0 1 0 C0.88601335 1.62580966 0.75844341 3.25067157 0.625 4.875 C0.55539062 5.77992188 0.48578125 6.68484375 0.4140625 7.6171875 C0 10 0 10 -2 12 C-2.99 12.33 -3.98 12.66 -5 13 C-4.731875 12.34 -4.46375 11.68 -4.1875 11 C-2.74294953 7.35060933 -1.37128822 3.67754567 0 0 Z " fill="#D8BF6E" transform="translate(303,213)"/>
<path d="M0 0 C0.66 0.33 1.32 0.66 2 1 C1.67 1.99 1.34 2.98 1 4 C-0.65438613 4.69658363 -2.32254318 5.36096883 -4 6 C-5.77277259 7.52007842 -5.77277259 7.52007842 -7 9 C-7.66 8.34 -8.32 7.68 -9 7 C-6.03 4.69 -3.06 2.38 0 0 Z " fill="#DFC683" transform="translate(147,110)"/>
<path d="M0 0 C0.66 0.99 1.32 1.98 2 3 C1.5390625 5.26171875 1.5390625 5.26171875 0.625 7.6875 C0.32851562 8.49574219 0.03203125 9.30398437 -0.2734375 10.13671875 C-0.51320313 10.75160156 -0.75296875 11.36648437 -1 12 C-1.99 12 -2.98 12 -4 12 C-3.33501617 7.61110675 -1.81242323 4.0188515 0 0 Z " fill="#DAC171" transform="translate(92,177)"/>
<path d="M0 0 C0.66 0 1.32 0 2 0 C5 4.38461538 5 4.38461538 5 7 C4.01 7.33 3.02 7.66 2 8 C0 6 0 6 -0.125 2.875 C-0.08375 1.92625 -0.0425 0.9775 0 0 Z " fill="#DAB76C" transform="translate(395,156)"/>
<path d="M0 0 C1.65 0.33 3.3 0.66 5 1 C4.34 2.65 3.68 4.3 3 6 C1.68 5.67 0.36 5.34 -1 5 C-0.67 3.35 -0.34 1.7 0 0 Z " fill="#DFBA6C" transform="translate(386,350)"/>
<path d="M0 0 C0.66 0.99 1.32 1.98 2 3 C1.34 4.32 0.68 5.64 0 7 C0.66 7.33 1.32 7.66 2 8 C0.35 8.66 -1.3 9.32 -3 10 C-2.39009109 6.44219804 -1.4216319 3.3171411 0 0 Z " fill="#D8B766" transform="translate(305,304)"/>
<path d="M0 0 C0.33 1.32 0.66 2.64 1 4 C1.66 4 2.32 4 3 4 C3 4.66 3 5.32 3 6 C3.66 6.33 4.32 6.66 5 7 C4.01 7.495 4.01 7.495 3 8 C2.34 7.67 1.68 7.34 1 7 C1 6.34 1 5.68 1 5 C0.01 4.67 -0.98 4.34 -2 4 C-2 3.01 -2 2.02 -2 1 C-1.34 0.67 -0.68 0.34 0 0 Z " fill="#DABF77" transform="translate(136,376)"/>
<path d="M0 0 C1.32 0 2.64 0 4 0 C4 0.66 4 1.32 4 2 C4.66 2 5.32 2 6 2 C6.66 3.98 7.32 5.96 8 8 C7.34 8 6.68 8 6 8 C4.4921875 6.25 4.4921875 6.25 2.875 4 C2.33617188 3.2575 1.79734375 2.515 1.2421875 1.75 C0.62730469 0.88375 0.62730469 0.88375 0 0 Z " fill="#DDC381" transform="translate(113,357)"/>
<path d="M0 0 C2.64465038 3.1254959 3.84414715 6.08788267 5 10 C4.01 10 3.02 10 2 10 C0.68373308 6.38026598 0 3.90432869 0 0 Z " fill="#DEC17B" transform="translate(404,170)"/>
<path d="M0 0 C-2 2 -2 2 -4.3828125 2.1953125 C-5.28773438 2.17210938 -6.19265625 2.14890625 -7.125 2.125 C-8.49011719 2.09792969 -8.49011719 2.09792969 -9.8828125 2.0703125 C-10.58148438 2.04710938 -11.28015625 2.02390625 -12 2 C-7.56043724 -0.29632557 -4.94312365 -1.20238143 0 0 Z " fill="#DCBE6F" transform="translate(212,83)"/>
<path d="M0 0 C0.66 0.33 1.32 0.66 2 1 C1.67 1.66 1.34 2.32 1 3 C0.34 3 -0.32 3 -1 3 C-1 3.99 -1 4.98 -1 6 C-2.32 5.67 -3.64 5.34 -5 5 C-5 4.34 -5 3.68 -5 3 C-2.625 1.3125 -2.625 1.3125 0 0 Z " fill="#DAC583" transform="translate(285,237)"/>
<path d="M0 0 C1.875 0.25 1.875 0.25 4 1 C5.25 3.0625 5.25 3.0625 6 5 C4.35 4.67 2.7 4.34 1 4 C0.67 2.68 0.34 1.36 0 0 Z " fill="#D5B666" transform="translate(265,185)"/>
<path d="M0 0 C0.99 0.33 1.98 0.66 3 1 C4.1875 4.0625 4.1875 4.0625 5 7 C4.01 7.495 4.01 7.495 3 8 C0 2.25 0 2.25 0 0 Z " fill="#D7C372" transform="translate(92,321)"/>
<path d="M0 0 C1.32 0 2.64 0 4 0 C4 1.32 4 2.64 4 4 C4.66 4 5.32 4 6 4 C5.67 4.99 5.34 5.98 5 7 C0 1.125 0 1.125 0 0 Z " fill="#D5B970" transform="translate(224,300)"/>
<path d="M0 0 C6.75 0.75 6.75 0.75 9 3 C6.36 3 3.72 3 1 3 C0.67 2.01 0.34 1.02 0 0 Z " fill="#DBC17C" transform="translate(255,257)"/>
<path d="M0 0 C0.33 0.99 0.66 1.98 1 3 C1.99 3.33 2.98 3.66 4 4 C3.67 4.66 3.34 5.32 3 6 C0.03 5.505 0.03 5.505 -3 5 C-2.01 3.35 -1.02 1.7 0 0 Z " fill="#DDBD6C" transform="translate(115,140)"/>
<path d="M0 0 C-0.66 1.32 -1.32 2.64 -2 4 C-4.31 3.67 -6.62 3.34 -9 3 C-3 0 -3 0 0 0 Z " fill="#DDBD75" transform="translate(197,86)"/>
<path d="M0 0 C0.66 1.98 1.32 3.96 2 6 C1.34 6 0.68 6 0 6 C0 5.34 0 4.68 0 4 C-2.475 3.01 -2.475 3.01 -5 2 C-2 0 -2 0 0 0 Z " fill="#D9C175" transform="translate(149,386)"/>
</svg>
