<?xml version="1.0" encoding="UTF-8"?>
<svg version="1.1" xmlns="http://www.w3.org/2000/svg" width="1024" height="1024">
<path d="M0 0 C337.92 0 675.84 0 1024 0 C1024 337.92 1024 675.84 1024 1024 C686.08 1024 348.16 1024 0 1024 C0 686.08 0 348.16 0 0 Z " fill="#F7F8FA" transform="translate(0,0)"/>
<path d="M0 0 C3.14166033 -0.00217583 6.28296247 -0.02035912 9.42456055 -0.03930664 C22.27926341 -0.07551583 34.85569279 0.58917218 47.61010742 2.18530273 C48.77872314 2.32605225 49.94733887 2.46680176 51.15136719 2.61181641 C118.23405049 11.17657 182.9736164 40.33199661 233.61010742 85.18530273 C234.50858398 85.97291992 235.40706055 86.76053711 236.33276367 87.57202148 C243.1995957 93.72416214 249.75166005 100.19527437 256.29760742 106.68530273 C257.61631836 107.98443604 257.61631836 107.98443604 258.96166992 109.30981445 C264.94721235 115.28748116 270.36075223 121.55630533 275.61010742 128.18530273 C276.205896 128.92184082 276.80168457 129.65837891 277.41552734 130.41723633 C318.53226767 181.27356805 344.26154792 243.40470812 352.61010742 308.18530273 C352.71452148 308.96518555 352.81893555 309.74506836 352.92651367 310.54858398 C363.63609714 394.46291522 341.7036302 485.28789333 292.61010742 554.18530273 C291.81950928 555.29832764 291.81950928 555.29832764 291.01293945 556.43383789 C283.36900773 567.1353423 275.38318692 577.38910573 266.61010742 587.18530273 C265.75416992 588.15209961 264.89823242 589.11889648 264.01635742 590.11499023 C252.72948406 602.65973804 240.96221038 614.83555812 227.61010742 625.18530273 C226.42557081 626.14477739 225.24343847 627.10722499 224.06323242 628.07202148 C216.17139765 634.50806114 208.15044902 640.6227285 199.61010742 646.18530273 C198.89209961 646.65516602 198.1740918 647.1250293 197.43432617 647.60913086 C153.57300947 676.08625439 103.62077639 695.55147113 51.61010742 702.18530273 C50.52947021 702.32959717 50.52947021 702.32959717 49.42700195 702.47680664 C-43.17747218 714.77309365 -138.72170479 690.18137403 -213.56176758 634.10717773 C-216.90116881 631.54158399 -220.15547516 628.88133555 -223.38989258 626.18530273 C-224.45753825 625.31022628 -225.52524734 624.43522719 -226.59301758 623.56030273 C-244.12337662 609.07259967 -260.37659615 593.12514363 -274.38989258 575.18530273 C-274.86749023 574.58024902 -275.34508789 573.97519531 -275.8371582 573.35180664 C-307.54748628 533.10180428 -329.60350475 487.75604353 -342.38989258 438.18530273 C-342.69467529 437.04738281 -342.69467529 437.04738281 -343.00561523 435.88647461 C-346.42622693 423.11062414 -348.18760537 410.07639522 -349.99902344 396.99047852 C-350.30740559 394.77729245 -350.63433599 392.56669096 -350.96801758 390.35717773 C-357.50192445 341.23187794 -351.34905991 287.92029388 -335.38989258 241.18530273 C-334.82890721 239.47341981 -334.26900779 237.76118063 -333.71020508 236.04858398 C-329.72755555 224.05217905 -324.82452338 212.58985828 -319.38989258 201.18530273 C-318.7634082 199.85861572 -318.7634082 199.85861572 -318.12426758 198.50512695 C-303.54776114 167.82092232 -284.36639263 140.16160927 -261.38989258 115.18530273 C-259.88924133 113.49838184 -258.38925065 111.81087312 -256.88989258 110.12280273 C-250.85281207 103.42426819 -244.56729353 97.0318161 -237.71020508 91.16967773 C-235.94001224 89.65577544 -234.18804476 88.1205357 -232.44458008 86.57592773 C-208.77734037 65.71899643 -181.89375388 48.84273475 -153.49584961 35.19897461 C-152.09511228 34.52475001 -150.69760336 33.84377554 -149.3034668 33.15600586 C-124.75637358 21.10408443 -98.09701434 12.78972805 -71.38989258 7.18530273 C-70.03791661 6.88245516 -68.68630655 6.57796566 -67.33520508 6.27124023 C-45.14438305 1.46403809 -22.64243923 -0.00174859 0 0 Z " fill="#DAB34B" transform="translate(511.389892578125,159.814697265625)"/>
<path d="M0 0 C2.32977967 0.02365878 4.6584109 0.02052384 6.98828125 0.01391602 C36.2702604 0.0675329 64.29372929 8.54382128 86.33203125 28.33618164 C87.0384375 28.96008789 87.74484375 29.58399414 88.47265625 30.22680664 C105.78919975 46.45254425 116.43128634 71.57546436 117.453125 95.12719727 C118.67437208 134.28037881 108.55810134 169.20577745 81.33203125 198.23071289 C80.67203125 198.92551758 80.01203125 199.62032227 79.33203125 200.33618164 C78.22015108 201.57932544 77.11575672 202.82921157 76.01953125 204.08618164 C75.46136719 204.72555664 74.90320313 205.36493164 74.328125 206.02368164 C72.75063641 207.85122224 71.18152727 209.68492456 69.6171875 211.52368164 C64.7162892 217.27882817 59.79024854 222.9852864 54.64453125 228.52368164 C51.25678752 232.1703154 48.01305329 235.89235565 44.89453125 239.77368164 C41.52856661 243.95855717 38.00025296 247.91930595 34.33203125 251.83618164 C29.85287298 256.61934563 25.64751703 261.54433112 21.54296875 266.65649414 C19.22268175 269.46871479 16.80131991 272.15415427 14.33203125 274.83618164 C11.05784702 278.39288408 7.92560692 282.00779975 4.89453125 285.77368164 C1.67259377 289.76842953 -1.67458721 293.5816579 -5.16796875 297.33618164 C-9.44320819 301.93234261 -13.4827527 306.6633521 -17.40234375 311.57055664 C-20.40274343 315.23311349 -23.5501931 318.77300947 -26.66796875 322.33618164 C20.85203125 322.33618164 68.37203125 322.33618164 117.33203125 322.33618164 C117.33203125 341.80618164 117.33203125 361.27618164 117.33203125 381.33618164 C42.09203125 381.33618164 -33.14796875 381.33618164 -110.66796875 381.33618164 C-110.66796875 326.33618164 -110.66796875 326.33618164 -101.66796875 316.33618164 C-100.21219255 314.58034207 -98.76992086 312.8129782 -97.35546875 311.02368164 C-93.46540944 306.21032727 -89.33925041 301.68856714 -85.11230469 297.17504883 C-81.18918282 292.96225023 -77.54900461 288.57222812 -73.9453125 284.08227539 C-71.00719424 280.53939865 -67.88565697 277.18176392 -64.75146484 273.81420898 C-61.78066809 270.60301291 -58.96828554 267.30981323 -56.23046875 263.89868164 C-52.38686818 259.11996536 -48.29836711 254.64460477 -44.10961914 250.17236328 C-40.9924293 246.82518837 -38.03223077 243.40613141 -35.16796875 239.83618164 C-31.34738385 235.07429322 -27.27729072 230.6218257 -23.10717773 226.16992188 C-20.01016791 222.84463364 -17.07175191 219.44898225 -14.23046875 215.89868164 C-9.6448458 210.18544649 -4.67051333 204.88416227 0.3359375 199.54321289 C4.71319839 194.87224844 8.88346015 190.03870623 13.03125 185.16430664 C14.04799819 183.9714458 15.06493148 182.77874272 16.08203125 181.58618164 C16.8553479 180.67739258 16.8553479 180.67739258 17.64428711 179.75024414 C20.55046383 176.35300351 23.51692463 173.03796938 26.58764648 169.7890625 C44.16231728 151.14280365 57.07776985 128.94151797 56.60546875 102.69946289 C56.08915453 90.89324813 50.17397172 79.609804 41.64453125 71.52368164 C28.61305379 61.09349719 12.68940084 58.05742962 -3.66796875 59.33618164 C-16.88982947 61.27819301 -29.17831536 67.11086075 -37.23046875 77.89868164 C-45.5027681 90.38930583 -46.42140943 100.61026641 -48.66796875 116.33618164 C-68.13796875 116.33618164 -87.60796875 116.33618164 -107.66796875 116.33618164 C-107.66796875 84.03978774 -102.46043223 57.52919188 -80.66796875 33.33618164 C-79.97058594 32.55629883 -79.27320313 31.77641602 -78.5546875 30.97290039 C-65.51375929 17.16906596 -47.88322387 8.17853448 -29.66796875 3.33618164 C-28.6934375 3.07361572 -27.71890625 2.8110498 -26.71484375 2.54052734 C-17.71440419 0.34939211 -9.224791 -0.09980604 0 0 Z " fill="#FEFEFE" transform="translate(507.66796875,312.663818359375)"/>
<path d="M0 0 C0.33 0.66 0.66 1.32 1 2 C-0.07826365 3.27513763 -1.16285519 4.54492569 -2.25 5.8125 C-2.85328125 6.52019531 -3.4565625 7.22789062 -4.078125 7.95703125 C-5.92370398 9.91889671 -7.79945332 11.45669625 -10 13 C-8.48446596 9.52224821 -6.4226544 7.0442016 -3.875 4.25 C-3.15054687 3.45078125 -2.42609375 2.6515625 -1.6796875 1.828125 C-0.84824219 0.92320312 -0.84824219 0.92320312 0 0 Z " fill="#D5AA37" transform="translate(513,597)"/>
<path d="M0 0 C0 3.72038015 -0.90324391 4.44902879 -3.3125 7.1875 C-3.92738281 7.90292969 -4.54226563 8.61835937 -5.17578125 9.35546875 C-7 11 -7 11 -10 11 C-6.7 7.37 -3.4 3.74 0 0 Z " fill="#D6AA36" transform="translate(584,516)"/>
<path d="M0 0 C0 4.38968456 -2.12805101 5.76905739 -5 9 C-5.66 8.67 -6.32 8.34 -7 8 C-4.69 5.36 -2.38 2.72 0 0 Z " fill="#D6AA39" transform="translate(569,533)"/>
</svg>
