<?xml version="1.0" encoding="UTF-8"?>
<svg version="1.1" xmlns="http://www.w3.org/2000/svg" width="500" height="500">
<path d="M0 0 C0.96099609 0.01087646 0.96099609 0.01087646 1.94140625 0.02197266 C32.53052504 0.45004619 67.17633769 10.6089041 92 29 C92 29.66 92 30.32 92 31 C92.69480469 31.2371875 93.38960938 31.474375 94.10546875 31.71875 C97.52198185 33.2310527 100.35756671 35.25238367 103.3125 37.5 C103.86228516 37.90347656 104.41207031 38.30695313 104.97851562 38.72265625 C106.36007451 39.76268691 107.68556298 40.87633454 109 42 C109 42.66 109 43.32 109 44 C109.56203125 44.2371875 110.1240625 44.474375 110.703125 44.71875 C113.51894042 46.28947697 115.47955416 48.21471464 117.75 50.5 C118.54921875 51.2940625 119.3484375 52.088125 120.171875 52.90625 C122 55 122 55 122 57 C122.66 57 123.32 57 124 57 C125.59236985 58.86271623 127.05356647 60.71656103 128.5 62.6875 C128.90347656 63.21794922 129.30695313 63.74839844 129.72265625 64.29492188 C132.03158831 67.40016879 133.74943737 70.33666707 135 74 C135.66 74 136.32 74 137 74 C141 79.29411765 141 79.29411765 141 83 C141.66 83 142.32 83 143 83 C162.18241057 120.48846735 172.72228141 160.70497597 165 203 C164.88172852 203.67691895 164.76345703 204.35383789 164.64160156 205.05126953 C160.56631082 227.77645951 151.73317357 253.85671848 137 272 C136.34 272 135.68 272 135 272 C134.7628125 272.69480469 134.525625 273.38960938 134.28125 274.10546875 C132.7689473 277.52198185 130.74761633 280.35756671 128.5 283.3125 C128.09652344 283.86228516 127.69304687 284.41207031 127.27734375 284.97851562 C126.23731309 286.36007451 125.12366546 287.68556298 124 289 C123.34 289 122.68 289 122 289 C122 289.66 122 290.32 122 291 C121.34 291 120.68 291 120 291 C119.6596875 291.8353125 119.6596875 291.8353125 119.3125 292.6875 C117.62449964 295.66159588 115.53323483 297.72008865 113 300 C112.34 300 111.68 300 111 300 C111 300.66 111 301.32 111 302 C110.34 302 109.68 302 109 302 C109 302.66 109 303.32 109 304 C104.52941176 308 104.52941176 308 102 308 C102 308.66 102 309.32 102 310 C100.3203125 311.2890625 100.3203125 311.2890625 98.125 312.625 C97.40570313 313.07101562 96.68640625 313.51703125 95.9453125 313.9765625 C94 315 94 315 92 315 C92 315.66 92 316.32 92 317 C86.70588235 321 86.70588235 321 83 321 C83 321.66 83 322.32 83 323 C49.96350668 339.69742303 16.29955557 349.58935856 -21 346 C-21.70350586 345.93264648 -22.40701172 345.86529297 -23.13183594 345.79589844 C-51.19254267 342.96214928 -77.16814126 334.37205635 -101.1875 319.5625 C-101.87755127 319.13735107 -102.56760254 318.71220215 -103.27856445 318.27416992 C-104.89225209 317.24265258 -106.45285863 316.1288797 -108 315 C-108 314.34 -108 313.68 -108 313 C-109.0209375 312.6596875 -109.0209375 312.6596875 -110.0625 312.3125 C-113.6988709 310.68773854 -117.02829263 308.67196743 -120 306 C-120 305.34 -120 304.68 -120 304 C-120.59458008 303.72994141 -121.18916016 303.45988281 -121.80175781 303.18164062 C-123.98591927 302.00756894 -125.42293638 300.83502264 -127.171875 299.09375 C-127.75042236 298.51931152 -128.32896973 297.94487305 -128.92504883 297.35302734 C-129.52728271 296.74152832 -130.1295166 296.1300293 -130.75 295.5 C-131.67945435 294.56148193 -131.67945435 294.56148193 -132.62768555 293.60400391 C-145.95695418 279.98735395 -145.95695418 279.98735395 -147 274 C-147.66 274 -148.32 274 -149 274 C-151.96826829 269.86811479 -154.45178368 265.40094884 -157 261 C-157.50805176 260.1339917 -157.50805176 260.1339917 -158.02636719 259.25048828 C-180.73615257 220.1812052 -186.35533226 171.59651305 -175 128 C-169.9117113 109.82021766 -162.59815609 92.65012687 -152 77 C-151.48179687 76.07960938 -150.96359375 75.15921875 -150.4296875 74.2109375 C-149.95789063 73.48132813 -149.48609375 72.75171875 -149 72 C-148.34 72 -147.68 72 -147 72 C-146.7421875 71.27425781 -146.484375 70.54851562 -146.21875 69.80078125 C-144.94757501 66.87952333 -143.45983598 64.69127351 -141.5 62.1875 C-140.8915625 61.39730469 -140.283125 60.60710937 -139.65625 59.79296875 C-139.1096875 59.20128906 -138.563125 58.60960937 -138 58 C-137.34 58 -136.68 58 -136 58 C-135.773125 57.44828125 -135.54625 56.8965625 -135.3125 56.328125 C-133.61274074 53.31307583 -131.45195184 51.18769631 -129 48.75 C-128.113125 47.85796875 -127.22625 46.9659375 -126.3125 46.046875 C-124 44 -124 44 -122 44 C-122 43.34 -122 42.68 -122 42 C-120.07412421 40.36860063 -118.15673283 38.86276775 -116.125 37.375 C-115.56941406 36.95476562 -115.01382813 36.53453125 -114.44140625 36.1015625 C-110.26235288 33 -110.26235288 33 -108 33 C-108 32.34 -108 31.68 -108 31 C-102.70588235 27 -102.70588235 27 -99 27 C-99 26.34 -99 25.68 -99 25 C-67.3510431 8.60047321 -35.95312375 -0.85797227 0 0 Z M-29.76025391 89.67138672 C-31.22741069 90.9408467 -31.22741069 90.9408467 -31 93 C-31.71800781 93.25652344 -32.43601563 93.51304687 -33.17578125 93.77734375 C-36.17140001 95.07420222 -38.54758982 96.64946373 -41.1875 98.5625 C-45.85084746 101.92542373 -45.85084746 101.92542373 -48 103 C-48 112.9 -48 122.8 -48 133 C-46.02 132.505 -46.02 132.505 -44 132 C-44 131.34 -44 130.68 -44 130 C-43.31035156 129.7628125 -42.62070313 129.525625 -41.91015625 129.28125 C-38.44076005 127.75378429 -35.49719126 125.70410441 -32.4375 123.5 C-25.64256345 118.63870825 -25.64256345 118.63870825 -22 117 C-22 116.34 -22 115.68 -22 115 C-20.35 114.34 -18.7 113.68 -17 113 C-17 163.49 -17 213.98 -17 266 C-7.1 266 2.8 266 13 266 C13 204.29 13 142.58 13 79 C-11.59091373 78.10845639 -11.59091373 78.10845639 -29.76025391 89.67138672 Z " fill="#D9B34C" transform="translate(257,77)"/>
<path d="M0 0 C0 50.49 0 100.98 0 153 C-0.33 153 -0.66 153 -1 153 C-1 103.5 -1 54 -1 3 C-2.32 3.33 -3.64 3.66 -5 4 C-5 3.34 -5 2.68 -5 2 C-2 0 -2 0 0 0 Z " fill="#EBD29B" transform="translate(240,190)"/>
<path d="M0 0 C0.99 0.33 1.98 0.66 3 1 C3 1.99 3 2.98 3 4 C3.99 4 4.98 4 6 4 C6.4125 4.639375 6.825 5.27875 7.25 5.9375 C8.94146925 8.39451911 8.94146925 8.39451911 12.5625 8.5 C13.696875 8.665 14.83125 8.83 16 9 C17.6094336 11.16923658 18 12.31923129 18 15 C20.31 16.32 22.62 17.64 25 19 C24.67 19.99 24.34 20.98 24 22 C23.01 22.33 22.02 22.66 21 23 C20.34 22.67 19.68 22.34 19 22 C19 21.34 19 20.68 19 20 C18.41049561 19.73429199 17.82099121 19.46858398 17.21362305 19.19482422 C13.48457476 17.18203473 10.7811284 14.10882098 7.8125 11.125 C7.17119141 10.49980469 6.52988281 9.87460937 5.86914062 9.23046875 C5.25876953 8.62074219 4.64839844 8.01101563 4.01953125 7.3828125 C3.46370361 6.82996582 2.90787598 6.27711914 2.33520508 5.70751953 C0.85294102 3.81193445 0.40908627 2.35056157 0 0 Z " fill="#D7B55D" transform="translate(118,361)"/>
<path d="M0 0 C0.33 0 0.66 0 1 0 C1 8.91 1 17.82 1 27 C2.32 26.67 3.64 26.34 5 26 C5 25.34 5 24.68 5 24 C6.96875 22.4921875 6.96875 22.4921875 9.5 20.875 C10.3353125 20.33617187 11.170625 19.79734375 12.03125 19.2421875 C12.6809375 18.83226562 13.330625 18.42234375 14 18 C14.66 18.33 15.32 18.66 16 19 C15.34 19.99 14.68 20.98 14 22 C13.34 22 12.68 22 12 22 C11.7525 22.5775 11.505 23.155 11.25 23.75 C9.77179527 26.41076851 8.41685961 28.13556544 6 30 C3.3125 29.75 3.3125 29.75 1 29 C0.67 29 0.34 29 0 29 C0 19.43 0 9.86 0 0 Z " fill="#D4BA70" transform="translate(208,183)"/>
<path d="M0 0 C0.66 0 1.32 0 2 0 C5.03944933 8.59630517 7.73628827 16.92768148 9 26 C5.45375836 23.32263808 4.89540952 19.67402112 3.9375 15.5625 C2.78851708 10.54091468 2.78851708 10.54091468 0.87890625 5.77734375 C0 4 0 4 0 0 Z " fill="#D8BA70" transform="translate(411,188)"/>
<path d="M0 0 C1.32 0 2.64 0 4 0 C4 0.66 4 1.32 4 2 C1.06497405 3.00736628 -1.87339461 4.00460504 -4.8125 5 C-5.64587891 5.28617187 -6.47925781 5.57234375 -7.33789062 5.8671875 C-8.54155273 6.27324219 -8.54155273 6.27324219 -9.76953125 6.6875 C-10.50792236 6.93886719 -11.24631348 7.19023437 -12.00708008 7.44921875 C-14 8 -14 8 -17 8 C-17 7.34 -17 6.68 -17 6 C-15.02 6 -13.04 6 -11 6 C-11 5.34 -11 4.68 -11 4 C-9.68 4 -8.36 4 -7 4 C-7 3.34 -7 2.68 -7 2 C-4.69 2 -2.38 2 0 2 C0 1.34 0 0.68 0 0 Z " fill="#DBC17C" transform="translate(313,409)"/>
<path d="M0 0 C1.65 0.33 3.3 0.66 5 1 C5.33 1.99 5.66 2.98 6 4 C4.35 4.66 2.7 5.32 1 6 C1 6.66 1 7.32 1 8 C-1.31 9.32 -3.62 10.64 -6 12 C-6 11.01 -6 10.02 -6 9 C-4.68 8.67 -3.36 8.34 -2 8 C-1.855625 7.236875 -1.71125 6.47375 -1.5625 5.6875 C-1 3 -1 3 0 0 Z " fill="#D9B65A" transform="translate(225,162)"/>
<path d="M0 0 C0.33 0 0.66 0 1 0 C1.46530864 7.78961124 0.15721701 14.52678392 -2 22 C-2.33 22 -2.66 22 -3 22 C-2.59722507 14.45326965 -2.17808026 7.26026753 0 0 Z " fill="#DABB75" transform="translate(421,270)"/>
<path d="M0 0 C3 1 3 1 4.6875 4.3125 C6 8 6 8 6 12 C6.66 12 7.32 12 8 12 C8 13.98 8 15.96 8 18 C5.39667844 14.83936913 3.85961424 11.6568348 2.3125 7.875 C1.87550781 6.82054687 1.43851562 5.76609375 0.98828125 4.6796875 C0 2 0 2 0 0 Z " fill="#D6BB77" transform="translate(87,309)"/>
<path d="M0 0 C0.66 0 1.32 0 2 0 C2.1875 2.875 2.1875 2.875 2 6 C-1 8 -1 8 -4 8 C-4 8.66 -4 9.32 -4 10 C-4.66 10 -5.32 10 -6 10 C-6 9.01 -6 8.02 -6 7 C-5.01 7 -4.02 7 -3 7 C-3 6.01 -3 5.02 -3 4 C-2.34 4 -1.68 4 -1 4 C-0.67 2.68 -0.34 1.36 0 0 Z " fill="#DBBA63" transform="translate(344,390)"/>
<path d="M0 0 C0.33 0.66 0.66 1.32 1 2 C1.66 2 2.32 2 3 2 C2.67 2.66 2.34 3.32 2 4 C1.01 4 0.02 4 -1 4 C-2.0260734 5.31337396 -3.02727325 6.64664105 -4 8 C-4.66 8 -5.32 8 -6 8 C-6 8.66 -6 9.32 -6 10 C-7.32 9.67 -8.64 9.34 -10 9 C-8.71034824 7.62437146 -7.37310707 6.29233607 -6 5 C-5.34 5 -4.68 5 -4 5 C-4 4.34 -4 3.68 -4 3 C-2 1.375 -2 1.375 0 0 Z " fill="#D9BC72" transform="translate(139,116)"/>
<path d="M0 0 C1 3 1 3 0 6 C-2.0625 6.6875 -2.0625 6.6875 -4 7 C-3.67 7.99 -3.34 8.98 -3 10 C-4.65 10.66 -6.3 11.32 -8 12 C-6.59023295 8.96147295 -4.91129772 6.4060405 -2.875 3.75 C-2.06675781 2.69039062 -2.06675781 2.69039062 -1.2421875 1.609375 C-0.83226563 1.07828125 -0.42234375 0.5471875 0 0 Z " fill="#DEC580" transform="translate(119,135)"/>
<path d="M0 0 C3 1 3 1 5 4 C5 4.99 5 5.98 5 7 C5.66 7 6.32 7 7 7 C7.33 8.32 7.66 9.64 8 11 C6.68 10.67 5.36 10.34 4 10 C4 8.35 4 6.7 4 5 C2.68 4.67 1.36 4.34 0 4 C0 2.68 0 1.36 0 0 Z " fill="#DCC078" transform="translate(393,153)"/>
<path d="M0 0 C2.93200474 2.85276137 5.64315404 5.65079784 8 9 C7.67 9.66 7.34 10.32 7 11 C6.01 11 5.02 11 4 11 C4 9.68 4 8.36 4 7 C3.01 6.67 2.02 6.34 1 6 C0.67 4.02 0.34 2.04 0 0 Z " fill="#DABE74" transform="translate(382,137)"/>
<path d="M0 0 C2.52259061 1.97420135 2.9929808 2.96745642 3.6875 6.1875 C3.790625 7.115625 3.89375 8.04375 4 9 C-0.875 6.375 -0.875 6.375 -2 3 C-1.34 2.01 -0.68 1.02 0 0 Z " fill="#DDB45B" transform="translate(107,151)"/>
<path d="M0 0 C0.99 0.33 1.98 0.66 3 1 C3 1.99 3 2.98 3 4 C3.99 4 4.98 4 6 4 C6.33 5.65 6.66 7.3 7 9 C1.21538462 4.56923077 1.21538462 4.56923077 0.125 1.6875 C0.08375 1.130625 0.0425 0.57375 0 0 Z " fill="#D7BE79" transform="translate(118,361)"/>
<path d="M0 0 C0.99 0 1.98 0 3 0 C1.8141763 3.37503669 0.72426311 5.64722731 -2 8 C-2.6875 6.25 -2.6875 6.25 -3 4 C-1.75 1.75 -1.75 1.75 0 0 Z " fill="#DCBB69" transform="translate(395,341)"/>
<path d="M0 0 C1.45606519 4.52092968 0.27032841 7.51648796 -1 12 C-1.66 12 -2.32 12 -3 12 C-2.68950274 10.56206608 -2.3765224 9.1246682 -2.0625 7.6875 C-1.88847656 6.88699219 -1.71445313 6.08648437 -1.53515625 5.26171875 C-1 3 -1 3 0 0 Z " fill="#DFC889" transform="translate(88,186)"/>
<path d="M0 0 C0.99 0.33 1.98 0.66 3 1 C3 1.66 3 2.32 3 3 C3.66 3 4.32 3 5 3 C4.67 4.65 4.34 6.3 4 8 C1.84622436 5.37801226 0.59927826 3.35595828 0 0 Z " fill="#DBC177" transform="translate(95,327)"/>
<path d="M0 0 C0.66 0 1.32 0 2 0 C2.33 1.32 2.66 2.64 3 4 C0.69 5.32 -1.62 6.64 -4 8 C-4 7.01 -4 6.02 -4 5 C-2.68 4.67 -1.36 4.34 0 4 C0 2.68 0 1.36 0 0 Z " fill="#DCC173" transform="translate(223,166)"/>
<path d="M0 0 C3 1 3 1 4 3 C4.039992 4.99960012 4.04346799 7.00047242 4 9 C1.3144406 6.3144406 0.93950026 3.62378672 0 0 Z " fill="#E2C583" transform="translate(87,309)"/>
<path d="M0 0 C3.465 1.485 3.465 1.485 7 3 C7 3.33 7 3.66 7 4 C4.69 4 2.38 4 0 4 C0 2.68 0 1.36 0 0 Z " fill="#DABF75" transform="translate(332,97)"/>
</svg>
