<?xml version="1.0" encoding="UTF-8"?>
<svg version="1.1" xmlns="http://www.w3.org/2000/svg" width="1024" height="1024">
<path d="M0 0 C337.92 0 675.84 0 1024 0 C1024 337.92 1024 675.84 1024 1024 C686.08 1024 348.16 1024 0 1024 C0 686.08 0 348.16 0 0 Z " fill="#F8F8F9" transform="translate(0,0)"/>
<path d="M0 0 C3.0530158 0.01077679 6.10544834 -0.00001209 9.15844727 -0.01269531 C26.03118719 -0.02531827 42.57862227 1.32596121 59.23071289 4.07324219 C60.80320801 4.3319812 60.80320801 4.3319812 62.4074707 4.59594727 C91.64464061 9.5415711 119.82966767 18.03196815 146.85571289 30.26074219 C147.8432959 30.70708008 148.83087891 31.15341797 149.84838867 31.61328125 C180.48067338 45.59078233 208.58413628 64.00237825 233.85571289 86.26074219 C234.78125977 87.07414062 235.70680664 87.88753906 236.66040039 88.72558594 C249.92166513 100.64603028 262.95080906 113.12551778 273.85571289 127.26074219 C274.7295365 128.31466942 275.60741818 129.36524034 276.48852539 130.41308594 C293.80453388 151.18053652 308.27679375 174.79642339 319.87426758 199.20751953 C320.53151054 200.58249797 321.19895417 201.95264435 321.8762207 203.31787109 C336.92958656 233.69766387 345.51942979 267.09336847 350.66821289 300.44824219 C350.77398651 301.13066986 350.87976013 301.81309753 350.98873901 302.51620483 C353.52406569 319.10995184 354.06288948 335.51140879 354.04321289 352.26074219 C354.04230652 353.68805161 354.04230652 353.68805161 354.04138184 355.14419556 C354.01705416 369.26418615 353.80171778 383.25267985 351.85571289 397.26074219 C351.72680664 398.19692383 351.59790039 399.13310547 351.46508789 400.09765625 C348.09703751 423.66621252 342.66713809 446.77294297 334.85571289 469.26074219 C334.37908203 470.65462158 334.37908203 470.65462158 333.89282227 472.07666016 C320.49681865 510.87090535 299.91670008 546.59453729 273.85571289 578.26074219 C273.41598145 578.8034375 272.97625 579.34613281 272.52319336 579.90527344 C264.97300146 589.17277453 256.65378552 597.67003482 248.23071289 606.13574219 C247.70177429 606.66994781 247.17283569 607.20415344 246.62786865 607.75454712 C239.70781275 614.72782185 232.58756626 621.17799559 224.85571289 627.26074219 C223.73060303 628.16687256 223.73060303 628.16687256 222.58276367 629.09130859 C151.54662158 686.29281777 57.19801798 713.17481581 -33.4609375 704.38745117 C-38.70722931 703.7900762 -43.92543848 703.06085643 -49.14428711 702.26074219 C-50.10286621 702.12152344 -51.06144531 701.98230469 -52.04907227 701.83886719 C-138.06245867 689.17216089 -221.21331246 644.07844868 -275.14428711 575.26074219 C-276.23374358 573.90105679 -277.32362228 572.54170964 -278.41381836 571.18261719 C-308.64797221 533.22504525 -329.56904358 489.00590661 -342.14428711 442.26074219 C-342.5189209 440.88378174 -342.5189209 440.88378174 -342.90112305 439.47900391 C-363.7543346 361.63376271 -355.06110046 273.6897291 -320.14428711 201.26074219 C-319.52215332 199.94710693 -319.52215332 199.94710693 -318.88745117 198.60693359 C-309.74986845 179.36575582 -298.90790147 161.31376793 -286.14428711 144.26074219 C-285.75208984 143.73109863 -285.35989258 143.20145508 -284.95581055 142.65576172 C-275.84187776 130.37095534 -265.74156827 118.9567093 -255.33178711 107.76074219 C-254.73406494 107.11451904 -254.13634277 106.4682959 -253.52050781 105.80249023 C-249.86030654 101.90510509 -246.0339644 98.32348012 -241.97705078 94.84179688 C-239.65622939 92.83971358 -237.43788935 90.73691335 -235.20678711 88.63574219 C-227.91948311 81.99440419 -220.05402914 76.134517 -212.14428711 70.26074219 C-211.55276855 69.81730469 -210.96125 69.37386719 -210.35180664 68.91699219 C-165.18273299 35.15558239 -111.40074278 13.63874211 -56.01928711 4.01074219 C-55.16343018 3.85943848 -54.30757324 3.70813477 -53.42578125 3.55224609 C-35.74581293 0.68469877 -17.8819718 -0.0747538 0 0 Z " fill="#DAB44D" transform="translate(512.144287109375,159.7392578125)"/>
<path d="M0 0 C34.27639795 -1.22995876 68.09630409 7.01579843 93.65966797 30.78173828 C111.52704586 48.09076061 123.53251872 74.65705527 124.34716797 99.70751953 C123.78785563 125.17268116 113.32071995 148.49579248 95.03466797 166.08251953 C79.44752753 180.08251953 79.44752753 180.08251953 73.03466797 180.08251953 C75.58186635 182.83862414 78.25823868 184.29067387 81.63232422 185.93530273 C103.95164686 196.86616147 117.87818716 214.79614021 126.34716797 237.95751953 C135.39419322 267.79259837 132.02278714 299.5817537 117.39013672 327.03173828 C104.3330313 350.23126623 85.63207522 365.59402101 61.03466797 375.08251953 C60.03693359 375.47181641 59.03919922 375.86111328 58.01123047 376.26220703 C22.85551698 388.42061733 -21.31530933 386.55283872 -54.91259766 370.29980469 C-79.21098233 357.97412455 -98.28725656 337.42924594 -106.93798828 311.47705078 C-110.40879575 300.00886945 -111.96533203 290.18296316 -111.96533203 278.08251953 C-91.83533203 278.08251953 -71.70533203 278.08251953 -50.96533203 278.08251953 C-49.64533203 283.03251953 -48.32533203 287.98251953 -46.96533203 293.08251953 C-40.01367161 307.93379407 -30.73990388 316.24410711 -15.58251953 322.22314453 C1.9438858 327.9780836 23.33244652 327.18912616 40.23388672 319.65673828 C52.92709498 313.09829823 59.75616405 303.9307985 64.30810547 290.49267578 C69.27102803 274.02964773 66.77373632 254.88815316 58.74169922 239.89892578 C50.65651703 226.55930025 36.64892047 219.32574476 21.92919922 215.21533203 C9.7641886 212.37997994 -1.03205983 212.62140587 -13.96533203 212.08251953 C-13.96533203 195.58251953 -13.96533203 179.08251953 -13.96533203 162.08251953 C0.28466797 161.20751953 0.28466797 161.20751953 4.69970703 160.94628906 C21.02372278 159.89919665 36.56450083 158.03910141 48.03466797 145.08251953 C58.67177336 130.68857198 62.70757411 115.89060541 61.03466797 98.08251953 C58.71336262 85.81653104 52.82318289 74.94376209 43.03466797 67.08251953 C32.16092322 59.89313207 21.94672517 57.57270687 9.03466797 57.70751953 C7.92349609 57.69591797 6.81232422 57.68431641 5.66748047 57.67236328 C-3.76339615 57.70564873 -11.64545129 59.42637533 -19.90283203 64.08251953 C-20.79873047 64.57751953 -21.69462891 65.07251953 -22.61767578 65.58251953 C-24.72640319 66.9298595 -26.21489957 68.3268619 -27.96533203 70.08251953 C-28.62533203 70.08251953 -29.28533203 70.08251953 -29.96533203 70.08251953 C-30.22830078 70.65744141 -30.49126953 71.23236328 -30.76220703 71.82470703 C-32.03188748 74.20741904 -33.5355463 76.09643746 -35.21533203 78.20751953 C-40.29940876 85.64605132 -40.29940876 85.64605132 -44.96533203 102.08251953 C-63.77533203 102.08251953 -82.58533203 102.08251953 -101.96533203 102.08251953 C-101.96533203 88.01559008 -101.96533203 88.01559008 -100.77783203 81.77001953 C-100.64618652 81.0570874 -100.51454102 80.34415527 -100.37890625 79.60961914 C-95.61392052 55.3307544 -82.97374908 35.00521668 -62.84033203 20.45751953 C-43.82920153 7.80582491 -22.87932039 0.96064724 0 0 Z " fill="#FEFEFE" transform="translate(502.96533203125,312.91748046875)"/>
<path d="M0 0 C0.66 0.33 1.32 0.66 2 1 C1.85851011 2.6045556 1.71164314 4.20863767 1.5625 5.8125 C1.48128906 6.70582031 1.40007812 7.59914063 1.31640625 8.51953125 C1 11 1 11 0 14 C-0.66 14 -1.32 14 -2 14 C-1.85795259 12.41632253 -1.71119847 10.83306682 -1.5625 9.25 C-1.48128906 8.36828125 -1.40007812 7.4865625 -1.31640625 6.578125 C-1.03761535 4.30649548 -0.61209423 2.20148177 0 0 Z " fill="#D9AE41" transform="translate(170,421)"/>
<path d="M0 0 C0.66 0.33 1.32 0.66 2 1 C0.92492371 2.29854721 -0.16043736 3.58858361 -1.25 4.875 C-1.85328125 5.59429687 -2.4565625 6.31359375 -3.078125 7.0546875 C-4.97087634 8.97052118 -6.53657727 9.96449045 -9 11 C-8.06558465 9.72689688 -7.12732889 8.456612 -6.1875 7.1875 C-5.66542969 6.47980469 -5.14335937 5.77210938 -4.60546875 5.04296875 C-3.16871123 3.21468607 -1.68184237 1.60103312 0 0 Z " fill="#D9AD3F" transform="translate(262,262)"/>
</svg>
