<?xml version="1.0" standalone="no"?>
<!DOCTYPE svg PUBLIC "-//W3C//DTD SVG 20010904//EN"
 "http://www.w3.org/TR/2001/REC-SVG-20010904/DTD/svg10.dtd">
<svg version="1.0" xmlns="http://www.w3.org/2000/svg"
 width="500.000000pt" height="500.000000pt" viewBox="0 0 500.000000 500.000000"
 preserveAspectRatio="xMidYMid meet">

<g transform="translate(0.000000,500.000000) scale(0.100000,-0.100000)"
fill="#000000" stroke="none">
<path d="M1956 3529 c-273 -45 -499 -253 -572 -524 -25 -92 -26 -265 -2 -352
81 -293 323 -503 616 -533 349 -37 649 156 770 495 37 103 40 280 7 400 -96
354 -451 576 -819 514z m314 -108 c160 -51 306 -176 377 -321 49 -102 68 -196
61 -311 -9 -153 -67 -277 -183 -395 -63 -64 -98 -90 -165 -123 -248 -121 -517
-80 -712 109 -229 224 -262 533 -84 800 87 130 208 212 377 255 78 20 246 13
329 -14z"/>
<path d="M2197 2895 l-210 -216 -107 106 c-59 58 -112 105 -119 105 -26 0 -51
-22 -51 -43 0 -30 246 -277 276 -277 20 0 122 99 397 385 85 88 100 118 75
143 -29 29 -55 9 -261 -203z"/>
<path d="M3393 3019 c-39 -14 -29 -49 32 -109 30 -30 55 -58 55 -62 0 -5 -123
-8 -273 -8 -253 0 -275 -1 -290 -18 -10 -10 -17 -25 -17 -33 0 -37 18 -39 302
-39 153 0 278 -4 278 -8 0 -4 -25 -32 -55 -62 -55 -54 -67 -84 -43 -108 28
-28 55 -11 162 97 92 93 107 113 101 133 -7 23 -190 210 -216 220 -8 3 -24 2
-36 -3z"/>
<path d="M1498 1899 c-23 -13 -24 -65 -2 -73 25 -10 1167 -7 1183 3 7 5 14 21
14 36 0 15 -7 31 -14 36 -20 13 -1160 11 -1181 -2z"/>
<path d="M1484 1634 c-15 -60 -24 -59 406 -62 290 -2 396 1 407 10 8 6 13 24
11 42 l-3 31 -407 3 -408 2 -6 -26z"/>
</g>
</svg>
