<?xml version="1.0" standalone="no"?>
<!DOCTYPE svg PUBLIC "-//W3C//DTD SVG 20010904//EN"
 "http://www.w3.org/TR/2001/REC-SVG-20010904/DTD/svg10.dtd">
<svg version="1.0" xmlns="http://www.w3.org/2000/svg"
 width="500.000000pt" height="500.000000pt" viewBox="0 0 500.000000 500.000000"
 preserveAspectRatio="xMidYMid meet">

<g transform="translate(0.000000,500.000000) scale(0.100000,-0.100000)"
fill="#000000" stroke="none">
<path d="M1486 3754 c-14 -14 -16 -59 -14 -382 3 -350 4 -367 22 -370 11 -3
28 7 42 25 23 28 23 28 24 341 l0 312 715 0 715 0 0 -216 c0 -129 4 -223 10
-235 10 -18 23 -19 235 -19 l225 0 0 -905 0 -905 -950 0 -950 0 0 380 0 380
-29 32 c-25 28 -31 30 -45 19 -14 -12 -16 -60 -16 -445 0 -323 3 -435 12 -444
9 -9 250 -12 1024 -12 907 0 1014 2 1028 16 14 14 16 117 16 982 l0 967 -248
247 -247 248 -777 0 c-695 0 -778 -2 -792 -16z m1754 -299 l155 -155 -158 0
-157 0 0 155 c0 85 1 155 3 155 1 0 72 -70 157 -155z"/>
<path d="M1798 3061 c-83 -27 -138 -62 -201 -130 -89 -96 -126 -193 -127 -327
0 -207 124 -373 340 -455 45 -17 213 -18 265 -1 138 45 240 133 302 259 37 77
38 80 38 193 0 86 -5 128 -18 165 -53 144 -180 263 -322 301 -72 20 -208 17
-277 -5z m278 -87 c104 -33 206 -137 240 -243 24 -74 23 -190 -3 -254 -109
-275 -456 -346 -651 -133 -88 97 -124 209 -103 323 45 244 281 384 517 307z"/>
<path d="M2018 2653 c-66 -65 -121 -119 -122 -121 -2 -1 -28 23 -58 53 -37 37
-63 55 -79 55 -29 0 -49 -17 -49 -42 0 -24 158 -178 183 -178 25 0 307 277
307 301 0 22 -26 49 -47 49 -8 0 -69 -53 -135 -117z"/>
<path d="M3008 2699 c-17 -9 -18 -43 -18 -479 l0 -470 -60 0 -60 0 0 308 c0
226 -3 311 -12 320 -19 19 -222 16 -242 -4 -14 -13 -16 -56 -16 -320 l0 -304
-60 0 -60 0 0 178 c0 125 -4 182 -12 190 -8 8 -50 12 -125 12 -101 0 -113 -2
-123 -19 -6 -12 -10 -92 -10 -190 l0 -171 -93 0 c-59 0 -97 -4 -105 -12 -18
-18 -14 -56 7 -68 13 -6 236 -10 655 -10 564 0 636 2 650 16 30 30 10 74 -34
74 l-30 0 0 470 c0 454 -1 470 -19 480 -25 13 -211 13 -233 -1z m162 -514 l0
-435 -45 0 -45 0 0 435 0 435 45 0 45 0 0 -435z m-390 -160 l0 -275 -45 0 -45
0 0 275 0 275 45 0 45 0 0 -275z m-390 -127 l0 -148 -45 0 -45 0 0 148 0 147
45 0 45 0 0 -147z"/>
</g>
</svg>
